<?xml version="1.0" encoding="UTF-8" standalone="no"?>
<!-- This is a Stata 15.0 generated SVG file (http://www.stata.com) -->

<svg version="1.1" width="5.50in" height="4.00in" viewBox="0 0 3960 2880" xmlns="http://www.w3.org/2000/svg" xmlns:xlink="http://www.w3.org/1999/xlink">
	<desc>Stata Graph - Graph</desc>
	<rect x="0" y="0" width="3960" height="2880" style="fill:#EAF2F3;stroke:none"/>
	<rect x="0.00" y="0.00" width="3959.88" height="2880.00" style="fill:#EAF2F3"/>
	<rect x="2.88" y="2.88" width="3954.12" height="2874.24" style="fill:none;stroke:#EAF2F3;stroke-width:5.76"/>
	<rect x="390.80" y="100.86" width="3468.22" height="2273.85" style="fill:#FFFFFF"/>
	<rect x="393.68" y="103.74" width="3462.46" height="2268.09" style="fill:none;stroke:#FFFFFF;stroke-width:5.76"/>
	<line x1="390.80" y1="2254.18" x2="3859.02" y2="2254.18" style="stroke:#EAF2F3;stroke-width:8.64"/>
	<line x1="390.80" y1="1557.57" x2="3859.02" y2="1557.57" style="stroke:#EAF2F3;stroke-width:8.64"/>
	<line x1="390.80" y1="860.83" x2="3859.02" y2="860.83" style="stroke:#EAF2F3;stroke-width:8.64"/>
	<line x1="390.80" y1="164.22" x2="3859.02" y2="164.22" style="stroke:#EAF2F3;stroke-width:8.64"/>
	<line x1="390.80" y1="860.83" x2="3859.02" y2="860.83" style="stroke:#EAF2F3;stroke-width:8.64"/>
	<path d="
M587.81 1348.55 L587.81 1348.55 L721.46 1348.55 L855.11 1348.55 L988.76 1348.55 L1122.41 1348.55 L1256.06 1348.55 L1389.84 1348.55 L1523.49 1348.55 L1657.14 1348.55 L1790.79 1348.55 L1924.44 1348.55 L2058.09 1348.55 L2191.74 1348.55 L2325.39 1348.55 L2459.04 1348.55 L2592.81 1348.55 L2726.46 1348.55 L2860.11 1348.55 L2993.76 1348.55 L3127.41 1348.55 L3261.06 1348.55 L3394.71 1348.55 L3528.36 1348.55 L3662.01 1348.55 L3662.01 373.12 L3528.36 373.12 L3394.71 373.12 L3261.06 373.12 L3127.41 373.12 L2993.76 373.12 L2860.11 373.12 L2726.46 373.12 L2592.81 373.12 L2459.04 373.12 L2325.39 373.12 L2191.74 373.12 L2058.09 373.12 L1924.44 373.12 L1790.79 373.12 L1657.14 373.12 L1523.49 373.12 L1389.84 373.12 L1256.06 373.12 L1122.41 373.12 L988.76 373.12 L855.11 373.12 L721.46 373.12 L587.81 373.12 L587.81 1348.55 Z" stroke-linecap="round" stroke-alignment="inner" style="fill:#C0C0C0;stroke:#C0C0C0;stroke-width:8.64"/>
	<line x1="587.81" y1="860.83" x2="587.81" y2="2311.35" style="stroke:#1A476F;stroke-width:8.64"/>
	<line x1="721.46" y1="860.83" x2="721.46" y2="1543.83" style="stroke:#1A476F;stroke-width:8.64"/>
	<line x1="855.11" y1="860.83" x2="855.11" y2="1741.09" style="stroke:#1A476F;stroke-width:8.64"/>
	<line x1="988.76" y1="860.83" x2="988.76" y2="1184.45" style="stroke:#1A476F;stroke-width:8.64"/>
	<line x1="1122.41" y1="860.83" x2="1122.41" y2="1479.72" style="stroke:#1A476F;stroke-width:8.64"/>
	<line x1="1256.06" y1="860.83" x2="1256.06" y2="1298.30" style="stroke:#1A476F;stroke-width:8.64"/>
	<line x1="1389.84" y1="860.83" x2="1389.84" y2="955.01" style="stroke:#1A476F;stroke-width:8.64"/>
	<line x1="1523.49" y1="860.83" x2="1523.49" y2="1650.75" style="stroke:#1A476F;stroke-width:8.64"/>
	<line x1="1657.14" y1="860.83" x2="1657.14" y2="1669.32" style="stroke:#1A476F;stroke-width:8.64"/>
	<line x1="1790.79" y1="860.83" x2="1790.79" y2="1462.89" style="stroke:#1A476F;stroke-width:8.64"/>
	<line x1="1924.44" y1="860.83" x2="1924.44" y2="720.74" style="stroke:#1A476F;stroke-width:8.64"/>
	<line x1="2058.09" y1="860.83" x2="2058.09" y2="920.85" style="stroke:#1A476F;stroke-width:8.64"/>
	<line x1="2191.74" y1="860.83" x2="2191.74" y2="1116.26" style="stroke:#1A476F;stroke-width:8.64"/>
	<line x1="2325.39" y1="860.83" x2="2325.39" y2="773.09" style="stroke:#1A476F;stroke-width:8.64"/>
	<line x1="2459.04" y1="860.83" x2="2459.04" y2="1423.42" style="stroke:#1A476F;stroke-width:8.64"/>
	<line x1="2592.81" y1="860.83" x2="2592.81" y2="710.10" style="stroke:#1A476F;stroke-width:8.64"/>
	<line x1="2726.46" y1="860.83" x2="2726.46" y2="1270.33" style="stroke:#1A476F;stroke-width:8.64"/>
	<line x1="2860.11" y1="860.83" x2="2860.11" y2="829.77" style="stroke:#1A476F;stroke-width:8.64"/>
	<line x1="2993.76" y1="860.83" x2="2993.76" y2="965.90" style="stroke:#1A476F;stroke-width:8.64"/>
	<line x1="3127.41" y1="860.83" x2="3127.41" y2="944.24" style="stroke:#1A476F;stroke-width:8.64"/>
	<line x1="3261.06" y1="860.83" x2="3261.06" y2="754.90" style="stroke:#1A476F;stroke-width:8.64"/>
	<line x1="3394.71" y1="860.83" x2="3394.71" y2="753.66" style="stroke:#1A476F;stroke-width:8.64"/>
	<line x1="3528.36" y1="860.83" x2="3528.36" y2="992.13" style="stroke:#1A476F;stroke-width:8.64"/>
	<line x1="3662.01" y1="860.83" x2="3662.01" y2="1089.28" style="stroke:#1A476F;stroke-width:8.64"/>
	<circle cx="587.69" cy="2311.35" r="26.35" style="fill:#1A476F"/>
	<circle cx="587.69" cy="2311.35" r="22.03" style="fill:none;stroke:#1A476F;stroke-width:8.64"/>
	<circle cx="721.46" cy="1543.83" r="26.35" style="fill:#1A476F"/>
	<circle cx="721.46" cy="1543.83" r="22.03" style="fill:none;stroke:#1A476F;stroke-width:8.64"/>
	<circle cx="855.11" cy="1741.22" r="26.35" style="fill:#1A476F"/>
	<circle cx="855.11" cy="1741.22" r="22.03" style="fill:none;stroke:#1A476F;stroke-width:8.64"/>
	<circle cx="988.76" cy="1184.45" r="26.35" style="fill:#1A476F"/>
	<circle cx="988.76" cy="1184.45" r="22.03" style="fill:none;stroke:#1A476F;stroke-width:8.64"/>
	<circle cx="1122.41" cy="1479.85" r="26.35" style="fill:#1A476F"/>
	<circle cx="1122.41" cy="1479.85" r="22.03" style="fill:none;stroke:#1A476F;stroke-width:8.64"/>
	<circle cx="1256.06" cy="1298.43" r="26.35" style="fill:#1A476F"/>
	<circle cx="1256.06" cy="1298.43" r="22.03" style="fill:none;stroke:#1A476F;stroke-width:8.64"/>
	<circle cx="1389.71" cy="955.13" r="26.35" style="fill:#1A476F"/>
	<circle cx="1389.71" cy="955.13" r="22.03" style="fill:none;stroke:#1A476F;stroke-width:8.64"/>
	<circle cx="1523.36" cy="1650.88" r="26.35" style="fill:#1A476F"/>
	<circle cx="1523.36" cy="1650.88" r="22.03" style="fill:none;stroke:#1A476F;stroke-width:8.64"/>
	<circle cx="1657.01" cy="1669.32" r="26.35" style="fill:#1A476F"/>
	<circle cx="1657.01" cy="1669.32" r="22.03" style="fill:none;stroke:#1A476F;stroke-width:8.64"/>
	<circle cx="1790.66" cy="1463.02" r="26.35" style="fill:#1A476F"/>
	<circle cx="1790.66" cy="1463.02" r="22.03" style="fill:none;stroke:#1A476F;stroke-width:8.64"/>
	<circle cx="1924.31" cy="720.74" r="26.35" style="fill:#1A476F"/>
	<circle cx="1924.31" cy="720.74" r="22.03" style="fill:none;stroke:#1A476F;stroke-width:8.64"/>
	<circle cx="2058.09" cy="920.98" r="26.35" style="fill:#1A476F"/>
	<circle cx="2058.09" cy="920.98" r="22.03" style="fill:none;stroke:#1A476F;stroke-width:8.64"/>
	<circle cx="2191.74" cy="1116.26" r="26.35" style="fill:#1A476F"/>
	<circle cx="2191.74" cy="1116.26" r="22.03" style="fill:none;stroke:#1A476F;stroke-width:8.64"/>
	<circle cx="2325.39" cy="773.09" r="26.35" style="fill:#1A476F"/>
	<circle cx="2325.39" cy="773.09" r="22.03" style="fill:none;stroke:#1A476F;stroke-width:8.64"/>
	<circle cx="2459.04" cy="1423.54" r="26.35" style="fill:#1A476F"/>
	<circle cx="2459.04" cy="1423.54" r="22.03" style="fill:none;stroke:#1A476F;stroke-width:8.64"/>
	<circle cx="2592.69" cy="710.22" r="26.35" style="fill:#1A476F"/>
	<circle cx="2592.69" cy="710.22" r="22.03" style="fill:none;stroke:#1A476F;stroke-width:8.64"/>
	<circle cx="2726.34" cy="1270.33" r="26.35" style="fill:#1A476F"/>
	<circle cx="2726.34" cy="1270.33" r="22.03" style="fill:none;stroke:#1A476F;stroke-width:8.64"/>
	<circle cx="2859.99" cy="829.77" r="26.35" style="fill:#1A476F"/>
	<circle cx="2859.99" cy="829.77" r="22.03" style="fill:none;stroke:#1A476F;stroke-width:8.64"/>
	<circle cx="2993.64" cy="966.02" r="26.35" style="fill:#1A476F"/>
	<circle cx="2993.64" cy="966.02" r="22.03" style="fill:none;stroke:#1A476F;stroke-width:8.64"/>
	<circle cx="3127.29" cy="944.24" r="26.35" style="fill:#1A476F"/>
	<circle cx="3127.29" cy="944.24" r="22.03" style="fill:none;stroke:#1A476F;stroke-width:8.64"/>
	<circle cx="3261.06" cy="755.02" r="26.35" style="fill:#1A476F"/>
	<circle cx="3261.06" cy="755.02" r="22.03" style="fill:none;stroke:#1A476F;stroke-width:8.64"/>
	<circle cx="3394.71" cy="753.66" r="26.35" style="fill:#1A476F"/>
	<circle cx="3394.71" cy="753.66" r="22.03" style="fill:none;stroke:#1A476F;stroke-width:8.64"/>
	<circle cx="3528.36" cy="992.26" r="26.35" style="fill:#1A476F"/>
	<circle cx="3528.36" cy="992.26" r="22.03" style="fill:none;stroke:#1A476F;stroke-width:8.64"/>
	<circle cx="3662.01" cy="1089.41" r="26.35" style="fill:#1A476F"/>
	<circle cx="3662.01" cy="1089.41" r="22.03" style="fill:none;stroke:#1A476F;stroke-width:8.64"/>
	<line x1="390.80" y1="2374.71" x2="390.80" y2="100.86" style="stroke:#000000;stroke-width:5.76"/>
	<line x1="390.80" y1="2254.18" x2="350.83" y2="2254.18" style="stroke:#000000;stroke-width:5.76"/>
	<text x="300.72" y="2254.18" style="font-family:'Helvetica';font-size:99.99px;fill:#000000" transform="rotate(-90 300.72,2254.18)" text-anchor="middle">-0.40</text>
	<line x1="390.80" y1="1557.57" x2="350.83" y2="1557.57" style="stroke:#000000;stroke-width:5.76"/>
	<text x="300.72" y="1557.57" style="font-family:'Helvetica';font-size:99.99px;fill:#000000" transform="rotate(-90 300.72,1557.57)" text-anchor="middle">-0.20</text>
	<line x1="390.80" y1="860.83" x2="350.83" y2="860.83" style="stroke:#000000;stroke-width:5.76"/>
	<text x="300.72" y="860.83" style="font-family:'Helvetica';font-size:99.99px;fill:#000000" transform="rotate(-90 300.72,860.83)" text-anchor="middle">0.00</text>
	<line x1="390.80" y1="164.22" x2="350.83" y2="164.22" style="stroke:#000000;stroke-width:5.76"/>
	<text x="300.72" y="164.22" style="font-family:'Helvetica';font-size:99.99px;fill:#000000" transform="rotate(-90 300.72,164.22)" text-anchor="middle">0.20</text>
	<text x="190.71" y="1237.79" style="font-family:'Helvetica';font-size:99.99px;fill:#000000" transform="rotate(-90 190.71,1237.79)" text-anchor="middle">Partial autocorrelations of D2.yyy</text>
	<line x1="390.80" y1="2374.71" x2="3859.02" y2="2374.71" style="stroke:#000000;stroke-width:5.76"/>
	<line x1="454.16" y1="2374.71" x2="454.16" y2="2414.69" style="stroke:#000000;stroke-width:5.76"/>
	<text x="454.16" y="2504.54" style="font-family:'Helvetica';font-size:99.99px;fill:#000000" text-anchor="middle">0</text>
	<line x1="1122.41" y1="2374.71" x2="1122.41" y2="2414.69" style="stroke:#000000;stroke-width:5.76"/>
	<text x="1122.41" y="2504.54" style="font-family:'Helvetica';font-size:99.99px;fill:#000000" text-anchor="middle">5</text>
	<line x1="1790.79" y1="2374.71" x2="1790.79" y2="2414.69" style="stroke:#000000;stroke-width:5.76"/>
	<text x="1790.79" y="2504.54" style="font-family:'Helvetica';font-size:99.99px;fill:#000000" text-anchor="middle">10</text>
	<line x1="2459.04" y1="2374.71" x2="2459.04" y2="2414.69" style="stroke:#000000;stroke-width:5.76"/>
	<text x="2459.04" y="2504.54" style="font-family:'Helvetica';font-size:99.99px;fill:#000000" text-anchor="middle">15</text>
	<line x1="3127.41" y1="2374.71" x2="3127.41" y2="2414.69" style="stroke:#000000;stroke-width:5.76"/>
	<text x="3127.41" y="2504.54" style="font-family:'Helvetica';font-size:99.99px;fill:#000000" text-anchor="middle">20</text>
	<line x1="3795.66" y1="2374.71" x2="3795.66" y2="2414.69" style="stroke:#000000;stroke-width:5.76"/>
	<text x="3795.66" y="2504.54" style="font-family:'Helvetica';font-size:99.99px;fill:#000000" text-anchor="middle">25</text>
	<text x="2124.91" y="2614.56" style="font-family:'Helvetica';font-size:99.99px;fill:#000000" text-anchor="middle">Lag</text>
	<text x="408.00" y="2737.89" style="font-family:'Helvetica';font-size:79.94px;fill:#000000">95% Confidence bands [se = 1/sqrt(n)]</text>
</svg>
