<?xml version="1.0" encoding="UTF-8" standalone="no"?>
<!-- This is a Stata 15.0 generated SVG file (http://www.stata.com) -->

<svg version="1.1" width="5.50in" height="4.00in" viewBox="0 0 3960 2880" xmlns="http://www.w3.org/2000/svg" xmlns:xlink="http://www.w3.org/1999/xlink">
	<desc>Stata Graph - Graph</desc>
	<rect x="0" y="0" width="3960" height="2880" style="fill:#EAF2F3;stroke:none"/>
	<rect x="0.00" y="0.00" width="3959.88" height="2880.00" style="fill:#EAF2F3"/>
	<rect x="2.88" y="2.88" width="3954.12" height="2874.24" style="fill:none;stroke:#EAF2F3;stroke-width:5.76"/>
	<rect x="390.80" y="100.86" width="3468.22" height="2273.85" style="fill:#FFFFFF"/>
	<rect x="393.68" y="103.74" width="3462.46" height="2268.09" style="fill:none;stroke:#FFFFFF;stroke-width:5.76"/>
	<line x1="390.80" y1="2216.80" x2="3859.02" y2="2216.80" style="stroke:#EAF2F3;stroke-width:8.64"/>
	<line x1="390.80" y1="1532.57" x2="3859.02" y2="1532.57" style="stroke:#EAF2F3;stroke-width:8.64"/>
	<line x1="390.80" y1="848.33" x2="3859.02" y2="848.33" style="stroke:#EAF2F3;stroke-width:8.64"/>
	<line x1="390.80" y1="164.22" x2="3859.02" y2="164.22" style="stroke:#EAF2F3;stroke-width:8.64"/>
	<line x1="390.80" y1="1532.57" x2="3859.02" y2="1532.57" style="stroke:#EAF2F3;stroke-width:8.64"/>
	<path d="
M587.81 2010.38 L587.81 2010.38 L721.46 2072.26 L855.11 2102.33 L988.76 2110.37 L1122.41 2120.65 L1256.06 2122.87 L1389.84 2130.79 L1523.49 2138.22 L1657.14 2141.19 L1790.79 2158.14 L1924.44 2190.69 L2058.09 2226.08 L2191.74 2236.73 L2325.39 2245.64 L2459.04 2253.31 L2592.81 2256.28 L2726.46 2267.05 L2860.11 2270.64 L2993.76 2281.16 L3127.41 2285.36 L3261.06 2299.47 L3394.71 2305.53 L3528.36 2310.86 L3662.01 2311.35 L3662.01 753.91 L3528.36 754.40 L3394.71 759.60 L3261.06 765.67 L3127.41 779.90 L2993.76 783.98 L2860.11 794.62 L2726.46 798.09 L2592.81 808.86 L2459.04 811.83 L2325.39 819.62 L2191.74 828.53 L2058.09 839.05 L1924.44 874.57 L1790.79 906.99 L1657.14 924.07 L1523.49 926.92 L1389.84 934.34 L1256.06 942.39 L1122.41 944.61 L988.76 954.76 L855.11 962.81 L721.46 992.88 L587.81 1054.88 L587.81 2010.38 Z" stroke-linecap="round" stroke-alignment="inner" style="fill:#C0C0C0;stroke:#C0C0C0;stroke-width:8.64"/>
	<line x1="587.81" y1="1532.57" x2="587.81" y2="261.00" style="stroke:#1A476F;stroke-width:8.64"/>
	<line x1="721.46" y1="1532.57" x2="721.46" y2="607.51" style="stroke:#1A476F;stroke-width:8.64"/>
	<line x1="855.11" y1="1532.57" x2="855.11" y2="1046.96" style="stroke:#1A476F;stroke-width:8.64"/>
	<line x1="988.76" y1="1532.57" x2="988.76" y2="979.64" style="stroke:#1A476F;stroke-width:8.64"/>
	<line x1="1122.41" y1="1532.57" x2="1122.41" y2="1272.68" style="stroke:#1A476F;stroke-width:8.64"/>
	<line x1="1256.06" y1="1532.57" x2="1256.06" y2="1040.03" style="stroke:#1A476F;stroke-width:8.64"/>
	<line x1="1389.84" y1="1532.57" x2="1389.84" y2="1054.51" style="stroke:#1A476F;stroke-width:8.64"/>
	<line x1="1523.49" y1="1532.57" x2="1523.49" y2="1231.97" style="stroke:#1A476F;stroke-width:8.64"/>
	<line x1="1657.14" y1="1532.57" x2="1657.14" y2="797.72" style="stroke:#1A476F;stroke-width:8.64"/>
	<line x1="1790.79" y1="1532.57" x2="1790.79" y2="498.85" style="stroke:#1A476F;stroke-width:8.64"/>
	<line x1="1924.44" y1="1532.57" x2="1924.44" y2="424.23" style="stroke:#1A476F;stroke-width:8.64"/>
	<line x1="2058.09" y1="1532.57" x2="2058.09" y2="917.76" style="stroke:#1A476F;stroke-width:8.64"/>
	<line x1="2191.74" y1="1532.57" x2="2191.74" y2="961.94" style="stroke:#1A476F;stroke-width:8.64"/>
	<line x1="2325.39" y1="1532.57" x2="2325.39" y2="1000.55" style="stroke:#1A476F;stroke-width:8.64"/>
	<line x1="2459.04" y1="1532.57" x2="2459.04" y2="1198.68" style="stroke:#1A476F;stroke-width:8.64"/>
	<line x1="2592.81" y1="1532.57" x2="2592.81" y2="899.81" style="stroke:#1A476F;stroke-width:8.64"/>
	<line x1="2726.46" y1="1532.57" x2="2726.46" y2="1165.02" style="stroke:#1A476F;stroke-width:8.64"/>
	<line x1="2860.11" y1="1532.57" x2="2860.11" y2="899.20" style="stroke:#1A476F;stroke-width:8.64"/>
	<line x1="2993.76" y1="1532.57" x2="2993.76" y2="1130.62" style="stroke:#1A476F;stroke-width:8.64"/>
	<line x1="3127.41" y1="1532.57" x2="3127.41" y2="790.29" style="stroke:#1A476F;stroke-width:8.64"/>
	<line x1="3261.06" y1="1532.57" x2="3261.06" y2="1041.64" style="stroke:#1A476F;stroke-width:8.64"/>
	<line x1="3394.71" y1="1532.57" x2="3394.71" y2="1075.92" style="stroke:#1A476F;stroke-width:8.64"/>
	<line x1="3528.36" y1="1532.57" x2="3528.36" y2="1395.20" style="stroke:#1A476F;stroke-width:8.64"/>
	<line x1="3662.01" y1="1532.57" x2="3662.01" y2="1190.64" style="stroke:#1A476F;stroke-width:8.64"/>
	<circle cx="587.69" cy="261.00" r="26.35" style="fill:#1A476F"/>
	<circle cx="587.69" cy="261.00" r="22.03" style="fill:none;stroke:#1A476F;stroke-width:8.64"/>
	<circle cx="721.46" cy="607.63" r="26.35" style="fill:#1A476F"/>
	<circle cx="721.46" cy="607.63" r="22.03" style="fill:none;stroke:#1A476F;stroke-width:8.64"/>
	<circle cx="855.11" cy="1047.08" r="26.35" style="fill:#1A476F"/>
	<circle cx="855.11" cy="1047.08" r="22.03" style="fill:none;stroke:#1A476F;stroke-width:8.64"/>
	<circle cx="988.76" cy="979.76" r="26.35" style="fill:#1A476F"/>
	<circle cx="988.76" cy="979.76" r="22.03" style="fill:none;stroke:#1A476F;stroke-width:8.64"/>
	<circle cx="1122.41" cy="1272.81" r="26.35" style="fill:#1A476F"/>
	<circle cx="1122.41" cy="1272.81" r="22.03" style="fill:none;stroke:#1A476F;stroke-width:8.64"/>
	<circle cx="1256.06" cy="1040.03" r="26.35" style="fill:#1A476F"/>
	<circle cx="1256.06" cy="1040.03" r="22.03" style="fill:none;stroke:#1A476F;stroke-width:8.64"/>
	<circle cx="1389.71" cy="1054.63" r="26.35" style="fill:#1A476F"/>
	<circle cx="1389.71" cy="1054.63" r="22.03" style="fill:none;stroke:#1A476F;stroke-width:8.64"/>
	<circle cx="1523.36" cy="1231.97" r="26.35" style="fill:#1A476F"/>
	<circle cx="1523.36" cy="1231.97" r="22.03" style="fill:none;stroke:#1A476F;stroke-width:8.64"/>
	<circle cx="1657.01" cy="797.72" r="26.35" style="fill:#1A476F"/>
	<circle cx="1657.01" cy="797.72" r="22.03" style="fill:none;stroke:#1A476F;stroke-width:8.64"/>
	<circle cx="1790.66" cy="498.98" r="26.35" style="fill:#1A476F"/>
	<circle cx="1790.66" cy="498.98" r="22.03" style="fill:none;stroke:#1A476F;stroke-width:8.64"/>
	<circle cx="1924.31" cy="424.23" r="26.35" style="fill:#1A476F"/>
	<circle cx="1924.31" cy="424.23" r="22.03" style="fill:none;stroke:#1A476F;stroke-width:8.64"/>
	<circle cx="2058.09" cy="917.76" r="26.35" style="fill:#1A476F"/>
	<circle cx="2058.09" cy="917.76" r="22.03" style="fill:none;stroke:#1A476F;stroke-width:8.64"/>
	<circle cx="2191.74" cy="961.94" r="26.35" style="fill:#1A476F"/>
	<circle cx="2191.74" cy="961.94" r="22.03" style="fill:none;stroke:#1A476F;stroke-width:8.64"/>
	<circle cx="2325.39" cy="1000.55" r="26.35" style="fill:#1A476F"/>
	<circle cx="2325.39" cy="1000.55" r="22.03" style="fill:none;stroke:#1A476F;stroke-width:8.64"/>
	<circle cx="2459.04" cy="1198.80" r="26.35" style="fill:#1A476F"/>
	<circle cx="2459.04" cy="1198.80" r="22.03" style="fill:none;stroke:#1A476F;stroke-width:8.64"/>
	<circle cx="2592.69" cy="899.94" r="26.35" style="fill:#1A476F"/>
	<circle cx="2592.69" cy="899.94" r="22.03" style="fill:none;stroke:#1A476F;stroke-width:8.64"/>
	<circle cx="2726.34" cy="1165.02" r="26.35" style="fill:#1A476F"/>
	<circle cx="2726.34" cy="1165.02" r="22.03" style="fill:none;stroke:#1A476F;stroke-width:8.64"/>
	<circle cx="2859.99" cy="899.32" r="26.35" style="fill:#1A476F"/>
	<circle cx="2859.99" cy="899.32" r="22.03" style="fill:none;stroke:#1A476F;stroke-width:8.64"/>
	<circle cx="2993.64" cy="1130.74" r="26.35" style="fill:#1A476F"/>
	<circle cx="2993.64" cy="1130.74" r="22.03" style="fill:none;stroke:#1A476F;stroke-width:8.64"/>
	<circle cx="3127.29" cy="790.42" r="26.35" style="fill:#1A476F"/>
	<circle cx="3127.29" cy="790.42" r="22.03" style="fill:none;stroke:#1A476F;stroke-width:8.64"/>
	<circle cx="3261.06" cy="1041.76" r="26.35" style="fill:#1A476F"/>
	<circle cx="3261.06" cy="1041.76" r="22.03" style="fill:none;stroke:#1A476F;stroke-width:8.64"/>
	<circle cx="3394.71" cy="1076.04" r="26.35" style="fill:#1A476F"/>
	<circle cx="3394.71" cy="1076.04" r="22.03" style="fill:none;stroke:#1A476F;stroke-width:8.64"/>
	<circle cx="3528.36" cy="1395.20" r="26.35" style="fill:#1A476F"/>
	<circle cx="3528.36" cy="1395.20" r="22.03" style="fill:none;stroke:#1A476F;stroke-width:8.64"/>
	<circle cx="3662.01" cy="1190.64" r="26.35" style="fill:#1A476F"/>
	<circle cx="3662.01" cy="1190.64" r="22.03" style="fill:none;stroke:#1A476F;stroke-width:8.64"/>
	<line x1="390.80" y1="2374.71" x2="390.80" y2="100.86" style="stroke:#000000;stroke-width:5.76"/>
	<line x1="390.80" y1="2216.80" x2="350.83" y2="2216.80" style="stroke:#000000;stroke-width:5.76"/>
	<text x="300.72" y="2216.80" style="font-family:'Helvetica';font-size:99.99px;fill:#000000" transform="rotate(-90 300.72,2216.80)" text-anchor="middle">-0.20</text>
	<line x1="390.80" y1="1532.57" x2="350.83" y2="1532.57" style="stroke:#000000;stroke-width:5.76"/>
	<text x="300.72" y="1532.57" style="font-family:'Helvetica';font-size:99.99px;fill:#000000" transform="rotate(-90 300.72,1532.57)" text-anchor="middle">0.00</text>
	<line x1="390.80" y1="848.33" x2="350.83" y2="848.33" style="stroke:#000000;stroke-width:5.76"/>
	<text x="300.72" y="848.33" style="font-family:'Helvetica';font-size:99.99px;fill:#000000" transform="rotate(-90 300.72,848.33)" text-anchor="middle">0.20</text>
	<line x1="390.80" y1="164.22" x2="350.83" y2="164.22" style="stroke:#000000;stroke-width:5.76"/>
	<text x="300.72" y="164.22" style="font-family:'Helvetica';font-size:99.99px;fill:#000000" transform="rotate(-90 300.72,164.22)" text-anchor="middle">0.40</text>
	<text x="190.71" y="1237.79" style="font-family:'Helvetica';font-size:99.99px;fill:#000000" transform="rotate(-90 190.71,1237.79)" text-anchor="middle">Autocorrelations of D.yyy</text>
	<line x1="390.80" y1="2374.71" x2="3859.02" y2="2374.71" style="stroke:#000000;stroke-width:5.76"/>
	<line x1="454.16" y1="2374.71" x2="454.16" y2="2414.69" style="stroke:#000000;stroke-width:5.76"/>
	<text x="454.16" y="2504.54" style="font-family:'Helvetica';font-size:99.99px;fill:#000000" text-anchor="middle">0</text>
	<line x1="1122.41" y1="2374.71" x2="1122.41" y2="2414.69" style="stroke:#000000;stroke-width:5.76"/>
	<text x="1122.41" y="2504.54" style="font-family:'Helvetica';font-size:99.99px;fill:#000000" text-anchor="middle">5</text>
	<line x1="1790.79" y1="2374.71" x2="1790.79" y2="2414.69" style="stroke:#000000;stroke-width:5.76"/>
	<text x="1790.79" y="2504.54" style="font-family:'Helvetica';font-size:99.99px;fill:#000000" text-anchor="middle">10</text>
	<line x1="2459.04" y1="2374.71" x2="2459.04" y2="2414.69" style="stroke:#000000;stroke-width:5.76"/>
	<text x="2459.04" y="2504.54" style="font-family:'Helvetica';font-size:99.99px;fill:#000000" text-anchor="middle">15</text>
	<line x1="3127.41" y1="2374.71" x2="3127.41" y2="2414.69" style="stroke:#000000;stroke-width:5.76"/>
	<text x="3127.41" y="2504.54" style="font-family:'Helvetica';font-size:99.99px;fill:#000000" text-anchor="middle">20</text>
	<line x1="3795.66" y1="2374.71" x2="3795.66" y2="2414.69" style="stroke:#000000;stroke-width:5.76"/>
	<text x="3795.66" y="2504.54" style="font-family:'Helvetica';font-size:99.99px;fill:#000000" text-anchor="middle">25</text>
	<text x="2124.91" y="2614.56" style="font-family:'Helvetica';font-size:99.99px;fill:#000000" text-anchor="middle">Lag</text>
	<text x="408.00" y="2737.89" style="font-family:'Helvetica';font-size:79.94px;fill:#000000">Bartlett's formula for MA(q) 95% confidence bands</text>
</svg>
