<?xml version="1.0" encoding="UTF-8" standalone="no"?>
<!-- This is a Stata 15.0 generated SVG file (http://www.stata.com) -->

<svg version="1.1" width="5.50in" height="4.00in" viewBox="0 0 3960 2880" xmlns="http://www.w3.org/2000/svg" xmlns:xlink="http://www.w3.org/1999/xlink">
	<desc>Stata Graph - Graph</desc>
	<rect x="0" y="0" width="3960" height="2880" style="fill:#EAF2F3;stroke:none"/>
	<rect x="0.00" y="0.00" width="3959.88" height="2880.00" style="fill:#EAF2F3"/>
	<rect x="2.88" y="2.88" width="3954.12" height="2874.24" style="fill:none;stroke:#EAF2F3;stroke-width:5.76"/>
	<rect x="390.80" y="100.86" width="3468.22" height="2388.33" style="fill:#FFFFFF"/>
	<rect x="393.68" y="103.74" width="3462.46" height="2382.57" style="fill:none;stroke:#FFFFFF;stroke-width:5.76"/>
	<line x1="390.80" y1="1860.39" x2="3859.02" y2="1860.39" style="stroke:#EAF2F3;stroke-width:8.64"/>
	<line x1="390.80" y1="1294.96" x2="3859.02" y2="1294.96" style="stroke:#EAF2F3;stroke-width:8.64"/>
	<line x1="390.80" y1="729.53" x2="3859.02" y2="729.53" style="stroke:#EAF2F3;stroke-width:8.64"/>
	<line x1="390.80" y1="164.22" x2="3859.02" y2="164.22" style="stroke:#EAF2F3;stroke-width:8.64"/>
	<line x1="469.88" y1="1649.02" x2="485.60" y2="1224.05" stroke-linecap="round" style="stroke:#1A476F;stroke-width:8.64"/>
	<line x1="485.60" y1="1224.05" x2="501.31" y2="2042.56" stroke-linecap="round" style="stroke:#1A476F;stroke-width:8.64"/>
	<line x1="501.31" y1="2042.56" x2="517.15" y2="2011.87" stroke-linecap="round" style="stroke:#1A476F;stroke-width:8.64"/>
	<line x1="517.15" y1="2011.87" x2="532.87" y2="1156.60" stroke-linecap="round" style="stroke:#1A476F;stroke-width:8.64"/>
	<line x1="532.87" y1="1156.60" x2="548.71" y2="905.38" stroke-linecap="round" style="stroke:#1A476F;stroke-width:8.64"/>
	<line x1="548.71" y1="905.38" x2="564.42" y2="995.35" stroke-linecap="round" style="stroke:#1A476F;stroke-width:8.64"/>
	<line x1="564.42" y1="995.35" x2="580.14" y2="1196.33" stroke-linecap="round" style="stroke:#1A476F;stroke-width:8.64"/>
	<line x1="580.14" y1="1196.33" x2="595.98" y2="1124.06" stroke-linecap="round" style="stroke:#1A476F;stroke-width:8.64"/>
	<line x1="595.98" y1="1124.06" x2="611.70" y2="1789.11" stroke-linecap="round" style="stroke:#1A476F;stroke-width:8.64"/>
	<line x1="611.70" y1="1789.11" x2="627.41" y2="1391.24" stroke-linecap="round" style="stroke:#1A476F;stroke-width:8.64"/>
	<line x1="627.41" y1="1391.24" x2="643.25" y2="890.78" stroke-linecap="round" style="stroke:#1A476F;stroke-width:8.64"/>
	<line x1="643.25" y1="890.78" x2="658.97" y2="1853.59" stroke-linecap="round" style="stroke:#1A476F;stroke-width:8.64"/>
	<line x1="658.97" y1="1853.59" x2="674.81" y2="1151.78" stroke-linecap="round" style="stroke:#1A476F;stroke-width:8.64"/>
	<line x1="674.81" y1="1151.78" x2="690.52" y2="1857.17" stroke-linecap="round" style="stroke:#1A476F;stroke-width:8.64"/>
	<line x1="690.52" y1="1857.17" x2="706.24" y2="1560.54" stroke-linecap="round" style="stroke:#1A476F;stroke-width:8.64"/>
	<line x1="706.24" y1="1560.54" x2="722.08" y2="1068.00" stroke-linecap="round" style="stroke:#1A476F;stroke-width:8.64"/>
	<line x1="722.08" y1="1068.00" x2="737.80" y2="1377.26" stroke-linecap="round" style="stroke:#1A476F;stroke-width:8.64"/>
	<line x1="737.80" y1="1377.26" x2="753.51" y2="1065.40" stroke-linecap="round" style="stroke:#1A476F;stroke-width:8.64"/>
	<line x1="753.51" y1="1065.40" x2="769.35" y2="1078.51" stroke-linecap="round" style="stroke:#1A476F;stroke-width:8.64"/>
	<line x1="769.35" y1="1078.51" x2="785.07" y2="1423.54" stroke-linecap="round" style="stroke:#1A476F;stroke-width:8.64"/>
	<line x1="785.07" y1="1423.54" x2="800.79" y2="1464.63" stroke-linecap="round" style="stroke:#1A476F;stroke-width:8.64"/>
	<line x1="800.79" y1="1464.63" x2="816.63" y2="1598.16" stroke-linecap="round" style="stroke:#1A476F;stroke-width:8.64"/>
	<line x1="816.63" y1="1598.16" x2="832.34" y2="1142.12" stroke-linecap="round" style="stroke:#1A476F;stroke-width:8.64"/>
	<line x1="832.34" y1="1142.12" x2="848.18" y2="1282.59" stroke-linecap="round" style="stroke:#1A476F;stroke-width:8.64"/>
	<line x1="848.18" y1="1282.59" x2="863.90" y2="991.89" stroke-linecap="round" style="stroke:#1A476F;stroke-width:8.64"/>
	<line x1="863.90" y1="991.89" x2="879.62" y2="1344.34" stroke-linecap="round" style="stroke:#1A476F;stroke-width:8.64"/>
	<line x1="879.62" y1="1344.34" x2="895.46" y2="1167.49" stroke-linecap="round" style="stroke:#1A476F;stroke-width:8.64"/>
	<line x1="895.46" y1="1167.49" x2="911.17" y2="1423.54" stroke-linecap="round" style="stroke:#1A476F;stroke-width:8.64"/>
	<line x1="911.17" y1="1423.54" x2="926.89" y2="1408.69" stroke-linecap="round" style="stroke:#1A476F;stroke-width:8.64"/>
	<line x1="926.89" y1="1408.69" x2="942.73" y2="1533.06" stroke-linecap="round" style="stroke:#1A476F;stroke-width:8.64"/>
	<line x1="942.73" y1="1533.06" x2="958.44" y2="817.15" stroke-linecap="round" style="stroke:#1A476F;stroke-width:8.64"/>
	<line x1="958.44" y1="817.15" x2="974.28" y2="1257.09" stroke-linecap="round" style="stroke:#1A476F;stroke-width:8.64"/>
	<line x1="974.28" y1="1257.09" x2="990.00" y2="1102.65" stroke-linecap="round" style="stroke:#1A476F;stroke-width:8.64"/>
	<line x1="990.00" y1="1102.65" x2="1005.72" y2="978.15" stroke-linecap="round" style="stroke:#1A476F;stroke-width:8.64"/>
	<line x1="1005.72" y1="978.15" x2="1021.56" y2="1167.74" stroke-linecap="round" style="stroke:#1A476F;stroke-width:8.64"/>
	<line x1="1021.56" y1="1167.74" x2="1037.27" y2="1604.35" stroke-linecap="round" style="stroke:#1A476F;stroke-width:8.64"/>
	<line x1="1037.27" y1="1604.35" x2="1052.99" y2="1259.07" stroke-linecap="round" style="stroke:#1A476F;stroke-width:8.64"/>
	<line x1="1052.99" y1="1259.07" x2="1068.83" y2="1324.04" stroke-linecap="round" style="stroke:#1A476F;stroke-width:8.64"/>
	<line x1="1068.83" y1="1324.04" x2="1084.55" y2="1362.53" stroke-linecap="round" style="stroke:#1A476F;stroke-width:8.64"/>
	<line x1="1084.55" y1="1362.53" x2="1100.38" y2="1462.15" stroke-linecap="round" style="stroke:#1A476F;stroke-width:8.64"/>
	<line x1="1100.38" y1="1462.15" x2="1116.10" y2="1240.76" stroke-linecap="round" style="stroke:#1A476F;stroke-width:8.64"/>
	<line x1="1116.10" y1="1240.76" x2="1131.82" y2="1369.21" stroke-linecap="round" style="stroke:#1A476F;stroke-width:8.64"/>
	<line x1="1131.82" y1="1369.21" x2="1147.66" y2="905.38" stroke-linecap="round" style="stroke:#1A476F;stroke-width:8.64"/>
	<line x1="1147.66" y1="905.38" x2="1163.37" y2="1181.35" stroke-linecap="round" style="stroke:#1A476F;stroke-width:8.64"/>
	<line x1="1163.37" y1="1181.35" x2="1179.09" y2="1508.81" stroke-linecap="round" style="stroke:#1A476F;stroke-width:8.64"/>
	<line x1="1179.09" y1="1508.81" x2="1194.93" y2="1179.50" stroke-linecap="round" style="stroke:#1A476F;stroke-width:8.64"/>
	<line x1="1194.93" y1="1179.50" x2="1210.65" y2="1032.35" stroke-linecap="round" style="stroke:#1A476F;stroke-width:8.64"/>
	<line x1="1210.65" y1="1032.35" x2="1226.36" y2="1444.95" stroke-linecap="round" style="stroke:#1A476F;stroke-width:8.64"/>
	<line x1="1226.36" y1="1444.95" x2="1242.20" y2="1129.63" stroke-linecap="round" style="stroke:#1A476F;stroke-width:8.64"/>
	<line x1="1242.20" y1="1129.63" x2="1257.92" y2="1544.08" stroke-linecap="round" style="stroke:#1A476F;stroke-width:8.64"/>
	<line x1="1257.92" y1="1544.08" x2="1273.76" y2="1380.72" stroke-linecap="round" style="stroke:#1A476F;stroke-width:8.64"/>
	<line x1="1273.76" y1="1380.72" x2="1289.47" y2="1247.32" stroke-linecap="round" style="stroke:#1A476F;stroke-width:8.64"/>
	<line x1="1289.47" y1="1247.32" x2="1305.19" y2="1376.14" stroke-linecap="round" style="stroke:#1A476F;stroke-width:8.64"/>
	<line x1="1305.19" y1="1376.14" x2="1321.03" y2="1776.36" stroke-linecap="round" style="stroke:#1A476F;stroke-width:8.64"/>
	<line x1="1321.03" y1="1776.36" x2="1336.75" y2="405.05" stroke-linecap="round" style="stroke:#1A476F;stroke-width:8.64"/>
	<line x1="1336.75" y1="405.05" x2="1352.46" y2="1402.38" stroke-linecap="round" style="stroke:#1A476F;stroke-width:8.64"/>
	<line x1="1352.46" y1="1402.38" x2="1368.30" y2="1427.01" stroke-linecap="round" style="stroke:#1A476F;stroke-width:8.64"/>
	<line x1="1368.30" y1="1427.01" x2="1384.02" y2="1369.83" stroke-linecap="round" style="stroke:#1A476F;stroke-width:8.64"/>
	<line x1="1384.02" y1="1369.83" x2="1399.86" y2="897.34" stroke-linecap="round" style="stroke:#1A476F;stroke-width:8.64"/>
	<line x1="1399.86" y1="897.34" x2="1415.58" y2="1079.13" stroke-linecap="round" style="stroke:#1A476F;stroke-width:8.64"/>
	<line x1="1415.58" y1="1079.13" x2="1431.29" y2="1243.73" stroke-linecap="round" style="stroke:#1A476F;stroke-width:8.64"/>
	<line x1="1431.29" y1="1243.73" x2="1447.13" y2="958.84" stroke-linecap="round" style="stroke:#1A476F;stroke-width:8.64"/>
	<line x1="1447.13" y1="958.84" x2="1462.85" y2="903.90" stroke-linecap="round" style="stroke:#1A476F;stroke-width:8.64"/>
	<line x1="1462.85" y1="903.90" x2="1478.57" y2="1110.32" stroke-linecap="round" style="stroke:#1A476F;stroke-width:8.64"/>
	<line x1="1478.57" y1="1110.32" x2="1494.40" y2="1520.56" stroke-linecap="round" style="stroke:#1A476F;stroke-width:8.64"/>
	<line x1="1494.40" y1="1520.56" x2="1510.12" y2="1194.35" stroke-linecap="round" style="stroke:#1A476F;stroke-width:8.64"/>
	<line x1="1510.12" y1="1194.35" x2="1525.96" y2="1499.90" stroke-linecap="round" style="stroke:#1A476F;stroke-width:8.64"/>
	<line x1="1525.96" y1="1499.90" x2="1541.68" y2="973.94" stroke-linecap="round" style="stroke:#1A476F;stroke-width:8.64"/>
	<line x1="1541.68" y1="973.94" x2="1557.39" y2="1298.55" stroke-linecap="round" style="stroke:#1A476F;stroke-width:8.64"/>
	<line x1="1557.39" y1="1298.55" x2="1573.23" y2="1258.95" stroke-linecap="round" style="stroke:#1A476F;stroke-width:8.64"/>
	<line x1="1573.23" y1="1258.95" x2="1588.95" y2="1511.90" stroke-linecap="round" style="stroke:#1A476F;stroke-width:8.64"/>
	<line x1="1588.95" y1="1511.90" x2="1604.67" y2="1210.81" stroke-linecap="round" style="stroke:#1A476F;stroke-width:8.64"/>
	<line x1="1604.67" y1="1210.81" x2="1620.51" y2="928.28" stroke-linecap="round" style="stroke:#1A476F;stroke-width:8.64"/>
	<line x1="1620.51" y1="928.28" x2="1636.22" y2="1173.93" stroke-linecap="round" style="stroke:#1A476F;stroke-width:8.64"/>
	<line x1="1636.22" y1="1173.93" x2="1652.06" y2="892.64" stroke-linecap="round" style="stroke:#1A476F;stroke-width:8.64"/>
	<line x1="1652.06" y1="892.64" x2="1667.78" y2="1368.72" stroke-linecap="round" style="stroke:#1A476F;stroke-width:8.64"/>
	<line x1="1667.78" y1="1368.72" x2="1683.49" y2="1350.28" stroke-linecap="round" style="stroke:#1A476F;stroke-width:8.64"/>
	<line x1="1683.49" y1="1350.28" x2="1699.34" y2="1053.64" stroke-linecap="round" style="stroke:#1A476F;stroke-width:8.64"/>
	<line x1="1699.34" y1="1053.64" x2="1715.05" y2="1196.33" stroke-linecap="round" style="stroke:#1A476F;stroke-width:8.64"/>
	<line x1="1715.05" y1="1196.33" x2="1730.77" y2="872.34" stroke-linecap="round" style="stroke:#1A476F;stroke-width:8.64"/>
	<line x1="1730.77" y1="872.34" x2="1746.61" y2="1028.64" stroke-linecap="round" style="stroke:#1A476F;stroke-width:8.64"/>
	<line x1="1746.61" y1="1028.64" x2="1762.32" y2="1305.48" stroke-linecap="round" style="stroke:#1A476F;stroke-width:8.64"/>
	<line x1="1762.32" y1="1305.48" x2="1778.04" y2="1402.75" stroke-linecap="round" style="stroke:#1A476F;stroke-width:8.64"/>
	<line x1="1778.04" y1="1402.75" x2="1793.88" y2="331.66" stroke-linecap="round" style="stroke:#1A476F;stroke-width:8.64"/>
	<line x1="1793.88" y1="331.66" x2="1809.60" y2="1445.57" stroke-linecap="round" style="stroke:#1A476F;stroke-width:8.64"/>
	<line x1="1809.60" y1="1445.57" x2="1825.44" y2="1002.41" stroke-linecap="round" style="stroke:#1A476F;stroke-width:8.64"/>
	<line x1="1825.44" y1="1002.41" x2="1841.15" y2="1237.79" stroke-linecap="round" style="stroke:#1A476F;stroke-width:8.64"/>
	<line x1="1841.15" y1="1237.79" x2="1856.87" y2="1318.35" stroke-linecap="round" style="stroke:#1A476F;stroke-width:8.64"/>
	<line x1="1856.87" y1="1318.35" x2="1872.71" y2="1022.95" stroke-linecap="round" style="stroke:#1A476F;stroke-width:8.64"/>
	<line x1="1872.71" y1="1022.95" x2="1888.42" y2="1358.57" stroke-linecap="round" style="stroke:#1A476F;stroke-width:8.64"/>
	<line x1="1888.42" y1="1358.57" x2="1904.14" y2="1284.07" stroke-linecap="round" style="stroke:#1A476F;stroke-width:8.64"/>
	<line x1="1904.14" y1="1284.07" x2="1919.98" y2="1791.09" stroke-linecap="round" style="stroke:#1A476F;stroke-width:8.64"/>
	<line x1="1919.98" y1="1791.09" x2="1935.70" y2="1070.22" stroke-linecap="round" style="stroke:#1A476F;stroke-width:8.64"/>
	<line x1="1935.70" y1="1070.22" x2="1951.54" y2="598.60" stroke-linecap="round" style="stroke:#1A476F;stroke-width:8.64"/>
	<line x1="1951.54" y1="598.60" x2="1967.25" y2="959.22" stroke-linecap="round" style="stroke:#1A476F;stroke-width:8.64"/>
	<line x1="1967.25" y1="959.22" x2="1982.97" y2="1585.41" stroke-linecap="round" style="stroke:#1A476F;stroke-width:8.64"/>
	<line x1="1982.97" y1="1585.41" x2="1998.81" y2="1029.26" stroke-linecap="round" style="stroke:#1A476F;stroke-width:8.64"/>
	<line x1="1998.81" y1="1029.26" x2="2014.53" y2="1789.23" stroke-linecap="round" style="stroke:#1A476F;stroke-width:8.64"/>
	<line x1="2014.53" y1="1789.23" x2="2030.24" y2="1853.71" stroke-linecap="round" style="stroke:#1A476F;stroke-width:8.64"/>
	<line x1="2030.24" y1="1853.71" x2="2046.08" y2="1055.37" stroke-linecap="round" style="stroke:#1A476F;stroke-width:8.64"/>
	<line x1="2046.08" y1="1055.37" x2="2061.80" y2="1503.49" stroke-linecap="round" style="stroke:#1A476F;stroke-width:8.64"/>
	<line x1="2061.80" y1="1503.49" x2="2077.64" y2="1246.45" stroke-linecap="round" style="stroke:#1A476F;stroke-width:8.64"/>
	<line x1="2077.64" y1="1246.45" x2="2093.36" y2="980.25" stroke-linecap="round" style="stroke:#1A476F;stroke-width:8.64"/>
	<line x1="2093.36" y1="980.25" x2="2109.07" y2="1262.54" stroke-linecap="round" style="stroke:#1A476F;stroke-width:8.64"/>
	<line x1="2109.07" y1="1262.54" x2="2124.91" y2="1195.21" stroke-linecap="round" style="stroke:#1A476F;stroke-width:8.64"/>
	<line x1="2124.91" y1="1195.21" x2="2140.63" y2="1070.97" stroke-linecap="round" style="stroke:#1A476F;stroke-width:8.64"/>
	<line x1="2140.63" y1="1070.97" x2="2156.34" y2="978.27" stroke-linecap="round" style="stroke:#1A476F;stroke-width:8.64"/>
	<line x1="2156.34" y1="978.27" x2="2172.18" y2="1165.39" stroke-linecap="round" style="stroke:#1A476F;stroke-width:8.64"/>
	<line x1="2172.18" y1="1165.39" x2="2187.90" y2="1145.96" stroke-linecap="round" style="stroke:#1A476F;stroke-width:8.64"/>
	<line x1="2187.90" y1="1145.96" x2="2203.74" y2="1355.85" stroke-linecap="round" style="stroke:#1A476F;stroke-width:8.64"/>
	<line x1="2203.74" y1="1355.85" x2="2219.46" y2="1286.55" stroke-linecap="round" style="stroke:#1A476F;stroke-width:8.64"/>
	<line x1="2219.46" y1="1286.55" x2="2235.17" y2="1340.25" stroke-linecap="round" style="stroke:#1A476F;stroke-width:8.64"/>
	<line x1="2235.17" y1="1340.25" x2="2251.01" y2="1299.54" stroke-linecap="round" style="stroke:#1A476F;stroke-width:8.64"/>
	<line x1="2251.01" y1="1299.54" x2="2266.73" y2="1445.69" stroke-linecap="round" style="stroke:#1A476F;stroke-width:8.64"/>
	<line x1="2266.73" y1="1445.69" x2="2282.45" y2="1341.00" stroke-linecap="round" style="stroke:#1A476F;stroke-width:8.64"/>
	<line x1="2282.45" y1="1341.00" x2="2298.28" y2="1537.02" stroke-linecap="round" style="stroke:#1A476F;stroke-width:8.64"/>
	<line x1="2298.28" y1="1537.02" x2="2314.00" y2="1377.13" stroke-linecap="round" style="stroke:#1A476F;stroke-width:8.64"/>
	<line x1="2314.00" y1="1377.13" x2="2329.72" y2="1467.23" stroke-linecap="round" style="stroke:#1A476F;stroke-width:8.64"/>
	<line x1="2329.72" y1="1467.23" x2="2345.56" y2="1344.71" stroke-linecap="round" style="stroke:#1A476F;stroke-width:8.64"/>
	<line x1="2345.56" y1="1344.71" x2="2361.27" y2="1255.48" stroke-linecap="round" style="stroke:#1A476F;stroke-width:8.64"/>
	<line x1="2361.27" y1="1255.48" x2="2377.11" y2="1281.72" stroke-linecap="round" style="stroke:#1A476F;stroke-width:8.64"/>
	<line x1="2377.11" y1="1281.72" x2="2392.83" y2="1051.17" stroke-linecap="round" style="stroke:#1A476F;stroke-width:8.64"/>
	<line x1="2392.83" y1="1051.17" x2="2408.55" y2="1446.56" stroke-linecap="round" style="stroke:#1A476F;stroke-width:8.64"/>
	<line x1="2408.55" y1="1446.56" x2="2424.39" y2="1117.74" stroke-linecap="round" style="stroke:#1A476F;stroke-width:8.64"/>
	<line x1="2424.39" y1="1117.74" x2="2440.10" y2="1291.74" stroke-linecap="round" style="stroke:#1A476F;stroke-width:8.64"/>
	<line x1="2440.10" y1="1291.74" x2="2455.82" y2="1207.47" stroke-linecap="round" style="stroke:#1A476F;stroke-width:8.64"/>
	<line x1="2455.82" y1="1207.47" x2="2471.66" y2="1087.55" stroke-linecap="round" style="stroke:#1A476F;stroke-width:8.64"/>
	<line x1="2471.66" y1="1087.55" x2="2487.38" y2="1371.81" stroke-linecap="round" style="stroke:#1A476F;stroke-width:8.64"/>
	<line x1="2487.38" y1="1371.81" x2="2503.22" y2="1325.40" stroke-linecap="round" style="stroke:#1A476F;stroke-width:8.64"/>
	<line x1="2503.22" y1="1325.40" x2="2518.93" y2="1495.19" stroke-linecap="round" style="stroke:#1A476F;stroke-width:8.64"/>
	<line x1="2518.93" y1="1495.19" x2="2534.65" y2="1099.43" stroke-linecap="round" style="stroke:#1A476F;stroke-width:8.64"/>
	<line x1="2534.65" y1="1099.43" x2="2550.49" y2="1432.70" stroke-linecap="round" style="stroke:#1A476F;stroke-width:8.64"/>
	<line x1="2550.49" y1="1432.70" x2="2566.20" y2="1544.32" stroke-linecap="round" style="stroke:#1A476F;stroke-width:8.64"/>
	<line x1="2566.20" y1="1544.32" x2="2581.92" y2="1635.41" stroke-linecap="round" style="stroke:#1A476F;stroke-width:8.64"/>
	<line x1="2581.92" y1="1635.41" x2="2597.76" y2="1532.07" stroke-linecap="round" style="stroke:#1A476F;stroke-width:8.64"/>
	<line x1="2597.76" y1="1532.07" x2="2613.48" y2="1280.36" stroke-linecap="round" style="stroke:#1A476F;stroke-width:8.64"/>
	<line x1="2613.48" y1="1280.36" x2="2629.32" y2="1420.08" stroke-linecap="round" style="stroke:#1A476F;stroke-width:8.64"/>
	<line x1="2629.32" y1="1420.08" x2="2645.03" y2="1438.51" stroke-linecap="round" style="stroke:#1A476F;stroke-width:8.64"/>
	<line x1="2645.03" y1="1438.51" x2="2660.75" y2="1181.73" stroke-linecap="round" style="stroke:#1A476F;stroke-width:8.64"/>
	<line x1="2660.75" y1="1181.73" x2="2676.59" y2="1318.97" stroke-linecap="round" style="stroke:#1A476F;stroke-width:8.64"/>
	<line x1="2676.59" y1="1318.97" x2="2692.30" y2="1335.30" stroke-linecap="round" style="stroke:#1A476F;stroke-width:8.64"/>
	<line x1="2692.30" y1="1335.30" x2="2708.02" y2="1304.24" stroke-linecap="round" style="stroke:#1A476F;stroke-width:8.64"/>
	<line x1="2708.02" y1="1304.24" x2="2723.86" y2="1451.01" stroke-linecap="round" style="stroke:#1A476F;stroke-width:8.64"/>
	<line x1="2723.86" y1="1451.01" x2="2739.58" y2="1296.94" stroke-linecap="round" style="stroke:#1A476F;stroke-width:8.64"/>
	<line x1="2739.58" y1="1296.94" x2="2755.29" y2="1342.98" stroke-linecap="round" style="stroke:#1A476F;stroke-width:8.64"/>
	<line x1="2755.29" y1="1342.98" x2="2771.13" y2="1167.87" stroke-linecap="round" style="stroke:#1A476F;stroke-width:8.64"/>
	<line x1="2771.13" y1="1167.87" x2="2786.85" y2="1299.66" stroke-linecap="round" style="stroke:#1A476F;stroke-width:8.64"/>
	<line x1="2786.85" y1="1299.66" x2="2802.69" y2="1245.83" stroke-linecap="round" style="stroke:#1A476F;stroke-width:8.64"/>
	<line x1="2802.69" y1="1245.83" x2="2818.41" y2="1420.32" stroke-linecap="round" style="stroke:#1A476F;stroke-width:8.64"/>
	<line x1="2818.41" y1="1420.32" x2="2834.12" y2="1331.34" stroke-linecap="round" style="stroke:#1A476F;stroke-width:8.64"/>
	<line x1="2834.12" y1="1331.34" x2="2849.96" y2="1472.18" stroke-linecap="round" style="stroke:#1A476F;stroke-width:8.64"/>
	<line x1="2849.96" y1="1472.18" x2="2865.68" y2="1559.79" stroke-linecap="round" style="stroke:#1A476F;stroke-width:8.64"/>
	<line x1="2865.68" y1="1559.79" x2="2881.39" y2="1255.85" stroke-linecap="round" style="stroke:#1A476F;stroke-width:8.64"/>
	<line x1="2881.39" y1="1255.85" x2="2897.24" y2="1354.36" stroke-linecap="round" style="stroke:#1A476F;stroke-width:8.64"/>
	<line x1="2897.24" y1="1354.36" x2="2912.95" y2="1340.63" stroke-linecap="round" style="stroke:#1A476F;stroke-width:8.64"/>
	<line x1="2912.95" y1="1340.63" x2="2928.79" y2="1151.28" stroke-linecap="round" style="stroke:#1A476F;stroke-width:8.64"/>
	<line x1="2928.79" y1="1151.28" x2="2944.51" y2="1524.77" stroke-linecap="round" style="stroke:#1A476F;stroke-width:8.64"/>
	<line x1="2944.51" y1="1524.77" x2="2960.22" y2="1244.59" stroke-linecap="round" style="stroke:#1A476F;stroke-width:8.64"/>
	<line x1="2960.22" y1="1244.59" x2="2976.06" y2="1339.26" stroke-linecap="round" style="stroke:#1A476F;stroke-width:8.64"/>
	<line x1="2976.06" y1="1339.26" x2="2991.78" y2="1280.98" stroke-linecap="round" style="stroke:#1A476F;stroke-width:8.64"/>
	<line x1="2991.78" y1="1280.98" x2="3007.50" y2="1240.88" stroke-linecap="round" style="stroke:#1A476F;stroke-width:8.64"/>
	<line x1="3007.50" y1="1240.88" x2="3023.34" y2="1406.46" stroke-linecap="round" style="stroke:#1A476F;stroke-width:8.64"/>
	<line x1="3023.34" y1="1406.46" x2="3039.05" y2="1291.99" stroke-linecap="round" style="stroke:#1A476F;stroke-width:8.64"/>
	<line x1="3039.05" y1="1291.99" x2="3054.89" y2="1526.63" stroke-linecap="round" style="stroke:#1A476F;stroke-width:8.64"/>
	<line x1="3054.89" y1="1526.63" x2="3070.61" y2="1264.89" stroke-linecap="round" style="stroke:#1A476F;stroke-width:8.64"/>
	<line x1="3070.61" y1="1264.89" x2="3086.32" y2="1216.01" stroke-linecap="round" style="stroke:#1A476F;stroke-width:8.64"/>
	<line x1="3086.32" y1="1216.01" x2="3102.16" y2="1446.06" stroke-linecap="round" style="stroke:#1A476F;stroke-width:8.64"/>
	<line x1="3102.16" y1="1446.06" x2="3117.88" y2="1310.92" stroke-linecap="round" style="stroke:#1A476F;stroke-width:8.64"/>
	<line x1="3117.88" y1="1310.92" x2="3133.60" y2="1331.10" stroke-linecap="round" style="stroke:#1A476F;stroke-width:8.64"/>
	<line x1="3133.60" y1="1331.10" x2="3149.44" y2="1146.08" stroke-linecap="round" style="stroke:#1A476F;stroke-width:8.64"/>
	<line x1="3149.44" y1="1146.08" x2="3165.15" y2="1471.80" stroke-linecap="round" style="stroke:#1A476F;stroke-width:8.64"/>
	<line x1="3165.15" y1="1471.80" x2="3180.99" y2="1173.06" stroke-linecap="round" style="stroke:#1A476F;stroke-width:8.64"/>
	<line x1="3180.99" y1="1173.06" x2="3196.71" y2="1633.18" stroke-linecap="round" style="stroke:#1A476F;stroke-width:8.64"/>
	<line x1="3196.71" y1="1633.18" x2="3212.43" y2="1418.71" stroke-linecap="round" style="stroke:#1A476F;stroke-width:8.64"/>
	<line x1="3212.43" y1="1418.71" x2="3228.27" y2="1404.98" stroke-linecap="round" style="stroke:#1A476F;stroke-width:8.64"/>
	<line x1="3228.27" y1="1404.98" x2="3243.98" y2="1465.00" stroke-linecap="round" style="stroke:#1A476F;stroke-width:8.64"/>
	<line x1="3243.98" y1="1465.00" x2="3259.70" y2="1623.28" stroke-linecap="round" style="stroke:#1A476F;stroke-width:8.64"/>
	<line x1="3259.70" y1="1623.28" x2="3275.54" y2="1332.33" stroke-linecap="round" style="stroke:#1A476F;stroke-width:8.64"/>
	<line x1="3275.54" y1="1332.33" x2="3291.26" y2="1388.89" stroke-linecap="round" style="stroke:#1A476F;stroke-width:8.64"/>
	<line x1="3291.26" y1="1388.89" x2="3306.97" y2="1470.44" stroke-linecap="round" style="stroke:#1A476F;stroke-width:8.64"/>
	<line x1="3306.97" y1="1470.44" x2="3322.81" y2="1385.67" stroke-linecap="round" style="stroke:#1A476F;stroke-width:8.64"/>
	<line x1="3322.81" y1="1385.67" x2="3338.53" y2="1516.23" stroke-linecap="round" style="stroke:#1A476F;stroke-width:8.64"/>
	<line x1="3338.53" y1="1516.23" x2="3354.37" y2="1348.42" stroke-linecap="round" style="stroke:#1A476F;stroke-width:8.64"/>
	<line x1="3354.37" y1="1348.42" x2="3370.08" y2="1248.43" stroke-linecap="round" style="stroke:#1A476F;stroke-width:8.64"/>
	<line x1="3370.08" y1="1248.43" x2="3385.80" y2="1053.27" stroke-linecap="round" style="stroke:#1A476F;stroke-width:8.64"/>
	<line x1="3385.80" y1="1053.27" x2="3401.64" y2="1412.40" stroke-linecap="round" style="stroke:#1A476F;stroke-width:8.64"/>
	<line x1="3401.64" y1="1412.40" x2="3417.36" y2="1133.59" stroke-linecap="round" style="stroke:#1A476F;stroke-width:8.64"/>
	<line x1="3417.36" y1="1133.59" x2="3433.07" y2="1180.61" stroke-linecap="round" style="stroke:#1A476F;stroke-width:8.64"/>
	<line x1="3433.07" y1="1180.61" x2="3448.91" y2="1485.42" stroke-linecap="round" style="stroke:#1A476F;stroke-width:8.64"/>
	<line x1="3448.91" y1="1485.42" x2="3464.63" y2="1250.16" stroke-linecap="round" style="stroke:#1A476F;stroke-width:8.64"/>
	<line x1="3464.63" y1="1250.16" x2="3480.47" y2="1248.92" stroke-linecap="round" style="stroke:#1A476F;stroke-width:8.64"/>
	<line x1="3480.47" y1="1248.92" x2="3496.18" y2="1352.13" stroke-linecap="round" style="stroke:#1A476F;stroke-width:8.64"/>
	<line x1="3496.18" y1="1352.13" x2="3511.90" y2="1142.74" stroke-linecap="round" style="stroke:#1A476F;stroke-width:8.64"/>
	<line x1="3511.90" y1="1142.74" x2="3527.74" y2="1459.55" stroke-linecap="round" style="stroke:#1A476F;stroke-width:8.64"/>
	<line x1="3527.74" y1="1459.55" x2="3543.46" y2="1198.68" stroke-linecap="round" style="stroke:#1A476F;stroke-width:8.64"/>
	<line x1="3543.46" y1="1198.68" x2="3559.17" y2="1403.86" stroke-linecap="round" style="stroke:#1A476F;stroke-width:8.64"/>
	<line x1="390.80" y1="2489.19" x2="390.80" y2="100.86" style="stroke:#000000;stroke-width:5.76"/>
	<line x1="390.80" y1="2425.82" x2="350.83" y2="2425.82" style="stroke:#000000;stroke-width:5.76"/>
	<text x="300.72" y="2425.82" style="font-family:'Helvetica';font-size:99.99px;fill:#000000" transform="rotate(-90 300.72,2425.82)" text-anchor="middle">-.04</text>
	<line x1="390.80" y1="1860.39" x2="350.83" y2="1860.39" style="stroke:#000000;stroke-width:5.76"/>
	<text x="300.72" y="1860.39" style="font-family:'Helvetica';font-size:99.99px;fill:#000000" transform="rotate(-90 300.72,1860.39)" text-anchor="middle">-.02</text>
	<line x1="390.80" y1="1294.96" x2="350.83" y2="1294.96" style="stroke:#000000;stroke-width:5.76"/>
	<text x="300.72" y="1294.96" style="font-family:'Helvetica';font-size:99.99px;fill:#000000" transform="rotate(-90 300.72,1294.96)" text-anchor="middle">0</text>
	<line x1="390.80" y1="729.53" x2="350.83" y2="729.53" style="stroke:#000000;stroke-width:5.76"/>
	<text x="300.72" y="729.53" style="font-family:'Helvetica';font-size:99.99px;fill:#000000" transform="rotate(-90 300.72,729.53)" text-anchor="middle">.02</text>
	<line x1="390.80" y1="164.22" x2="350.83" y2="164.22" style="stroke:#000000;stroke-width:5.76"/>
	<text x="300.72" y="164.22" style="font-family:'Helvetica';font-size:99.99px;fill:#000000" transform="rotate(-90 300.72,164.22)" text-anchor="middle">.04</text>
	<text x="190.71" y="1294.96" style="font-family:'Helvetica';font-size:99.99px;fill:#000000" transform="rotate(-90 190.71,1294.96)" text-anchor="middle">residual, one-step</text>
	<line x1="390.80" y1="2489.19" x2="3859.02" y2="2489.19" style="stroke:#000000;stroke-width:5.76"/>
	<line x1="643.25" y1="2489.19" x2="643.25" y2="2529.16" style="stroke:#000000;stroke-width:5.76"/>
	<text x="643.25" y="2619.14" style="font-family:'Helvetica';font-size:99.99px;fill:#000000" text-anchor="middle">1960q1</text>
	<line x1="1273.76" y1="2489.19" x2="1273.76" y2="2529.16" style="stroke:#000000;stroke-width:5.76"/>
	<text x="1273.76" y="2619.14" style="font-family:'Helvetica';font-size:99.99px;fill:#000000" text-anchor="middle">1970q1</text>
	<line x1="1904.27" y1="2489.19" x2="1904.27" y2="2529.16" style="stroke:#000000;stroke-width:5.76"/>
	<text x="1904.27" y="2619.14" style="font-family:'Helvetica';font-size:99.99px;fill:#000000" text-anchor="middle">1980q1</text>
	<line x1="2534.77" y1="2489.19" x2="2534.77" y2="2529.16" style="stroke:#000000;stroke-width:5.76"/>
	<text x="2534.77" y="2619.14" style="font-family:'Helvetica';font-size:99.99px;fill:#000000" text-anchor="middle">1990q1</text>
	<line x1="3165.28" y1="2489.19" x2="3165.28" y2="2529.16" style="stroke:#000000;stroke-width:5.76"/>
	<text x="3165.28" y="2619.14" style="font-family:'Helvetica';font-size:99.99px;fill:#000000" text-anchor="middle">2000q1</text>
	<line x1="3795.66" y1="2489.19" x2="3795.66" y2="2529.16" style="stroke:#000000;stroke-width:5.76"/>
	<text x="3795.66" y="2619.14" style="font-family:'Helvetica';font-size:99.99px;fill:#000000" text-anchor="middle">2010q1</text>
	<text x="2124.91" y="2729.16" style="font-family:'Helvetica';font-size:99.99px;fill:#000000" text-anchor="middle">time_2</text>
</svg>
