<?xml version="1.0" encoding="UTF-8" standalone="no"?>
<!-- This is a Stata 15.0 generated SVG file (http://www.stata.com) -->

<svg version="1.1" width="5.50in" height="4.00in" viewBox="0 0 3960 2880" xmlns="http://www.w3.org/2000/svg" xmlns:xlink="http://www.w3.org/1999/xlink">
	<desc>Stata Graph - Graph</desc>
	<rect x="0" y="0" width="3960" height="2880" style="fill:#EAF2F3;stroke:none"/>
	<rect x="0.00" y="0.00" width="3959.88" height="2880.00" style="fill:#EAF2F3"/>
	<rect x="2.88" y="2.88" width="3954.12" height="2874.24" style="fill:none;stroke:#EAF2F3;stroke-width:5.76"/>
	<rect x="390.80" y="100.86" width="3468.22" height="2273.85" style="fill:#FFFFFF"/>
	<rect x="393.68" y="103.74" width="3462.46" height="2268.09" style="fill:none;stroke:#FFFFFF;stroke-width:5.76"/>
	<line x1="390.80" y1="2257.39" x2="3859.02" y2="2257.39" style="stroke:#EAF2F3;stroke-width:8.64"/>
	<line x1="390.80" y1="1559.67" x2="3859.02" y2="1559.67" style="stroke:#EAF2F3;stroke-width:8.64"/>
	<line x1="390.80" y1="861.95" x2="3859.02" y2="861.95" style="stroke:#EAF2F3;stroke-width:8.64"/>
	<line x1="390.80" y1="164.22" x2="3859.02" y2="164.22" style="stroke:#EAF2F3;stroke-width:8.64"/>
	<line x1="390.80" y1="861.95" x2="3859.02" y2="861.95" style="stroke:#EAF2F3;stroke-width:8.64"/>
	<path d="
M587.81 1350.28 L587.81 1350.28 L721.46 1428.37 L855.11 1428.37 L988.76 1434.55 L1122.41 1438.51 L1256.06 1443.71 L1389.84 1445.07 L1523.49 1445.45 L1657.14 1453.49 L1790.79 1453.61 L1924.44 1454.85 L2058.09 1463.14 L2191.74 1469.08 L2325.39 1469.08 L2459.04 1469.45 L2592.81 1473.78 L2726.46 1481.33 L2860.11 1487.27 L2993.76 1492.72 L3127.41 1499.53 L3261.06 1506.08 L3394.71 1507.07 L3528.36 1508.68 L3662.01 1513.76 L3662.01 210.13 L3528.36 215.21 L3394.71 216.69 L3261.06 217.68 L3127.41 224.37 L2993.76 231.17 L2860.11 236.49 L2726.46 242.56 L2592.81 249.98 L2459.04 254.44 L2325.39 254.69 L2191.74 254.69 L2058.09 260.63 L1924.44 269.04 L1790.79 270.28 L1657.14 270.40 L1523.49 278.32 L1389.84 278.82 L1256.06 280.18 L1122.41 285.25 L988.76 289.21 L855.11 295.40 L721.46 295.40 L587.81 373.49 L587.81 1350.28 Z" stroke-linecap="round" stroke-alignment="inner" style="fill:#C0C0C0;stroke:#C0C0C0;stroke-width:8.64"/>
	<line x1="587.81" y1="861.95" x2="587.81" y2="2311.35" style="stroke:#1A476F;stroke-width:8.64"/>
	<line x1="721.46" y1="861.95" x2="721.46" y2="840.41" style="stroke:#1A476F;stroke-width:8.64"/>
	<line x1="855.11" y1="861.95" x2="855.11" y2="1285.43" style="stroke:#1A476F;stroke-width:8.64"/>
	<line x1="988.76" y1="861.95" x2="988.76" y2="519.77" style="stroke:#1A476F;stroke-width:8.64"/>
	<line x1="1122.41" y1="861.95" x2="1122.41" y2="1251.28" style="stroke:#1A476F;stroke-width:8.64"/>
	<line x1="1256.06" y1="861.95" x2="1256.06" y2="663.44" style="stroke:#1A476F;stroke-width:8.64"/>
	<line x1="1389.84" y1="861.95" x2="1389.84" y2="742.15" style="stroke:#1A476F;stroke-width:8.64"/>
	<line x1="1523.49" y1="861.95" x2="1523.49" y2="1350.40" style="stroke:#1A476F;stroke-width:8.64"/>
	<line x1="1657.14" y1="861.95" x2="1657.14" y2="798.21" style="stroke:#1A476F;stroke-width:8.64"/>
	<line x1="1790.79" y1="861.95" x2="1790.79" y2="670.13" style="stroke:#1A476F;stroke-width:8.64"/>
	<line x1="1924.44" y1="861.95" x2="1924.44" y2="356.53" style="stroke:#1A476F;stroke-width:8.64"/>
	<line x1="2058.09" y1="861.95" x2="2058.09" y2="1287.91" style="stroke:#1A476F;stroke-width:8.64"/>
	<line x1="2191.74" y1="861.95" x2="2191.74" y2="853.65" style="stroke:#1A476F;stroke-width:8.64"/>
	<line x1="2325.39" y1="861.95" x2="2325.39" y2="763.31" style="stroke:#1A476F;stroke-width:8.64"/>
	<line x1="2459.04" y1="861.95" x2="2459.04" y2="1231.47" style="stroke:#1A476F;stroke-width:8.64"/>
	<line x1="2592.81" y1="861.95" x2="2592.81" y2="376.46" style="stroke:#1A476F;stroke-width:8.64"/>
	<line x1="2726.46" y1="861.95" x2="2726.46" y2="1298.67" style="stroke:#1A476F;stroke-width:8.64"/>
	<line x1="2860.11" y1="861.95" x2="2860.11" y2="447.25" style="stroke:#1A476F;stroke-width:8.64"/>
	<line x1="2993.76" y1="861.95" x2="2993.76" y2="1332.21" style="stroke:#1A476F;stroke-width:8.64"/>
	<line x1="3127.41" y1="861.95" x2="3127.41" y2="396.01" style="stroke:#1A476F;stroke-width:8.64"/>
	<line x1="3261.06" y1="861.95" x2="3261.06" y2="1042.50" style="stroke:#1A476F;stroke-width:8.64"/>
	<line x1="3394.71" y1="861.95" x2="3394.71" y2="639.68" style="stroke:#1A476F;stroke-width:8.64"/>
	<line x1="3528.36" y1="861.95" x2="3528.36" y2="1273.43" style="stroke:#1A476F;stroke-width:8.64"/>
	<line x1="3662.01" y1="861.95" x2="3662.01" y2="786.58" style="stroke:#1A476F;stroke-width:8.64"/>
	<circle cx="587.69" cy="2311.35" r="26.35" style="fill:#1A476F"/>
	<circle cx="587.69" cy="2311.35" r="22.03" style="fill:none;stroke:#1A476F;stroke-width:8.64"/>
	<circle cx="721.46" cy="840.54" r="26.35" style="fill:#1A476F"/>
	<circle cx="721.46" cy="840.54" r="22.03" style="fill:none;stroke:#1A476F;stroke-width:8.64"/>
	<circle cx="855.11" cy="1285.56" r="26.35" style="fill:#1A476F"/>
	<circle cx="855.11" cy="1285.56" r="22.03" style="fill:none;stroke:#1A476F;stroke-width:8.64"/>
	<circle cx="988.76" cy="519.89" r="26.35" style="fill:#1A476F"/>
	<circle cx="988.76" cy="519.89" r="22.03" style="fill:none;stroke:#1A476F;stroke-width:8.64"/>
	<circle cx="1122.41" cy="1251.40" r="26.35" style="fill:#1A476F"/>
	<circle cx="1122.41" cy="1251.40" r="22.03" style="fill:none;stroke:#1A476F;stroke-width:8.64"/>
	<circle cx="1256.06" cy="663.57" r="26.35" style="fill:#1A476F"/>
	<circle cx="1256.06" cy="663.57" r="22.03" style="fill:none;stroke:#1A476F;stroke-width:8.64"/>
	<circle cx="1389.71" cy="742.15" r="26.35" style="fill:#1A476F"/>
	<circle cx="1389.71" cy="742.15" r="22.03" style="fill:none;stroke:#1A476F;stroke-width:8.64"/>
	<circle cx="1523.36" cy="1350.40" r="26.35" style="fill:#1A476F"/>
	<circle cx="1523.36" cy="1350.40" r="22.03" style="fill:none;stroke:#1A476F;stroke-width:8.64"/>
	<circle cx="1657.01" cy="798.21" r="26.35" style="fill:#1A476F"/>
	<circle cx="1657.01" cy="798.21" r="22.03" style="fill:none;stroke:#1A476F;stroke-width:8.64"/>
	<circle cx="1790.66" cy="670.13" r="26.35" style="fill:#1A476F"/>
	<circle cx="1790.66" cy="670.13" r="22.03" style="fill:none;stroke:#1A476F;stroke-width:8.64"/>
	<circle cx="1924.31" cy="356.66" r="26.35" style="fill:#1A476F"/>
	<circle cx="1924.31" cy="356.66" r="22.03" style="fill:none;stroke:#1A476F;stroke-width:8.64"/>
	<circle cx="2058.09" cy="1288.03" r="26.35" style="fill:#1A476F"/>
	<circle cx="2058.09" cy="1288.03" r="22.03" style="fill:none;stroke:#1A476F;stroke-width:8.64"/>
	<circle cx="2191.74" cy="853.78" r="26.35" style="fill:#1A476F"/>
	<circle cx="2191.74" cy="853.78" r="22.03" style="fill:none;stroke:#1A476F;stroke-width:8.64"/>
	<circle cx="2325.39" cy="763.31" r="26.35" style="fill:#1A476F"/>
	<circle cx="2325.39" cy="763.31" r="22.03" style="fill:none;stroke:#1A476F;stroke-width:8.64"/>
	<circle cx="2459.04" cy="1231.47" r="26.35" style="fill:#1A476F"/>
	<circle cx="2459.04" cy="1231.47" r="22.03" style="fill:none;stroke:#1A476F;stroke-width:8.64"/>
	<circle cx="2592.69" cy="376.58" r="26.35" style="fill:#1A476F"/>
	<circle cx="2592.69" cy="376.58" r="22.03" style="fill:none;stroke:#1A476F;stroke-width:8.64"/>
	<circle cx="2726.34" cy="1298.67" r="26.35" style="fill:#1A476F"/>
	<circle cx="2726.34" cy="1298.67" r="22.03" style="fill:none;stroke:#1A476F;stroke-width:8.64"/>
	<circle cx="2859.99" cy="447.37" r="26.35" style="fill:#1A476F"/>
	<circle cx="2859.99" cy="447.37" r="22.03" style="fill:none;stroke:#1A476F;stroke-width:8.64"/>
	<circle cx="2993.64" cy="1332.21" r="26.35" style="fill:#1A476F"/>
	<circle cx="2993.64" cy="1332.21" r="22.03" style="fill:none;stroke:#1A476F;stroke-width:8.64"/>
	<circle cx="3127.29" cy="396.14" r="26.35" style="fill:#1A476F"/>
	<circle cx="3127.29" cy="396.14" r="22.03" style="fill:none;stroke:#1A476F;stroke-width:8.64"/>
	<circle cx="3261.06" cy="1042.63" r="26.35" style="fill:#1A476F"/>
	<circle cx="3261.06" cy="1042.63" r="22.03" style="fill:none;stroke:#1A476F;stroke-width:8.64"/>
	<circle cx="3394.71" cy="639.68" r="26.35" style="fill:#1A476F"/>
	<circle cx="3394.71" cy="639.68" r="22.03" style="fill:none;stroke:#1A476F;stroke-width:8.64"/>
	<circle cx="3528.36" cy="1273.55" r="26.35" style="fill:#1A476F"/>
	<circle cx="3528.36" cy="1273.55" r="22.03" style="fill:none;stroke:#1A476F;stroke-width:8.64"/>
	<circle cx="3662.01" cy="786.58" r="26.35" style="fill:#1A476F"/>
	<circle cx="3662.01" cy="786.58" r="22.03" style="fill:none;stroke:#1A476F;stroke-width:8.64"/>
	<line x1="390.80" y1="2374.71" x2="390.80" y2="100.86" style="stroke:#000000;stroke-width:5.76"/>
	<line x1="390.80" y1="2257.39" x2="350.83" y2="2257.39" style="stroke:#000000;stroke-width:5.76"/>
	<text x="300.72" y="2257.39" style="font-family:'Helvetica';font-size:99.99px;fill:#000000" transform="rotate(-90 300.72,2257.39)" text-anchor="middle">-0.40</text>
	<line x1="390.80" y1="1559.67" x2="350.83" y2="1559.67" style="stroke:#000000;stroke-width:5.76"/>
	<text x="300.72" y="1559.67" style="font-family:'Helvetica';font-size:99.99px;fill:#000000" transform="rotate(-90 300.72,1559.67)" text-anchor="middle">-0.20</text>
	<line x1="390.80" y1="861.95" x2="350.83" y2="861.95" style="stroke:#000000;stroke-width:5.76"/>
	<text x="300.72" y="861.95" style="font-family:'Helvetica';font-size:99.99px;fill:#000000" transform="rotate(-90 300.72,861.95)" text-anchor="middle">0.00</text>
	<line x1="390.80" y1="164.22" x2="350.83" y2="164.22" style="stroke:#000000;stroke-width:5.76"/>
	<text x="300.72" y="164.22" style="font-family:'Helvetica';font-size:99.99px;fill:#000000" transform="rotate(-90 300.72,164.22)" text-anchor="middle">0.20</text>
	<text x="190.71" y="1237.79" style="font-family:'Helvetica';font-size:99.99px;fill:#000000" transform="rotate(-90 190.71,1237.79)" text-anchor="middle">Autocorrelations of D2.yyy</text>
	<line x1="390.80" y1="2374.71" x2="3859.02" y2="2374.71" style="stroke:#000000;stroke-width:5.76"/>
	<line x1="454.16" y1="2374.71" x2="454.16" y2="2414.69" style="stroke:#000000;stroke-width:5.76"/>
	<text x="454.16" y="2504.54" style="font-family:'Helvetica';font-size:99.99px;fill:#000000" text-anchor="middle">0</text>
	<line x1="1122.41" y1="2374.71" x2="1122.41" y2="2414.69" style="stroke:#000000;stroke-width:5.76"/>
	<text x="1122.41" y="2504.54" style="font-family:'Helvetica';font-size:99.99px;fill:#000000" text-anchor="middle">5</text>
	<line x1="1790.79" y1="2374.71" x2="1790.79" y2="2414.69" style="stroke:#000000;stroke-width:5.76"/>
	<text x="1790.79" y="2504.54" style="font-family:'Helvetica';font-size:99.99px;fill:#000000" text-anchor="middle">10</text>
	<line x1="2459.04" y1="2374.71" x2="2459.04" y2="2414.69" style="stroke:#000000;stroke-width:5.76"/>
	<text x="2459.04" y="2504.54" style="font-family:'Helvetica';font-size:99.99px;fill:#000000" text-anchor="middle">15</text>
	<line x1="3127.41" y1="2374.71" x2="3127.41" y2="2414.69" style="stroke:#000000;stroke-width:5.76"/>
	<text x="3127.41" y="2504.54" style="font-family:'Helvetica';font-size:99.99px;fill:#000000" text-anchor="middle">20</text>
	<line x1="3795.66" y1="2374.71" x2="3795.66" y2="2414.69" style="stroke:#000000;stroke-width:5.76"/>
	<text x="3795.66" y="2504.54" style="font-family:'Helvetica';font-size:99.99px;fill:#000000" text-anchor="middle">25</text>
	<text x="2124.91" y="2614.56" style="font-family:'Helvetica';font-size:99.99px;fill:#000000" text-anchor="middle">Lag</text>
	<text x="408.00" y="2737.89" style="font-family:'Helvetica';font-size:79.94px;fill:#000000">Bartlett's formula for MA(q) 95% confidence bands</text>
</svg>
