<?xml version="1.0" encoding="UTF-8" standalone="no"?>
<!-- This is a Stata 15.0 generated SVG file (http://www.stata.com) -->

<svg version="1.1" width="5.50in" height="4.00in" viewBox="0 0 3960 2880" xmlns="http://www.w3.org/2000/svg" xmlns:xlink="http://www.w3.org/1999/xlink">
	<desc>Stata Graph - Graph</desc>
	<rect x="0" y="0" width="3960" height="2880" style="fill:#EAF2F3;stroke:none"/>
	<rect x="0.00" y="0.00" width="3959.88" height="2880.00" style="fill:#EAF2F3"/>
	<rect x="2.88" y="2.88" width="3954.12" height="2874.24" style="fill:none;stroke:#EAF2F3;stroke-width:5.76"/>
	<rect x="390.80" y="100.86" width="3468.22" height="2273.85" style="fill:#FFFFFF"/>
	<rect x="393.68" y="103.74" width="3462.46" height="2268.09" style="fill:none;stroke:#FFFFFF;stroke-width:5.76"/>
	<line x1="390.80" y1="2311.35" x2="3859.02" y2="2311.35" style="stroke:#EAF2F3;stroke-width:8.64"/>
	<line x1="390.80" y1="1595.56" x2="3859.02" y2="1595.56" style="stroke:#EAF2F3;stroke-width:8.64"/>
	<line x1="390.80" y1="879.89" x2="3859.02" y2="879.89" style="stroke:#EAF2F3;stroke-width:8.64"/>
	<line x1="390.80" y1="164.22" x2="3859.02" y2="164.22" style="stroke:#EAF2F3;stroke-width:8.64"/>
	<line x1="390.80" y1="1595.56" x2="3859.02" y2="1595.56" style="stroke:#EAF2F3;stroke-width:8.64"/>
	<path d="
M587.81 2095.28 L587.81 2095.28 L721.46 2095.28 L855.11 2095.28 L988.76 2095.28 L1122.41 2095.28 L1256.06 2095.28 L1389.84 2095.28 L1523.49 2095.28 L1657.14 2095.28 L1790.79 2095.28 L1924.44 2095.28 L2058.09 2095.28 L2191.74 2095.28 L2325.39 2095.28 L2459.04 2095.28 L2592.81 2095.28 L2726.46 2095.28 L2860.11 2095.28 L2993.76 2095.28 L3127.41 2095.28 L3261.06 2095.28 L3394.71 2095.28 L3528.36 2095.28 L3662.01 2095.28 L3662.01 1095.84 L3528.36 1095.84 L3394.71 1095.84 L3261.06 1095.84 L3127.41 1095.84 L2993.76 1095.84 L2860.11 1095.84 L2726.46 1095.84 L2592.81 1095.84 L2459.04 1095.84 L2325.39 1095.84 L2191.74 1095.84 L2058.09 1095.84 L1924.44 1095.84 L1790.79 1095.84 L1657.14 1095.84 L1523.49 1095.84 L1389.84 1095.84 L1256.06 1095.84 L1122.41 1095.84 L988.76 1095.84 L855.11 1095.84 L721.46 1095.84 L587.81 1095.84 L587.81 2095.28 Z" stroke-linecap="round" stroke-alignment="inner" style="fill:#C0C0C0;stroke:#C0C0C0;stroke-width:8.64"/>
	<line x1="587.81" y1="1595.56" x2="587.81" y2="264.96" style="stroke:#1A476F;stroke-width:8.64"/>
	<line x1="721.46" y1="1595.56" x2="721.46" y2="1049.06" style="stroke:#1A476F;stroke-width:8.64"/>
	<line x1="855.11" y1="1595.56" x2="855.11" y2="1572.42" style="stroke:#1A476F;stroke-width:8.64"/>
	<line x1="988.76" y1="1595.56" x2="988.76" y2="1234.69" style="stroke:#1A476F;stroke-width:8.64"/>
	<line x1="1122.41" y1="1595.56" x2="1122.41" y2="1671.54" style="stroke:#1A476F;stroke-width:8.64"/>
	<line x1="1256.06" y1="1595.56" x2="1256.06" y2="1266.62" style="stroke:#1A476F;stroke-width:8.64"/>
	<line x1="1389.84" y1="1595.56" x2="1389.84" y2="1374.29" style="stroke:#1A476F;stroke-width:8.64"/>
	<line x1="1523.49" y1="1595.56" x2="1523.49" y2="1704.09" style="stroke:#1A476F;stroke-width:8.64"/>
	<line x1="1657.14" y1="1595.56" x2="1657.14" y2="942.01" style="stroke:#1A476F;stroke-width:8.64"/>
	<line x1="1790.79" y1="1595.56" x2="1790.79" y2="870.11" style="stroke:#1A476F;stroke-width:8.64"/>
	<line x1="1924.44" y1="1595.56" x2="1924.44" y2="1050.18" style="stroke:#1A476F;stroke-width:8.64"/>
	<line x1="2058.09" y1="1595.56" x2="2058.09" y2="1795.05" style="stroke:#1A476F;stroke-width:8.64"/>
	<line x1="2191.74" y1="1595.56" x2="2191.74" y2="1597.54" style="stroke:#1A476F;stroke-width:8.64"/>
	<line x1="2325.39" y1="1595.56" x2="2325.39" y2="1391.36" style="stroke:#1A476F;stroke-width:8.64"/>
	<line x1="2459.04" y1="1595.56" x2="2459.04" y2="1747.53" style="stroke:#1A476F;stroke-width:8.64"/>
	<line x1="2592.81" y1="1595.56" x2="2592.81" y2="1078.27" style="stroke:#1A476F;stroke-width:8.64"/>
	<line x1="2726.46" y1="1595.56" x2="2726.46" y2="1794.43" style="stroke:#1A476F;stroke-width:8.64"/>
	<line x1="2860.11" y1="1595.56" x2="2860.11" y2="1219.97" style="stroke:#1A476F;stroke-width:8.64"/>
	<line x1="2993.76" y1="1595.56" x2="2993.76" y2="1661.77" style="stroke:#1A476F;stroke-width:8.64"/>
	<line x1="3127.41" y1="1595.56" x2="3127.41" y2="1522.79" style="stroke:#1A476F;stroke-width:8.64"/>
	<line x1="3261.06" y1="1595.56" x2="3261.06" y2="1543.71" style="stroke:#1A476F;stroke-width:8.64"/>
	<line x1="3394.71" y1="1595.56" x2="3394.71" y2="1741.84" style="stroke:#1A476F;stroke-width:8.64"/>
	<line x1="3528.36" y1="1595.56" x2="3528.36" y2="1752.97" style="stroke:#1A476F;stroke-width:8.64"/>
	<line x1="3662.01" y1="1595.56" x2="3662.01" y2="1505.34" style="stroke:#1A476F;stroke-width:8.64"/>
	<circle cx="587.69" cy="264.96" r="26.35" style="fill:#1A476F"/>
	<circle cx="587.69" cy="264.96" r="22.03" style="fill:none;stroke:#1A476F;stroke-width:8.64"/>
	<circle cx="721.46" cy="1049.06" r="26.35" style="fill:#1A476F"/>
	<circle cx="721.46" cy="1049.06" r="22.03" style="fill:none;stroke:#1A476F;stroke-width:8.64"/>
	<circle cx="855.11" cy="1572.42" r="26.35" style="fill:#1A476F"/>
	<circle cx="855.11" cy="1572.42" r="22.03" style="fill:none;stroke:#1A476F;stroke-width:8.64"/>
	<circle cx="988.76" cy="1234.69" r="26.35" style="fill:#1A476F"/>
	<circle cx="988.76" cy="1234.69" r="22.03" style="fill:none;stroke:#1A476F;stroke-width:8.64"/>
	<circle cx="1122.41" cy="1671.67" r="26.35" style="fill:#1A476F"/>
	<circle cx="1122.41" cy="1671.67" r="22.03" style="fill:none;stroke:#1A476F;stroke-width:8.64"/>
	<circle cx="1256.06" cy="1266.74" r="26.35" style="fill:#1A476F"/>
	<circle cx="1256.06" cy="1266.74" r="22.03" style="fill:none;stroke:#1A476F;stroke-width:8.64"/>
	<circle cx="1389.71" cy="1374.41" r="26.35" style="fill:#1A476F"/>
	<circle cx="1389.71" cy="1374.41" r="22.03" style="fill:none;stroke:#1A476F;stroke-width:8.64"/>
	<circle cx="1523.36" cy="1704.21" r="26.35" style="fill:#1A476F"/>
	<circle cx="1523.36" cy="1704.21" r="22.03" style="fill:none;stroke:#1A476F;stroke-width:8.64"/>
	<circle cx="1657.01" cy="942.14" r="26.35" style="fill:#1A476F"/>
	<circle cx="1657.01" cy="942.14" r="22.03" style="fill:none;stroke:#1A476F;stroke-width:8.64"/>
	<circle cx="1790.66" cy="870.24" r="26.35" style="fill:#1A476F"/>
	<circle cx="1790.66" cy="870.24" r="22.03" style="fill:none;stroke:#1A476F;stroke-width:8.64"/>
	<circle cx="1924.31" cy="1050.30" r="26.35" style="fill:#1A476F"/>
	<circle cx="1924.31" cy="1050.30" r="22.03" style="fill:none;stroke:#1A476F;stroke-width:8.64"/>
	<circle cx="2058.09" cy="1795.17" r="26.35" style="fill:#1A476F"/>
	<circle cx="2058.09" cy="1795.17" r="22.03" style="fill:none;stroke:#1A476F;stroke-width:8.64"/>
	<circle cx="2191.74" cy="1597.54" r="26.35" style="fill:#1A476F"/>
	<circle cx="2191.74" cy="1597.54" r="22.03" style="fill:none;stroke:#1A476F;stroke-width:8.64"/>
	<circle cx="2325.39" cy="1391.49" r="26.35" style="fill:#1A476F"/>
	<circle cx="2325.39" cy="1391.49" r="22.03" style="fill:none;stroke:#1A476F;stroke-width:8.64"/>
	<circle cx="2459.04" cy="1747.65" r="26.35" style="fill:#1A476F"/>
	<circle cx="2459.04" cy="1747.65" r="22.03" style="fill:none;stroke:#1A476F;stroke-width:8.64"/>
	<circle cx="2592.69" cy="1078.39" r="26.35" style="fill:#1A476F"/>
	<circle cx="2592.69" cy="1078.39" r="22.03" style="fill:none;stroke:#1A476F;stroke-width:8.64"/>
	<circle cx="2726.34" cy="1794.43" r="26.35" style="fill:#1A476F"/>
	<circle cx="2726.34" cy="1794.43" r="22.03" style="fill:none;stroke:#1A476F;stroke-width:8.64"/>
	<circle cx="2859.99" cy="1220.09" r="26.35" style="fill:#1A476F"/>
	<circle cx="2859.99" cy="1220.09" r="22.03" style="fill:none;stroke:#1A476F;stroke-width:8.64"/>
	<circle cx="2993.64" cy="1661.77" r="26.35" style="fill:#1A476F"/>
	<circle cx="2993.64" cy="1661.77" r="22.03" style="fill:none;stroke:#1A476F;stroke-width:8.64"/>
	<circle cx="3127.29" cy="1522.79" r="26.35" style="fill:#1A476F"/>
	<circle cx="3127.29" cy="1522.79" r="22.03" style="fill:none;stroke:#1A476F;stroke-width:8.64"/>
	<circle cx="3261.06" cy="1543.83" r="26.35" style="fill:#1A476F"/>
	<circle cx="3261.06" cy="1543.83" r="22.03" style="fill:none;stroke:#1A476F;stroke-width:8.64"/>
	<circle cx="3394.71" cy="1741.96" r="26.35" style="fill:#1A476F"/>
	<circle cx="3394.71" cy="1741.96" r="22.03" style="fill:none;stroke:#1A476F;stroke-width:8.64"/>
	<circle cx="3528.36" cy="1753.10" r="26.35" style="fill:#1A476F"/>
	<circle cx="3528.36" cy="1753.10" r="22.03" style="fill:none;stroke:#1A476F;stroke-width:8.64"/>
	<circle cx="3662.01" cy="1505.34" r="26.35" style="fill:#1A476F"/>
	<circle cx="3662.01" cy="1505.34" r="22.03" style="fill:none;stroke:#1A476F;stroke-width:8.64"/>
	<line x1="390.80" y1="2374.71" x2="390.80" y2="100.86" style="stroke:#000000;stroke-width:5.76"/>
	<line x1="390.80" y1="2311.35" x2="350.83" y2="2311.35" style="stroke:#000000;stroke-width:5.76"/>
	<text x="300.72" y="2311.35" style="font-family:'Helvetica';font-size:99.99px;fill:#000000" transform="rotate(-90 300.72,2311.35)" text-anchor="middle">-0.20</text>
	<line x1="390.80" y1="1595.56" x2="350.83" y2="1595.56" style="stroke:#000000;stroke-width:5.76"/>
	<text x="300.72" y="1595.56" style="font-family:'Helvetica';font-size:99.99px;fill:#000000" transform="rotate(-90 300.72,1595.56)" text-anchor="middle">0.00</text>
	<line x1="390.80" y1="879.89" x2="350.83" y2="879.89" style="stroke:#000000;stroke-width:5.76"/>
	<text x="300.72" y="879.89" style="font-family:'Helvetica';font-size:99.99px;fill:#000000" transform="rotate(-90 300.72,879.89)" text-anchor="middle">0.20</text>
	<line x1="390.80" y1="164.22" x2="350.83" y2="164.22" style="stroke:#000000;stroke-width:5.76"/>
	<text x="300.72" y="164.22" style="font-family:'Helvetica';font-size:99.99px;fill:#000000" transform="rotate(-90 300.72,164.22)" text-anchor="middle">0.40</text>
	<text x="190.71" y="1237.79" style="font-family:'Helvetica';font-size:99.99px;fill:#000000" transform="rotate(-90 190.71,1237.79)" text-anchor="middle">Partial autocorrelations of D.yyy</text>
	<line x1="390.80" y1="2374.71" x2="3859.02" y2="2374.71" style="stroke:#000000;stroke-width:5.76"/>
	<line x1="454.16" y1="2374.71" x2="454.16" y2="2414.69" style="stroke:#000000;stroke-width:5.76"/>
	<text x="454.16" y="2504.54" style="font-family:'Helvetica';font-size:99.99px;fill:#000000" text-anchor="middle">0</text>
	<line x1="1122.41" y1="2374.71" x2="1122.41" y2="2414.69" style="stroke:#000000;stroke-width:5.76"/>
	<text x="1122.41" y="2504.54" style="font-family:'Helvetica';font-size:99.99px;fill:#000000" text-anchor="middle">5</text>
	<line x1="1790.79" y1="2374.71" x2="1790.79" y2="2414.69" style="stroke:#000000;stroke-width:5.76"/>
	<text x="1790.79" y="2504.54" style="font-family:'Helvetica';font-size:99.99px;fill:#000000" text-anchor="middle">10</text>
	<line x1="2459.04" y1="2374.71" x2="2459.04" y2="2414.69" style="stroke:#000000;stroke-width:5.76"/>
	<text x="2459.04" y="2504.54" style="font-family:'Helvetica';font-size:99.99px;fill:#000000" text-anchor="middle">15</text>
	<line x1="3127.41" y1="2374.71" x2="3127.41" y2="2414.69" style="stroke:#000000;stroke-width:5.76"/>
	<text x="3127.41" y="2504.54" style="font-family:'Helvetica';font-size:99.99px;fill:#000000" text-anchor="middle">20</text>
	<line x1="3795.66" y1="2374.71" x2="3795.66" y2="2414.69" style="stroke:#000000;stroke-width:5.76"/>
	<text x="3795.66" y="2504.54" style="font-family:'Helvetica';font-size:99.99px;fill:#000000" text-anchor="middle">25</text>
	<text x="2124.91" y="2614.56" style="font-family:'Helvetica';font-size:99.99px;fill:#000000" text-anchor="middle">Lag</text>
	<text x="408.00" y="2737.89" style="font-family:'Helvetica';font-size:79.94px;fill:#000000">95% Confidence bands [se = 1/sqrt(n)]</text>
</svg>
