<?xml version="1.0" encoding="UTF-8" standalone="no"?>
<!-- This is a Stata 15.0 generated SVG file (http://www.stata.com) -->

<svg version="1.1" width="5.50in" height="4.00in" viewBox="0 0 3960 2880" xmlns="http://www.w3.org/2000/svg" xmlns:xlink="http://www.w3.org/1999/xlink">
	<desc>Stata Graph - Graph</desc>
	<rect x="0" y="0" width="3960" height="2880" style="fill:#EAF2F3;stroke:none"/>
	<rect x="0.00" y="0.00" width="3959.88" height="2880.00" style="fill:#EAF2F3"/>
	<rect x="2.88" y="2.88" width="3954.12" height="2874.24" style="fill:none;stroke:#EAF2F3;stroke-width:5.76"/>
	<rect x="390.80" y="100.86" width="3468.22" height="2388.33" style="fill:#FFFFFF"/>
	<rect x="393.68" y="103.74" width="3462.46" height="2382.57" style="fill:none;stroke:#FFFFFF;stroke-width:5.76"/>
	<line x1="390.80" y1="2266.68" x2="3859.02" y2="2266.68" style="stroke:#EAF2F3;stroke-width:8.64"/>
	<line x1="390.80" y1="1565.86" x2="3859.02" y2="1565.86" style="stroke:#EAF2F3;stroke-width:8.64"/>
	<line x1="390.80" y1="865.04" x2="3859.02" y2="865.04" style="stroke:#EAF2F3;stroke-width:8.64"/>
	<line x1="390.80" y1="164.22" x2="3859.02" y2="164.22" style="stroke:#EAF2F3;stroke-width:8.64"/>
	<line x1="469.88" y1="1971.40" x2="485.60" y2="1433.56" stroke-linecap="round" style="stroke:#1A476F;stroke-width:8.64"/>
	<line x1="485.60" y1="1433.56" x2="501.31" y2="2425.95" stroke-linecap="round" style="stroke:#1A476F;stroke-width:8.64"/>
	<line x1="501.31" y1="2425.95" x2="517.15" y2="2393.15" stroke-linecap="round" style="stroke:#1A476F;stroke-width:8.64"/>
	<line x1="517.15" y1="2393.15" x2="532.87" y2="1351.14" stroke-linecap="round" style="stroke:#1A476F;stroke-width:8.64"/>
	<line x1="532.87" y1="1351.14" x2="548.71" y2="791.78" stroke-linecap="round" style="stroke:#1A476F;stroke-width:8.64"/>
	<line x1="548.71" y1="791.78" x2="564.42" y2="1143.86" stroke-linecap="round" style="stroke:#1A476F;stroke-width:8.64"/>
	<line x1="564.42" y1="1143.86" x2="580.14" y2="1413.02" stroke-linecap="round" style="stroke:#1A476F;stroke-width:8.64"/>
	<line x1="580.14" y1="1413.02" x2="595.98" y2="1135.44" stroke-linecap="round" style="stroke:#1A476F;stroke-width:8.64"/>
	<line x1="595.98" y1="1135.44" x2="611.70" y2="2004.69" stroke-linecap="round" style="stroke:#1A476F;stroke-width:8.64"/>
	<line x1="611.70" y1="2004.69" x2="627.41" y2="1701.12" stroke-linecap="round" style="stroke:#1A476F;stroke-width:8.64"/>
	<line x1="627.41" y1="1701.12" x2="643.25" y2="1077.15" stroke-linecap="round" style="stroke:#1A476F;stroke-width:8.64"/>
	<line x1="643.25" y1="1077.15" x2="658.97" y2="2177.82" stroke-linecap="round" style="stroke:#1A476F;stroke-width:8.64"/>
	<line x1="658.97" y1="2177.82" x2="674.81" y2="1785.15" stroke-linecap="round" style="stroke:#1A476F;stroke-width:8.64"/>
	<line x1="674.81" y1="1785.15" x2="690.52" y2="2281.77" stroke-linecap="round" style="stroke:#1A476F;stroke-width:8.64"/>
	<line x1="690.52" y1="2281.77" x2="706.24" y2="1483.31" stroke-linecap="round" style="stroke:#1A476F;stroke-width:8.64"/>
	<line x1="706.24" y1="1483.31" x2="722.08" y2="1214.64" stroke-linecap="round" style="stroke:#1A476F;stroke-width:8.64"/>
	<line x1="722.08" y1="1214.64" x2="737.80" y2="1383.69" stroke-linecap="round" style="stroke:#1A476F;stroke-width:8.64"/>
	<line x1="737.80" y1="1383.69" x2="753.51" y2="1259.94" stroke-linecap="round" style="stroke:#1A476F;stroke-width:8.64"/>
	<line x1="753.51" y1="1259.94" x2="769.35" y2="1223.93" stroke-linecap="round" style="stroke:#1A476F;stroke-width:8.64"/>
	<line x1="769.35" y1="1223.93" x2="785.07" y2="1656.57" stroke-linecap="round" style="stroke:#1A476F;stroke-width:8.64"/>
	<line x1="785.07" y1="1656.57" x2="800.79" y2="1646.67" stroke-linecap="round" style="stroke:#1A476F;stroke-width:8.64"/>
	<line x1="800.79" y1="1646.67" x2="816.63" y2="1841.46" stroke-linecap="round" style="stroke:#1A476F;stroke-width:8.64"/>
	<line x1="816.63" y1="1841.46" x2="832.34" y2="1435.17" stroke-linecap="round" style="stroke:#1A476F;stroke-width:8.64"/>
	<line x1="832.34" y1="1435.17" x2="848.18" y2="1543.33" stroke-linecap="round" style="stroke:#1A476F;stroke-width:8.64"/>
	<line x1="848.18" y1="1543.33" x2="863.90" y2="1343.22" stroke-linecap="round" style="stroke:#1A476F;stroke-width:8.64"/>
	<line x1="863.90" y1="1343.22" x2="879.62" y2="1586.40" stroke-linecap="round" style="stroke:#1A476F;stroke-width:8.64"/>
	<line x1="879.62" y1="1586.40" x2="895.46" y2="1182.22" stroke-linecap="round" style="stroke:#1A476F;stroke-width:8.64"/>
	<line x1="895.46" y1="1182.22" x2="911.17" y2="1659.91" stroke-linecap="round" style="stroke:#1A476F;stroke-width:8.64"/>
	<line x1="911.17" y1="1659.91" x2="926.89" y2="1474.53" stroke-linecap="round" style="stroke:#1A476F;stroke-width:8.64"/>
	<line x1="926.89" y1="1474.53" x2="942.73" y2="1860.14" stroke-linecap="round" style="stroke:#1A476F;stroke-width:8.64"/>
	<line x1="942.73" y1="1860.14" x2="958.44" y2="992.63" stroke-linecap="round" style="stroke:#1A476F;stroke-width:8.64"/>
	<line x1="958.44" y1="992.63" x2="974.28" y2="1590.61" stroke-linecap="round" style="stroke:#1A476F;stroke-width:8.64"/>
	<line x1="974.28" y1="1590.61" x2="990.00" y2="1321.07" stroke-linecap="round" style="stroke:#1A476F;stroke-width:8.64"/>
	<line x1="990.00" y1="1321.07" x2="1005.72" y2="1153.39" stroke-linecap="round" style="stroke:#1A476F;stroke-width:8.64"/>
	<line x1="1005.72" y1="1153.39" x2="1021.56" y2="1148.44" stroke-linecap="round" style="stroke:#1A476F;stroke-width:8.64"/>
	<line x1="1021.56" y1="1148.44" x2="1037.27" y2="1903.95" stroke-linecap="round" style="stroke:#1A476F;stroke-width:8.64"/>
	<line x1="1037.27" y1="1903.95" x2="1052.99" y2="1562.52" stroke-linecap="round" style="stroke:#1A476F;stroke-width:8.64"/>
	<line x1="1052.99" y1="1562.52" x2="1068.83" y2="1564.37" stroke-linecap="round" style="stroke:#1A476F;stroke-width:8.64"/>
	<line x1="1068.83" y1="1564.37" x2="1084.55" y2="1701.24" stroke-linecap="round" style="stroke:#1A476F;stroke-width:8.64"/>
	<line x1="1084.55" y1="1701.24" x2="1100.38" y2="1997.02" stroke-linecap="round" style="stroke:#1A476F;stroke-width:8.64"/>
	<line x1="1100.38" y1="1997.02" x2="1116.10" y2="1460.42" stroke-linecap="round" style="stroke:#1A476F;stroke-width:8.64"/>
	<line x1="1116.10" y1="1460.42" x2="1131.82" y2="1482.08" stroke-linecap="round" style="stroke:#1A476F;stroke-width:8.64"/>
	<line x1="1131.82" y1="1482.08" x2="1147.66" y2="1072.70" stroke-linecap="round" style="stroke:#1A476F;stroke-width:8.64"/>
	<line x1="1147.66" y1="1072.70" x2="1163.37" y2="1354.11" stroke-linecap="round" style="stroke:#1A476F;stroke-width:8.64"/>
	<line x1="1163.37" y1="1354.11" x2="1179.09" y2="1686.02" stroke-linecap="round" style="stroke:#1A476F;stroke-width:8.64"/>
	<line x1="1179.09" y1="1686.02" x2="1194.93" y2="1547.79" stroke-linecap="round" style="stroke:#1A476F;stroke-width:8.64"/>
	<line x1="1194.93" y1="1547.79" x2="1210.65" y2="1251.28" stroke-linecap="round" style="stroke:#1A476F;stroke-width:8.64"/>
	<line x1="1210.65" y1="1251.28" x2="1226.36" y2="1723.52" stroke-linecap="round" style="stroke:#1A476F;stroke-width:8.64"/>
	<line x1="1226.36" y1="1723.52" x2="1242.20" y2="1516.23" stroke-linecap="round" style="stroke:#1A476F;stroke-width:8.64"/>
	<line x1="1242.20" y1="1516.23" x2="1257.92" y2="1940.21" stroke-linecap="round" style="stroke:#1A476F;stroke-width:8.64"/>
	<line x1="1257.92" y1="1940.21" x2="1273.76" y2="1657.68" stroke-linecap="round" style="stroke:#1A476F;stroke-width:8.64"/>
	<line x1="1273.76" y1="1657.68" x2="1289.47" y2="1598.40" stroke-linecap="round" style="stroke:#1A476F;stroke-width:8.64"/>
	<line x1="1289.47" y1="1598.40" x2="1305.19" y2="1573.04" stroke-linecap="round" style="stroke:#1A476F;stroke-width:8.64"/>
	<line x1="1305.19" y1="1573.04" x2="1321.03" y2="2118.91" stroke-linecap="round" style="stroke:#1A476F;stroke-width:8.64"/>
	<line x1="1321.03" y1="2118.91" x2="1336.75" y2="549.34" stroke-linecap="round" style="stroke:#1A476F;stroke-width:8.64"/>
	<line x1="1336.75" y1="549.34" x2="1352.46" y2="1658.05" stroke-linecap="round" style="stroke:#1A476F;stroke-width:8.64"/>
	<line x1="1352.46" y1="1658.05" x2="1368.30" y2="1606.70" stroke-linecap="round" style="stroke:#1A476F;stroke-width:8.64"/>
	<line x1="1368.30" y1="1606.70" x2="1384.02" y2="1845.67" stroke-linecap="round" style="stroke:#1A476F;stroke-width:8.64"/>
	<line x1="1384.02" y1="1845.67" x2="1399.86" y2="831.25" stroke-linecap="round" style="stroke:#1A476F;stroke-width:8.64"/>
	<line x1="1399.86" y1="831.25" x2="1415.58" y2="1353.12" stroke-linecap="round" style="stroke:#1A476F;stroke-width:8.64"/>
	<line x1="1415.58" y1="1353.12" x2="1431.29" y2="1661.15" stroke-linecap="round" style="stroke:#1A476F;stroke-width:8.64"/>
	<line x1="1431.29" y1="1661.15" x2="1447.13" y2="1245.09" stroke-linecap="round" style="stroke:#1A476F;stroke-width:8.64"/>
	<line x1="1447.13" y1="1245.09" x2="1462.85" y2="948.08" stroke-linecap="round" style="stroke:#1A476F;stroke-width:8.64"/>
	<line x1="1462.85" y1="948.08" x2="1478.57" y2="1461.53" stroke-linecap="round" style="stroke:#1A476F;stroke-width:8.64"/>
	<line x1="1478.57" y1="1461.53" x2="1494.40" y2="1906.18" stroke-linecap="round" style="stroke:#1A476F;stroke-width:8.64"/>
	<line x1="1494.40" y1="1906.18" x2="1510.12" y2="1229.25" stroke-linecap="round" style="stroke:#1A476F;stroke-width:8.64"/>
	<line x1="1510.12" y1="1229.25" x2="1525.96" y2="1941.82" stroke-linecap="round" style="stroke:#1A476F;stroke-width:8.64"/>
	<line x1="1525.96" y1="1941.82" x2="1541.68" y2="1315.75" stroke-linecap="round" style="stroke:#1A476F;stroke-width:8.64"/>
	<line x1="1541.68" y1="1315.75" x2="1557.39" y2="1677.11" stroke-linecap="round" style="stroke:#1A476F;stroke-width:8.64"/>
	<line x1="1557.39" y1="1677.11" x2="1573.23" y2="1372.55" stroke-linecap="round" style="stroke:#1A476F;stroke-width:8.64"/>
	<line x1="1573.23" y1="1372.55" x2="1588.95" y2="1958.90" stroke-linecap="round" style="stroke:#1A476F;stroke-width:8.64"/>
	<line x1="1588.95" y1="1958.90" x2="1604.67" y2="1399.16" stroke-linecap="round" style="stroke:#1A476F;stroke-width:8.64"/>
	<line x1="1604.67" y1="1399.16" x2="1620.51" y2="1047.95" stroke-linecap="round" style="stroke:#1A476F;stroke-width:8.64"/>
	<line x1="1620.51" y1="1047.95" x2="1636.22" y2="1317.24" stroke-linecap="round" style="stroke:#1A476F;stroke-width:8.64"/>
	<line x1="1636.22" y1="1317.24" x2="1652.06" y2="1263.16" stroke-linecap="round" style="stroke:#1A476F;stroke-width:8.64"/>
	<line x1="1652.06" y1="1263.16" x2="1667.78" y2="1767.08" stroke-linecap="round" style="stroke:#1A476F;stroke-width:8.64"/>
	<line x1="1667.78" y1="1767.08" x2="1683.49" y2="1637.39" stroke-linecap="round" style="stroke:#1A476F;stroke-width:8.64"/>
	<line x1="1683.49" y1="1637.39" x2="1699.34" y2="1396.07" stroke-linecap="round" style="stroke:#1A476F;stroke-width:8.64"/>
	<line x1="1699.34" y1="1396.07" x2="1715.05" y2="1361.66" stroke-linecap="round" style="stroke:#1A476F;stroke-width:8.64"/>
	<line x1="1715.05" y1="1361.66" x2="1730.77" y2="1227.27" stroke-linecap="round" style="stroke:#1A476F;stroke-width:8.64"/>
	<line x1="1730.77" y1="1227.27" x2="1746.61" y2="1391.74" stroke-linecap="round" style="stroke:#1A476F;stroke-width:8.64"/>
	<line x1="1746.61" y1="1391.74" x2="1762.32" y2="1654.71" stroke-linecap="round" style="stroke:#1A476F;stroke-width:8.64"/>
	<line x1="1762.32" y1="1654.71" x2="1778.04" y2="1713.87" stroke-linecap="round" style="stroke:#1A476F;stroke-width:8.64"/>
	<line x1="1778.04" y1="1713.87" x2="1793.88" y2="318.91" stroke-linecap="round" style="stroke:#1A476F;stroke-width:8.64"/>
	<line x1="1793.88" y1="318.91" x2="1809.60" y2="1713.37" stroke-linecap="round" style="stroke:#1A476F;stroke-width:8.64"/>
	<line x1="1809.60" y1="1713.37" x2="1825.44" y2="1310.31" stroke-linecap="round" style="stroke:#1A476F;stroke-width:8.64"/>
	<line x1="1825.44" y1="1310.31" x2="1841.15" y2="1817.57" stroke-linecap="round" style="stroke:#1A476F;stroke-width:8.64"/>
	<line x1="1841.15" y1="1817.57" x2="1856.87" y2="1423.91" stroke-linecap="round" style="stroke:#1A476F;stroke-width:8.64"/>
	<line x1="1856.87" y1="1423.91" x2="1872.71" y2="1448.54" stroke-linecap="round" style="stroke:#1A476F;stroke-width:8.64"/>
	<line x1="1872.71" y1="1448.54" x2="1888.42" y2="1671.42" stroke-linecap="round" style="stroke:#1A476F;stroke-width:8.64"/>
	<line x1="1888.42" y1="1671.42" x2="1904.14" y2="1601.50" stroke-linecap="round" style="stroke:#1A476F;stroke-width:8.64"/>
	<line x1="1904.14" y1="1601.50" x2="1919.98" y2="2319.77" stroke-linecap="round" style="stroke:#1A476F;stroke-width:8.64"/>
	<line x1="1919.98" y1="2319.77" x2="1935.70" y2="1470.94" stroke-linecap="round" style="stroke:#1A476F;stroke-width:8.64"/>
	<line x1="1935.70" y1="1470.94" x2="1951.54" y2="708.99" stroke-linecap="round" style="stroke:#1A476F;stroke-width:8.64"/>
	<line x1="1951.54" y1="708.99" x2="1967.25" y2="957.24" stroke-linecap="round" style="stroke:#1A476F;stroke-width:8.64"/>
	<line x1="1967.25" y1="957.24" x2="1982.97" y2="2265.44" stroke-linecap="round" style="stroke:#1A476F;stroke-width:8.64"/>
	<line x1="1982.97" y1="2265.44" x2="1998.81" y2="1262.78" stroke-linecap="round" style="stroke:#1A476F;stroke-width:8.64"/>
	<line x1="1998.81" y1="1262.78" x2="2014.53" y2="2141.93" stroke-linecap="round" style="stroke:#1A476F;stroke-width:8.64"/>
	<line x1="2014.53" y1="2141.93" x2="2030.24" y2="2341.92" stroke-linecap="round" style="stroke:#1A476F;stroke-width:8.64"/>
	<line x1="2030.24" y1="2341.92" x2="2046.08" y2="1595.43" stroke-linecap="round" style="stroke:#1A476F;stroke-width:8.64"/>
	<line x1="2046.08" y1="1595.43" x2="2061.80" y2="1854.08" stroke-linecap="round" style="stroke:#1A476F;stroke-width:8.64"/>
	<line x1="2061.80" y1="1854.08" x2="2077.64" y2="1795.79" stroke-linecap="round" style="stroke:#1A476F;stroke-width:8.64"/>
	<line x1="2077.64" y1="1795.79" x2="2093.36" y2="1465.86" stroke-linecap="round" style="stroke:#1A476F;stroke-width:8.64"/>
	<line x1="2093.36" y1="1465.86" x2="2109.07" y2="1179.25" stroke-linecap="round" style="stroke:#1A476F;stroke-width:8.64"/>
	<line x1="2109.07" y1="1179.25" x2="2124.91" y2="1269.22" stroke-linecap="round" style="stroke:#1A476F;stroke-width:8.64"/>
	<line x1="2124.91" y1="1269.22" x2="2140.63" y2="1372.31" stroke-linecap="round" style="stroke:#1A476F;stroke-width:8.64"/>
	<line x1="2140.63" y1="1372.31" x2="2156.34" y2="1209.82" stroke-linecap="round" style="stroke:#1A476F;stroke-width:8.64"/>
	<line x1="2156.34" y1="1209.82" x2="2172.18" y2="1449.28" stroke-linecap="round" style="stroke:#1A476F;stroke-width:8.64"/>
	<line x1="2172.18" y1="1449.28" x2="2187.90" y2="1723.64" stroke-linecap="round" style="stroke:#1A476F;stroke-width:8.64"/>
	<line x1="2187.90" y1="1723.64" x2="2203.74" y2="1779.46" stroke-linecap="round" style="stroke:#1A476F;stroke-width:8.64"/>
	<line x1="2203.74" y1="1779.46" x2="2219.46" y2="1512.15" stroke-linecap="round" style="stroke:#1A476F;stroke-width:8.64"/>
	<line x1="2219.46" y1="1512.15" x2="2235.17" y2="1773.02" stroke-linecap="round" style="stroke:#1A476F;stroke-width:8.64"/>
	<line x1="2235.17" y1="1773.02" x2="2251.01" y2="1554.47" stroke-linecap="round" style="stroke:#1A476F;stroke-width:8.64"/>
	<line x1="2251.01" y1="1554.47" x2="2266.73" y2="1768.20" stroke-linecap="round" style="stroke:#1A476F;stroke-width:8.64"/>
	<line x1="2266.73" y1="1768.20" x2="2282.45" y2="1679.83" stroke-linecap="round" style="stroke:#1A476F;stroke-width:8.64"/>
	<line x1="2282.45" y1="1679.83" x2="2298.28" y2="1876.60" stroke-linecap="round" style="stroke:#1A476F;stroke-width:8.64"/>
	<line x1="2298.28" y1="1876.60" x2="2314.00" y2="1596.80" stroke-linecap="round" style="stroke:#1A476F;stroke-width:8.64"/>
	<line x1="2314.00" y1="1596.80" x2="2329.72" y2="1770.18" stroke-linecap="round" style="stroke:#1A476F;stroke-width:8.64"/>
	<line x1="2329.72" y1="1770.18" x2="2345.56" y2="1615.73" stroke-linecap="round" style="stroke:#1A476F;stroke-width:8.64"/>
	<line x1="2345.56" y1="1615.73" x2="2361.27" y2="1578.98" stroke-linecap="round" style="stroke:#1A476F;stroke-width:8.64"/>
	<line x1="2361.27" y1="1578.98" x2="2377.11" y2="1566.35" stroke-linecap="round" style="stroke:#1A476F;stroke-width:8.64"/>
	<line x1="2377.11" y1="1566.35" x2="2392.83" y2="1299.54" stroke-linecap="round" style="stroke:#1A476F;stroke-width:8.64"/>
	<line x1="2392.83" y1="1299.54" x2="2408.55" y2="1747.78" stroke-linecap="round" style="stroke:#1A476F;stroke-width:8.64"/>
	<line x1="2408.55" y1="1747.78" x2="2424.39" y2="1370.95" stroke-linecap="round" style="stroke:#1A476F;stroke-width:8.64"/>
	<line x1="2424.39" y1="1370.95" x2="2440.10" y2="1615.98" stroke-linecap="round" style="stroke:#1A476F;stroke-width:8.64"/>
	<line x1="2440.10" y1="1615.98" x2="2455.82" y2="1434.18" stroke-linecap="round" style="stroke:#1A476F;stroke-width:8.64"/>
	<line x1="2455.82" y1="1434.18" x2="2471.66" y2="1463.64" stroke-linecap="round" style="stroke:#1A476F;stroke-width:8.64"/>
	<line x1="2471.66" y1="1463.64" x2="2487.38" y2="1640.11" stroke-linecap="round" style="stroke:#1A476F;stroke-width:8.64"/>
	<line x1="2487.38" y1="1640.11" x2="2503.22" y2="1683.30" stroke-linecap="round" style="stroke:#1A476F;stroke-width:8.64"/>
	<line x1="2503.22" y1="1683.30" x2="2518.93" y2="1805.69" stroke-linecap="round" style="stroke:#1A476F;stroke-width:8.64"/>
	<line x1="2518.93" y1="1805.69" x2="2534.65" y2="1279.99" stroke-linecap="round" style="stroke:#1A476F;stroke-width:8.64"/>
	<line x1="2534.65" y1="1279.99" x2="2550.49" y2="1711.14" stroke-linecap="round" style="stroke:#1A476F;stroke-width:8.64"/>
	<line x1="2550.49" y1="1711.14" x2="2566.20" y2="1851.73" stroke-linecap="round" style="stroke:#1A476F;stroke-width:8.64"/>
	<line x1="2566.20" y1="1851.73" x2="2581.92" y2="2096.02" stroke-linecap="round" style="stroke:#1A476F;stroke-width:8.64"/>
	<line x1="2581.92" y1="2096.02" x2="2597.76" y2="1724.76" stroke-linecap="round" style="stroke:#1A476F;stroke-width:8.64"/>
	<line x1="2597.76" y1="1724.76" x2="2613.48" y2="1564.50" stroke-linecap="round" style="stroke:#1A476F;stroke-width:8.64"/>
	<line x1="2613.48" y1="1564.50" x2="2629.32" y2="1663.87" stroke-linecap="round" style="stroke:#1A476F;stroke-width:8.64"/>
	<line x1="2629.32" y1="1663.87" x2="2645.03" y2="1734.66" stroke-linecap="round" style="stroke:#1A476F;stroke-width:8.64"/>
	<line x1="2645.03" y1="1734.66" x2="2660.75" y2="1437.28" stroke-linecap="round" style="stroke:#1A476F;stroke-width:8.64"/>
	<line x1="2660.75" y1="1437.28" x2="2676.59" y2="1520.19" stroke-linecap="round" style="stroke:#1A476F;stroke-width:8.64"/>
	<line x1="2676.59" y1="1520.19" x2="2692.30" y2="1576.87" stroke-linecap="round" style="stroke:#1A476F;stroke-width:8.64"/>
	<line x1="2692.30" y1="1576.87" x2="2708.02" y2="1519.08" stroke-linecap="round" style="stroke:#1A476F;stroke-width:8.64"/>
	<line x1="2708.02" y1="1519.08" x2="2723.86" y2="1754.09" stroke-linecap="round" style="stroke:#1A476F;stroke-width:8.64"/>
	<line x1="2723.86" y1="1754.09" x2="2739.58" y2="1647.91" stroke-linecap="round" style="stroke:#1A476F;stroke-width:8.64"/>
	<line x1="2739.58" y1="1647.91" x2="2755.29" y2="1693.45" stroke-linecap="round" style="stroke:#1A476F;stroke-width:8.64"/>
	<line x1="2755.29" y1="1693.45" x2="2771.13" y2="1362.90" stroke-linecap="round" style="stroke:#1A476F;stroke-width:8.64"/>
	<line x1="2771.13" y1="1362.90" x2="2786.85" y2="1527.87" stroke-linecap="round" style="stroke:#1A476F;stroke-width:8.64"/>
	<line x1="2786.85" y1="1527.87" x2="2802.69" y2="1481.46" stroke-linecap="round" style="stroke:#1A476F;stroke-width:8.64"/>
	<line x1="2802.69" y1="1481.46" x2="2818.41" y2="1671.42" stroke-linecap="round" style="stroke:#1A476F;stroke-width:8.64"/>
	<line x1="2818.41" y1="1671.42" x2="2834.12" y2="1462.77" stroke-linecap="round" style="stroke:#1A476F;stroke-width:8.64"/>
	<line x1="2834.12" y1="1462.77" x2="2849.96" y2="1763.25" stroke-linecap="round" style="stroke:#1A476F;stroke-width:8.64"/>
	<line x1="2849.96" y1="1763.25" x2="2865.68" y2="1845.29" stroke-linecap="round" style="stroke:#1A476F;stroke-width:8.64"/>
	<line x1="2865.68" y1="1845.29" x2="2881.39" y2="1545.93" stroke-linecap="round" style="stroke:#1A476F;stroke-width:8.64"/>
	<line x1="2881.39" y1="1545.93" x2="2897.24" y2="1591.23" stroke-linecap="round" style="stroke:#1A476F;stroke-width:8.64"/>
	<line x1="2897.24" y1="1591.23" x2="2912.95" y2="1573.41" stroke-linecap="round" style="stroke:#1A476F;stroke-width:8.64"/>
	<line x1="2912.95" y1="1573.41" x2="2928.79" y2="1358.82" stroke-linecap="round" style="stroke:#1A476F;stroke-width:8.64"/>
	<line x1="2928.79" y1="1358.82" x2="2944.51" y2="1684.54" stroke-linecap="round" style="stroke:#1A476F;stroke-width:8.64"/>
	<line x1="2944.51" y1="1684.54" x2="2960.22" y2="1444.21" stroke-linecap="round" style="stroke:#1A476F;stroke-width:8.64"/>
	<line x1="2960.22" y1="1444.21" x2="2976.06" y2="1579.72" stroke-linecap="round" style="stroke:#1A476F;stroke-width:8.64"/>
	<line x1="2976.06" y1="1579.72" x2="2991.78" y2="1473.04" stroke-linecap="round" style="stroke:#1A476F;stroke-width:8.64"/>
	<line x1="2991.78" y1="1473.04" x2="3007.50" y2="1542.96" stroke-linecap="round" style="stroke:#1A476F;stroke-width:8.64"/>
	<line x1="3007.50" y1="1542.96" x2="3023.34" y2="1708.30" stroke-linecap="round" style="stroke:#1A476F;stroke-width:8.64"/>
	<line x1="3023.34" y1="1708.30" x2="3039.05" y2="1571.55" stroke-linecap="round" style="stroke:#1A476F;stroke-width:8.64"/>
	<line x1="3039.05" y1="1571.55" x2="3054.89" y2="1759.78" stroke-linecap="round" style="stroke:#1A476F;stroke-width:8.64"/>
	<line x1="3054.89" y1="1759.78" x2="3070.61" y2="1492.72" stroke-linecap="round" style="stroke:#1A476F;stroke-width:8.64"/>
	<line x1="3070.61" y1="1492.72" x2="3086.32" y2="1419.46" stroke-linecap="round" style="stroke:#1A476F;stroke-width:8.64"/>
	<line x1="3086.32" y1="1419.46" x2="3102.16" y2="1660.53" stroke-linecap="round" style="stroke:#1A476F;stroke-width:8.64"/>
	<line x1="3102.16" y1="1660.53" x2="3117.88" y2="1655.33" stroke-linecap="round" style="stroke:#1A476F;stroke-width:8.64"/>
	<line x1="3117.88" y1="1655.33" x2="3133.60" y2="1503.24" stroke-linecap="round" style="stroke:#1A476F;stroke-width:8.64"/>
	<line x1="3133.60" y1="1503.24" x2="3149.44" y2="1291.37" stroke-linecap="round" style="stroke:#1A476F;stroke-width:8.64"/>
	<line x1="3149.44" y1="1291.37" x2="3165.15" y2="1741.84" stroke-linecap="round" style="stroke:#1A476F;stroke-width:8.64"/>
	<line x1="3165.15" y1="1741.84" x2="3180.99" y2="1382.58" stroke-linecap="round" style="stroke:#1A476F;stroke-width:8.64"/>
	<line x1="3180.99" y1="1382.58" x2="3196.71" y2="1967.56" stroke-linecap="round" style="stroke:#1A476F;stroke-width:8.64"/>
	<line x1="3196.71" y1="1967.56" x2="3212.43" y2="1662.14" stroke-linecap="round" style="stroke:#1A476F;stroke-width:8.64"/>
	<line x1="3212.43" y1="1662.14" x2="3228.27" y2="1789.85" stroke-linecap="round" style="stroke:#1A476F;stroke-width:8.64"/>
	<line x1="3228.27" y1="1789.85" x2="3243.98" y2="1615.85" stroke-linecap="round" style="stroke:#1A476F;stroke-width:8.64"/>
	<line x1="3243.98" y1="1615.85" x2="3259.70" y2="2016.32" stroke-linecap="round" style="stroke:#1A476F;stroke-width:8.64"/>
	<line x1="3259.70" y1="2016.32" x2="3275.54" y2="1606.70" stroke-linecap="round" style="stroke:#1A476F;stroke-width:8.64"/>
	<line x1="3275.54" y1="1606.70" x2="3291.26" y2="1599.77" stroke-linecap="round" style="stroke:#1A476F;stroke-width:8.64"/>
	<line x1="3291.26" y1="1599.77" x2="3306.97" y2="1659.42" stroke-linecap="round" style="stroke:#1A476F;stroke-width:8.64"/>
	<line x1="3306.97" y1="1659.42" x2="3322.81" y2="1659.66" stroke-linecap="round" style="stroke:#1A476F;stroke-width:8.64"/>
	<line x1="3322.81" y1="1659.66" x2="3338.53" y2="1745.80" stroke-linecap="round" style="stroke:#1A476F;stroke-width:8.64"/>
	<line x1="3338.53" y1="1745.80" x2="3354.37" y2="1549.27" stroke-linecap="round" style="stroke:#1A476F;stroke-width:8.64"/>
	<line x1="3354.37" y1="1549.27" x2="3370.08" y2="1548.66" stroke-linecap="round" style="stroke:#1A476F;stroke-width:8.64"/>
	<line x1="3370.08" y1="1548.66" x2="3385.80" y2="1174.18" stroke-linecap="round" style="stroke:#1A476F;stroke-width:8.64"/>
	<line x1="3385.80" y1="1174.18" x2="3401.64" y2="1665.48" stroke-linecap="round" style="stroke:#1A476F;stroke-width:8.64"/>
	<line x1="3401.64" y1="1665.48" x2="3417.36" y2="1355.97" stroke-linecap="round" style="stroke:#1A476F;stroke-width:8.64"/>
	<line x1="3417.36" y1="1355.97" x2="3433.07" y2="1385.55" stroke-linecap="round" style="stroke:#1A476F;stroke-width:8.64"/>
	<line x1="3433.07" y1="1385.55" x2="3448.91" y2="1612.64" stroke-linecap="round" style="stroke:#1A476F;stroke-width:8.64"/>
	<line x1="3448.91" y1="1612.64" x2="3464.63" y2="1560.66" stroke-linecap="round" style="stroke:#1A476F;stroke-width:8.64"/>
	<line x1="3464.63" y1="1560.66" x2="3480.47" y2="1454.23" stroke-linecap="round" style="stroke:#1A476F;stroke-width:8.64"/>
	<line x1="3480.47" y1="1454.23" x2="3496.18" y2="1575.02" stroke-linecap="round" style="stroke:#1A476F;stroke-width:8.64"/>
	<line x1="3496.18" y1="1575.02" x2="3511.90" y2="1429.36" stroke-linecap="round" style="stroke:#1A476F;stroke-width:8.64"/>
	<line x1="3511.90" y1="1429.36" x2="3527.74" y2="1667.95" stroke-linecap="round" style="stroke:#1A476F;stroke-width:8.64"/>
	<line x1="3527.74" y1="1667.95" x2="3543.46" y2="1298.92" stroke-linecap="round" style="stroke:#1A476F;stroke-width:8.64"/>
	<line x1="3543.46" y1="1298.92" x2="3559.17" y2="1622.66" stroke-linecap="round" style="stroke:#1A476F;stroke-width:8.64"/>
	<line x1="390.80" y1="2489.19" x2="390.80" y2="100.86" style="stroke:#000000;stroke-width:5.76"/>
	<line x1="390.80" y1="2266.68" x2="350.83" y2="2266.68" style="stroke:#000000;stroke-width:5.76"/>
	<text x="300.72" y="2266.68" style="font-family:'Helvetica';font-size:99.99px;fill:#000000" transform="rotate(-90 300.72,2266.68)" text-anchor="middle">-.02</text>
	<line x1="390.80" y1="1565.86" x2="350.83" y2="1565.86" style="stroke:#000000;stroke-width:5.76"/>
	<text x="300.72" y="1565.86" style="font-family:'Helvetica';font-size:99.99px;fill:#000000" transform="rotate(-90 300.72,1565.86)" text-anchor="middle">0</text>
	<line x1="390.80" y1="865.04" x2="350.83" y2="865.04" style="stroke:#000000;stroke-width:5.76"/>
	<text x="300.72" y="865.04" style="font-family:'Helvetica';font-size:99.99px;fill:#000000" transform="rotate(-90 300.72,865.04)" text-anchor="middle">.02</text>
	<line x1="390.80" y1="164.22" x2="350.83" y2="164.22" style="stroke:#000000;stroke-width:5.76"/>
	<text x="300.72" y="164.22" style="font-family:'Helvetica';font-size:99.99px;fill:#000000" transform="rotate(-90 300.72,164.22)" text-anchor="middle">.04</text>
	<text x="190.71" y="1294.96" style="font-family:'Helvetica';font-size:99.99px;fill:#000000" transform="rotate(-90 190.71,1294.96)" text-anchor="middle">residual, one-step</text>
	<line x1="390.80" y1="2489.19" x2="3859.02" y2="2489.19" style="stroke:#000000;stroke-width:5.76"/>
	<line x1="643.25" y1="2489.19" x2="643.25" y2="2529.16" style="stroke:#000000;stroke-width:5.76"/>
	<text x="643.25" y="2619.14" style="font-family:'Helvetica';font-size:99.99px;fill:#000000" text-anchor="middle">1960q1</text>
	<line x1="1273.76" y1="2489.19" x2="1273.76" y2="2529.16" style="stroke:#000000;stroke-width:5.76"/>
	<text x="1273.76" y="2619.14" style="font-family:'Helvetica';font-size:99.99px;fill:#000000" text-anchor="middle">1970q1</text>
	<line x1="1904.27" y1="2489.19" x2="1904.27" y2="2529.16" style="stroke:#000000;stroke-width:5.76"/>
	<text x="1904.27" y="2619.14" style="font-family:'Helvetica';font-size:99.99px;fill:#000000" text-anchor="middle">1980q1</text>
	<line x1="2534.77" y1="2489.19" x2="2534.77" y2="2529.16" style="stroke:#000000;stroke-width:5.76"/>
	<text x="2534.77" y="2619.14" style="font-family:'Helvetica';font-size:99.99px;fill:#000000" text-anchor="middle">1990q1</text>
	<line x1="3165.28" y1="2489.19" x2="3165.28" y2="2529.16" style="stroke:#000000;stroke-width:5.76"/>
	<text x="3165.28" y="2619.14" style="font-family:'Helvetica';font-size:99.99px;fill:#000000" text-anchor="middle">2000q1</text>
	<line x1="3795.66" y1="2489.19" x2="3795.66" y2="2529.16" style="stroke:#000000;stroke-width:5.76"/>
	<text x="3795.66" y="2619.14" style="font-family:'Helvetica';font-size:99.99px;fill:#000000" text-anchor="middle">2010q1</text>
	<text x="2124.91" y="2729.16" style="font-family:'Helvetica';font-size:99.99px;fill:#000000" text-anchor="middle">time_2</text>
</svg>
