<?xml version="1.0" encoding="UTF-8" standalone="no"?>
<!-- This is a Stata 15.0 generated SVG file (http://www.stata.com) -->

<svg version="1.1" width="5.50in" height="4.00in" viewBox="0 0 3960 2880" xmlns="http://www.w3.org/2000/svg" xmlns:xlink="http://www.w3.org/1999/xlink">
	<desc>Stata Graph - Graph</desc>
	<rect x="0" y="0" width="3960" height="2880" style="fill:#EAF2F3;stroke:none"/>
	<rect x="0.00" y="0.00" width="3959.88" height="2880.00" style="fill:#EAF2F3"/>
	<rect x="2.88" y="2.88" width="3954.12" height="2874.24" style="fill:none;stroke:#EAF2F3;stroke-width:5.76"/>
	<rect x="390.80" y="100.86" width="3468.22" height="2388.33" style="fill:#FFFFFF"/>
	<rect x="393.68" y="103.74" width="3462.46" height="2382.57" style="fill:none;stroke:#FFFFFF;stroke-width:5.76"/>
	<line x1="390.80" y1="1860.39" x2="3859.02" y2="1860.39" style="stroke:#EAF2F3;stroke-width:8.64"/>
	<line x1="390.80" y1="1294.96" x2="3859.02" y2="1294.96" style="stroke:#EAF2F3;stroke-width:8.64"/>
	<line x1="390.80" y1="729.53" x2="3859.02" y2="729.53" style="stroke:#EAF2F3;stroke-width:8.64"/>
	<line x1="390.80" y1="164.22" x2="3859.02" y2="164.22" style="stroke:#EAF2F3;stroke-width:8.64"/>
	<line x1="469.88" y1="1650.88" x2="485.60" y2="1198.18" stroke-linecap="round" style="stroke:#1A476F;stroke-width:8.64"/>
	<line x1="485.60" y1="1198.18" x2="501.31" y2="2017.44" stroke-linecap="round" style="stroke:#1A476F;stroke-width:8.64"/>
	<line x1="501.31" y1="2017.44" x2="517.15" y2="1956.55" stroke-linecap="round" style="stroke:#1A476F;stroke-width:8.64"/>
	<line x1="517.15" y1="1956.55" x2="532.87" y2="1106.85" stroke-linecap="round" style="stroke:#1A476F;stroke-width:8.64"/>
	<line x1="532.87" y1="1106.85" x2="548.71" y2="777.67" stroke-linecap="round" style="stroke:#1A476F;stroke-width:8.64"/>
	<line x1="548.71" y1="777.67" x2="564.42" y2="974.44" stroke-linecap="round" style="stroke:#1A476F;stroke-width:8.64"/>
	<line x1="564.42" y1="974.44" x2="580.14" y2="1221.70" stroke-linecap="round" style="stroke:#1A476F;stroke-width:8.64"/>
	<line x1="580.14" y1="1221.70" x2="595.98" y2="1135.19" stroke-linecap="round" style="stroke:#1A476F;stroke-width:8.64"/>
	<line x1="595.98" y1="1135.19" x2="611.70" y2="1884.28" stroke-linecap="round" style="stroke:#1A476F;stroke-width:8.64"/>
	<line x1="611.70" y1="1884.28" x2="627.41" y2="1481.33" stroke-linecap="round" style="stroke:#1A476F;stroke-width:8.64"/>
	<line x1="627.41" y1="1481.33" x2="643.25" y2="919.61" stroke-linecap="round" style="stroke:#1A476F;stroke-width:8.64"/>
	<line x1="643.25" y1="919.61" x2="658.97" y2="1889.23" stroke-linecap="round" style="stroke:#1A476F;stroke-width:8.64"/>
	<line x1="658.97" y1="1889.23" x2="674.81" y2="1403.12" stroke-linecap="round" style="stroke:#1A476F;stroke-width:8.64"/>
	<line x1="674.81" y1="1403.12" x2="690.52" y2="1886.75" stroke-linecap="round" style="stroke:#1A476F;stroke-width:8.64"/>
	<line x1="690.52" y1="1886.75" x2="706.24" y2="1290.75" stroke-linecap="round" style="stroke:#1A476F;stroke-width:8.64"/>
	<line x1="706.24" y1="1290.75" x2="722.08" y2="957.73" stroke-linecap="round" style="stroke:#1A476F;stroke-width:8.64"/>
	<line x1="722.08" y1="957.73" x2="737.80" y2="1212.54" stroke-linecap="round" style="stroke:#1A476F;stroke-width:8.64"/>
	<line x1="737.80" y1="1212.54" x2="753.51" y2="1060.69" stroke-linecap="round" style="stroke:#1A476F;stroke-width:8.64"/>
	<line x1="753.51" y1="1060.69" x2="769.35" y2="1170.59" stroke-linecap="round" style="stroke:#1A476F;stroke-width:8.64"/>
	<line x1="769.35" y1="1170.59" x2="785.07" y2="1541.35" stroke-linecap="round" style="stroke:#1A476F;stroke-width:8.64"/>
	<line x1="785.07" y1="1541.35" x2="800.79" y2="1436.16" stroke-linecap="round" style="stroke:#1A476F;stroke-width:8.64"/>
	<line x1="800.79" y1="1436.16" x2="816.63" y2="1587.02" stroke-linecap="round" style="stroke:#1A476F;stroke-width:8.64"/>
	<line x1="816.63" y1="1587.02" x2="832.34" y2="1236.42" stroke-linecap="round" style="stroke:#1A476F;stroke-width:8.64"/>
	<line x1="832.34" y1="1236.42" x2="848.18" y2="1287.54" stroke-linecap="round" style="stroke:#1A476F;stroke-width:8.64"/>
	<line x1="848.18" y1="1287.54" x2="863.90" y2="1140.76" stroke-linecap="round" style="stroke:#1A476F;stroke-width:8.64"/>
	<line x1="863.90" y1="1140.76" x2="879.62" y2="1333.94" stroke-linecap="round" style="stroke:#1A476F;stroke-width:8.64"/>
	<line x1="879.62" y1="1333.94" x2="895.46" y2="1062.06" stroke-linecap="round" style="stroke:#1A476F;stroke-width:8.64"/>
	<line x1="895.46" y1="1062.06" x2="911.17" y2="1450.64" stroke-linecap="round" style="stroke:#1A476F;stroke-width:8.64"/>
	<line x1="911.17" y1="1450.64" x2="926.89" y2="1287.04" stroke-linecap="round" style="stroke:#1A476F;stroke-width:8.64"/>
	<line x1="926.89" y1="1287.04" x2="942.73" y2="1560.04" stroke-linecap="round" style="stroke:#1A476F;stroke-width:8.64"/>
	<line x1="942.73" y1="1560.04" x2="958.44" y2="884.96" stroke-linecap="round" style="stroke:#1A476F;stroke-width:8.64"/>
	<line x1="958.44" y1="884.96" x2="974.28" y2="1348.79" stroke-linecap="round" style="stroke:#1A476F;stroke-width:8.64"/>
	<line x1="974.28" y1="1348.79" x2="990.00" y2="1132.47" stroke-linecap="round" style="stroke:#1A476F;stroke-width:8.64"/>
	<line x1="990.00" y1="1132.47" x2="1005.72" y2="962.19" stroke-linecap="round" style="stroke:#1A476F;stroke-width:8.64"/>
	<line x1="1005.72" y1="962.19" x2="1021.56" y2="1095.72" stroke-linecap="round" style="stroke:#1A476F;stroke-width:8.64"/>
	<line x1="1021.56" y1="1095.72" x2="1037.27" y2="1604.47" stroke-linecap="round" style="stroke:#1A476F;stroke-width:8.64"/>
	<line x1="1037.27" y1="1604.47" x2="1052.99" y2="1305.11" stroke-linecap="round" style="stroke:#1A476F;stroke-width:8.64"/>
	<line x1="1052.99" y1="1305.11" x2="1068.83" y2="1328.25" stroke-linecap="round" style="stroke:#1A476F;stroke-width:8.64"/>
	<line x1="1068.83" y1="1328.25" x2="1084.55" y2="1422.30" stroke-linecap="round" style="stroke:#1A476F;stroke-width:8.64"/>
	<line x1="1084.55" y1="1422.30" x2="1100.38" y2="1548.41" stroke-linecap="round" style="stroke:#1A476F;stroke-width:8.64"/>
	<line x1="1100.38" y1="1548.41" x2="1116.10" y2="1160.94" stroke-linecap="round" style="stroke:#1A476F;stroke-width:8.64"/>
	<line x1="1116.10" y1="1160.94" x2="1131.82" y2="1219.35" stroke-linecap="round" style="stroke:#1A476F;stroke-width:8.64"/>
	<line x1="1131.82" y1="1219.35" x2="1147.66" y2="883.85" stroke-linecap="round" style="stroke:#1A476F;stroke-width:8.64"/>
	<line x1="1147.66" y1="883.85" x2="1163.37" y2="1111.80" stroke-linecap="round" style="stroke:#1A476F;stroke-width:8.64"/>
	<line x1="1163.37" y1="1111.80" x2="1179.09" y2="1451.01" stroke-linecap="round" style="stroke:#1A476F;stroke-width:8.64"/>
	<line x1="1179.09" y1="1451.01" x2="1194.93" y2="1302.14" stroke-linecap="round" style="stroke:#1A476F;stroke-width:8.64"/>
	<line x1="1194.93" y1="1302.14" x2="1210.65" y2="1104.50" stroke-linecap="round" style="stroke:#1A476F;stroke-width:8.64"/>
	<line x1="1210.65" y1="1104.50" x2="1226.36" y2="1438.14" stroke-linecap="round" style="stroke:#1A476F;stroke-width:8.64"/>
	<line x1="1226.36" y1="1438.14" x2="1242.20" y2="1192.62" stroke-linecap="round" style="stroke:#1A476F;stroke-width:8.64"/>
	<line x1="1242.20" y1="1192.62" x2="1257.92" y2="1581.45" stroke-linecap="round" style="stroke:#1A476F;stroke-width:8.64"/>
	<line x1="1257.92" y1="1581.45" x2="1273.76" y2="1367.98" stroke-linecap="round" style="stroke:#1A476F;stroke-width:8.64"/>
	<line x1="1273.76" y1="1367.98" x2="1289.47" y2="1259.32" stroke-linecap="round" style="stroke:#1A476F;stroke-width:8.64"/>
	<line x1="1289.47" y1="1259.32" x2="1305.19" y2="1280.23" stroke-linecap="round" style="stroke:#1A476F;stroke-width:8.64"/>
	<line x1="1305.19" y1="1280.23" x2="1321.03" y2="1673.89" stroke-linecap="round" style="stroke:#1A476F;stroke-width:8.64"/>
	<line x1="1321.03" y1="1673.89" x2="1336.75" y2="431.90" stroke-linecap="round" style="stroke:#1A476F;stroke-width:8.64"/>
	<line x1="1336.75" y1="431.90" x2="1352.46" y2="1443.34" stroke-linecap="round" style="stroke:#1A476F;stroke-width:8.64"/>
	<line x1="1352.46" y1="1443.34" x2="1368.30" y2="1341.37" stroke-linecap="round" style="stroke:#1A476F;stroke-width:8.64"/>
	<line x1="1368.30" y1="1341.37" x2="1384.02" y2="1455.35" stroke-linecap="round" style="stroke:#1A476F;stroke-width:8.64"/>
	<line x1="1384.02" y1="1455.35" x2="1399.86" y2="835.59" stroke-linecap="round" style="stroke:#1A476F;stroke-width:8.64"/>
	<line x1="1399.86" y1="835.59" x2="1415.58" y2="1129.38" stroke-linecap="round" style="stroke:#1A476F;stroke-width:8.64"/>
	<line x1="1415.58" y1="1129.38" x2="1431.29" y2="1367.23" stroke-linecap="round" style="stroke:#1A476F;stroke-width:8.64"/>
	<line x1="1431.29" y1="1367.23" x2="1447.13" y2="985.82" stroke-linecap="round" style="stroke:#1A476F;stroke-width:8.64"/>
	<line x1="1447.13" y1="985.82" x2="1462.85" y2="911.45" stroke-linecap="round" style="stroke:#1A476F;stroke-width:8.64"/>
	<line x1="1462.85" y1="911.45" x2="1478.57" y2="1255.36" stroke-linecap="round" style="stroke:#1A476F;stroke-width:8.64"/>
	<line x1="1478.57" y1="1255.36" x2="1494.40" y2="1525.89" stroke-linecap="round" style="stroke:#1A476F;stroke-width:8.64"/>
	<line x1="1494.40" y1="1525.89" x2="1510.12" y2="1000.30" stroke-linecap="round" style="stroke:#1A476F;stroke-width:8.64"/>
	<line x1="1510.12" y1="1000.30" x2="1525.96" y2="1644.94" stroke-linecap="round" style="stroke:#1A476F;stroke-width:8.64"/>
	<line x1="1525.96" y1="1644.94" x2="1541.68" y2="1010.08" stroke-linecap="round" style="stroke:#1A476F;stroke-width:8.64"/>
	<line x1="1541.68" y1="1010.08" x2="1557.39" y2="1281.10" stroke-linecap="round" style="stroke:#1A476F;stroke-width:8.64"/>
	<line x1="1557.39" y1="1281.10" x2="1573.23" y2="1126.90" stroke-linecap="round" style="stroke:#1A476F;stroke-width:8.64"/>
	<line x1="1573.23" y1="1126.90" x2="1588.95" y2="1527.37" stroke-linecap="round" style="stroke:#1A476F;stroke-width:8.64"/>
	<line x1="1588.95" y1="1527.37" x2="1604.67" y2="1138.41" stroke-linecap="round" style="stroke:#1A476F;stroke-width:8.64"/>
	<line x1="1604.67" y1="1138.41" x2="1620.51" y2="822.72" stroke-linecap="round" style="stroke:#1A476F;stroke-width:8.64"/>
	<line x1="1620.51" y1="822.72" x2="1636.22" y2="1111.56" stroke-linecap="round" style="stroke:#1A476F;stroke-width:8.64"/>
	<line x1="1636.22" y1="1111.56" x2="1652.06" y2="984.59" stroke-linecap="round" style="stroke:#1A476F;stroke-width:8.64"/>
	<line x1="1652.06" y1="984.59" x2="1667.78" y2="1481.58" stroke-linecap="round" style="stroke:#1A476F;stroke-width:8.64"/>
	<line x1="1667.78" y1="1481.58" x2="1683.49" y2="1373.79" stroke-linecap="round" style="stroke:#1A476F;stroke-width:8.64"/>
	<line x1="1683.49" y1="1373.79" x2="1699.34" y2="1111.93" stroke-linecap="round" style="stroke:#1A476F;stroke-width:8.64"/>
	<line x1="1699.34" y1="1111.93" x2="1715.05" y2="1095.72" stroke-linecap="round" style="stroke:#1A476F;stroke-width:8.64"/>
	<line x1="1715.05" y1="1095.72" x2="1730.77" y2="926.67" stroke-linecap="round" style="stroke:#1A476F;stroke-width:8.64"/>
	<line x1="1730.77" y1="926.67" x2="1746.61" y2="1114.03" stroke-linecap="round" style="stroke:#1A476F;stroke-width:8.64"/>
	<line x1="1746.61" y1="1114.03" x2="1762.32" y2="1361.66" stroke-linecap="round" style="stroke:#1A476F;stroke-width:8.64"/>
	<line x1="1762.32" y1="1361.66" x2="1778.04" y2="1376.64" stroke-linecap="round" style="stroke:#1A476F;stroke-width:8.64"/>
	<line x1="1778.04" y1="1376.64" x2="1793.88" y2="244.54" stroke-linecap="round" style="stroke:#1A476F;stroke-width:8.64"/>
	<line x1="1793.88" y1="244.54" x2="1809.60" y2="1430.97" stroke-linecap="round" style="stroke:#1A476F;stroke-width:8.64"/>
	<line x1="1809.60" y1="1430.97" x2="1825.44" y2="998.20" stroke-linecap="round" style="stroke:#1A476F;stroke-width:8.64"/>
	<line x1="1825.44" y1="998.20" x2="1841.15" y2="1428.24" stroke-linecap="round" style="stroke:#1A476F;stroke-width:8.64"/>
	<line x1="1841.15" y1="1428.24" x2="1856.87" y2="1255.36" stroke-linecap="round" style="stroke:#1A476F;stroke-width:8.64"/>
	<line x1="1856.87" y1="1255.36" x2="1872.71" y2="1054.01" stroke-linecap="round" style="stroke:#1A476F;stroke-width:8.64"/>
	<line x1="1872.71" y1="1054.01" x2="1888.42" y2="1299.54" stroke-linecap="round" style="stroke:#1A476F;stroke-width:8.64"/>
	<line x1="1888.42" y1="1299.54" x2="1904.14" y2="1170.84" stroke-linecap="round" style="stroke:#1A476F;stroke-width:8.64"/>
	<line x1="1904.14" y1="1170.84" x2="1919.98" y2="1828.71" stroke-linecap="round" style="stroke:#1A476F;stroke-width:8.64"/>
	<line x1="1919.98" y1="1828.71" x2="1935.70" y2="1094.85" stroke-linecap="round" style="stroke:#1A476F;stroke-width:8.64"/>
	<line x1="1935.70" y1="1094.85" x2="1951.54" y2="484.37" stroke-linecap="round" style="stroke:#1A476F;stroke-width:8.64"/>
	<line x1="1951.54" y1="484.37" x2="1967.25" y2="769.25" stroke-linecap="round" style="stroke:#1A476F;stroke-width:8.64"/>
	<line x1="1967.25" y1="769.25" x2="1982.97" y2="1750.00" stroke-linecap="round" style="stroke:#1A476F;stroke-width:8.64"/>
	<line x1="1982.97" y1="1750.00" x2="1998.81" y2="996.22" stroke-linecap="round" style="stroke:#1A476F;stroke-width:8.64"/>
	<line x1="1998.81" y1="996.22" x2="2014.53" y2="1834.28" stroke-linecap="round" style="stroke:#1A476F;stroke-width:8.64"/>
	<line x1="2014.53" y1="1834.28" x2="2030.24" y2="1846.66" stroke-linecap="round" style="stroke:#1A476F;stroke-width:8.64"/>
	<line x1="2030.24" y1="1846.66" x2="2046.08" y2="1027.78" stroke-linecap="round" style="stroke:#1A476F;stroke-width:8.64"/>
	<line x1="2046.08" y1="1027.78" x2="2061.80" y2="1463.39" stroke-linecap="round" style="stroke:#1A476F;stroke-width:8.64"/>
	<line x1="2061.80" y1="1463.39" x2="2077.64" y2="1310.68" stroke-linecap="round" style="stroke:#1A476F;stroke-width:8.64"/>
	<line x1="2077.64" y1="1310.68" x2="2093.36" y2="1064.28" stroke-linecap="round" style="stroke:#1A476F;stroke-width:8.64"/>
	<line x1="2093.36" y1="1064.28" x2="2109.07" y2="982.98" stroke-linecap="round" style="stroke:#1A476F;stroke-width:8.64"/>
	<line x1="2109.07" y1="982.98" x2="2124.91" y2="1034.71" stroke-linecap="round" style="stroke:#1A476F;stroke-width:8.64"/>
	<line x1="2124.91" y1="1034.71" x2="2140.63" y2="1139.53" stroke-linecap="round" style="stroke:#1A476F;stroke-width:8.64"/>
	<line x1="2140.63" y1="1139.53" x2="2156.34" y2="1043.86" stroke-linecap="round" style="stroke:#1A476F;stroke-width:8.64"/>
	<line x1="2156.34" y1="1043.86" x2="2172.18" y2="1260.80" stroke-linecap="round" style="stroke:#1A476F;stroke-width:8.64"/>
	<line x1="2172.18" y1="1260.80" x2="2187.90" y2="1434.18" stroke-linecap="round" style="stroke:#1A476F;stroke-width:8.64"/>
	<line x1="2187.90" y1="1434.18" x2="2203.74" y2="1424.16" stroke-linecap="round" style="stroke:#1A476F;stroke-width:8.64"/>
	<line x1="2203.74" y1="1424.16" x2="2219.46" y2="1214.03" stroke-linecap="round" style="stroke:#1A476F;stroke-width:8.64"/>
	<line x1="2219.46" y1="1214.03" x2="2235.17" y2="1405.72" stroke-linecap="round" style="stroke:#1A476F;stroke-width:8.64"/>
	<line x1="2235.17" y1="1405.72" x2="2251.01" y2="1186.06" stroke-linecap="round" style="stroke:#1A476F;stroke-width:8.64"/>
	<line x1="2251.01" y1="1186.06" x2="2266.73" y2="1381.71" stroke-linecap="round" style="stroke:#1A476F;stroke-width:8.64"/>
	<line x1="2266.73" y1="1381.71" x2="2282.45" y2="1347.93" stroke-linecap="round" style="stroke:#1A476F;stroke-width:8.64"/>
	<line x1="2282.45" y1="1347.93" x2="2298.28" y2="1477.62" stroke-linecap="round" style="stroke:#1A476F;stroke-width:8.64"/>
	<line x1="2298.28" y1="1477.62" x2="2314.00" y2="1273.30" stroke-linecap="round" style="stroke:#1A476F;stroke-width:8.64"/>
	<line x1="2314.00" y1="1273.30" x2="2329.72" y2="1400.40" stroke-linecap="round" style="stroke:#1A476F;stroke-width:8.64"/>
	<line x1="2329.72" y1="1400.40" x2="2345.56" y2="1289.76" stroke-linecap="round" style="stroke:#1A476F;stroke-width:8.64"/>
	<line x1="2345.56" y1="1289.76" x2="2361.27" y2="1254.12" stroke-linecap="round" style="stroke:#1A476F;stroke-width:8.64"/>
	<line x1="2361.27" y1="1254.12" x2="2377.11" y2="1295.95" stroke-linecap="round" style="stroke:#1A476F;stroke-width:8.64"/>
	<line x1="2377.11" y1="1295.95" x2="2392.83" y2="1059.70" stroke-linecap="round" style="stroke:#1A476F;stroke-width:8.64"/>
	<line x1="2392.83" y1="1059.70" x2="2408.55" y2="1465.86" stroke-linecap="round" style="stroke:#1A476F;stroke-width:8.64"/>
	<line x1="2408.55" y1="1465.86" x2="2424.39" y2="1137.92" stroke-linecap="round" style="stroke:#1A476F;stroke-width:8.64"/>
	<line x1="2424.39" y1="1137.92" x2="2440.10" y2="1354.24" stroke-linecap="round" style="stroke:#1A476F;stroke-width:8.64"/>
	<line x1="2440.10" y1="1354.24" x2="2455.82" y2="1225.16" stroke-linecap="round" style="stroke:#1A476F;stroke-width:8.64"/>
	<line x1="2455.82" y1="1225.16" x2="2471.66" y2="1187.67" stroke-linecap="round" style="stroke:#1A476F;stroke-width:8.64"/>
	<line x1="2471.66" y1="1187.67" x2="2487.38" y2="1387.78" stroke-linecap="round" style="stroke:#1A476F;stroke-width:8.64"/>
	<line x1="2487.38" y1="1387.78" x2="2503.22" y2="1373.42" stroke-linecap="round" style="stroke:#1A476F;stroke-width:8.64"/>
	<line x1="2503.22" y1="1373.42" x2="2518.93" y2="1491.11" stroke-linecap="round" style="stroke:#1A476F;stroke-width:8.64"/>
	<line x1="2518.93" y1="1491.11" x2="2534.65" y2="1048.32" stroke-linecap="round" style="stroke:#1A476F;stroke-width:8.64"/>
	<line x1="2534.65" y1="1048.32" x2="2550.49" y2="1403.25" stroke-linecap="round" style="stroke:#1A476F;stroke-width:8.64"/>
	<line x1="2550.49" y1="1403.25" x2="2566.20" y2="1499.03" stroke-linecap="round" style="stroke:#1A476F;stroke-width:8.64"/>
	<line x1="2566.20" y1="1499.03" x2="2581.92" y2="1676.25" stroke-linecap="round" style="stroke:#1A476F;stroke-width:8.64"/>
	<line x1="2581.92" y1="1676.25" x2="2597.76" y2="1431.83" stroke-linecap="round" style="stroke:#1A476F;stroke-width:8.64"/>
	<line x1="2597.76" y1="1431.83" x2="2613.48" y2="1252.64" stroke-linecap="round" style="stroke:#1A476F;stroke-width:8.64"/>
	<line x1="2613.48" y1="1252.64" x2="2629.32" y2="1337.53" stroke-linecap="round" style="stroke:#1A476F;stroke-width:8.64"/>
	<line x1="2629.32" y1="1337.53" x2="2645.03" y2="1382.95" stroke-linecap="round" style="stroke:#1A476F;stroke-width:8.64"/>
	<line x1="2645.03" y1="1382.95" x2="2660.75" y2="1213.41" stroke-linecap="round" style="stroke:#1A476F;stroke-width:8.64"/>
	<line x1="2660.75" y1="1213.41" x2="2676.59" y2="1323.80" stroke-linecap="round" style="stroke:#1A476F;stroke-width:8.64"/>
	<line x1="2676.59" y1="1323.80" x2="2692.30" y2="1340.38" stroke-linecap="round" style="stroke:#1A476F;stroke-width:8.64"/>
	<line x1="2692.30" y1="1340.38" x2="2708.02" y2="1276.27" stroke-linecap="round" style="stroke:#1A476F;stroke-width:8.64"/>
	<line x1="2708.02" y1="1276.27" x2="2723.86" y2="1513.26" stroke-linecap="round" style="stroke:#1A476F;stroke-width:8.64"/>
	<line x1="2723.86" y1="1513.26" x2="2739.58" y2="1393.96" stroke-linecap="round" style="stroke:#1A476F;stroke-width:8.64"/>
	<line x1="2739.58" y1="1393.96" x2="2755.29" y2="1421.93" stroke-linecap="round" style="stroke:#1A476F;stroke-width:8.64"/>
	<line x1="2755.29" y1="1421.93" x2="2771.13" y2="1156.48" stroke-linecap="round" style="stroke:#1A476F;stroke-width:8.64"/>
	<line x1="2771.13" y1="1156.48" x2="2786.85" y2="1283.33" stroke-linecap="round" style="stroke:#1A476F;stroke-width:8.64"/>
	<line x1="2786.85" y1="1283.33" x2="2802.69" y2="1268.23" stroke-linecap="round" style="stroke:#1A476F;stroke-width:8.64"/>
	<line x1="2802.69" y1="1268.23" x2="2818.41" y2="1421.68" stroke-linecap="round" style="stroke:#1A476F;stroke-width:8.64"/>
	<line x1="2818.41" y1="1421.68" x2="2834.12" y2="1281.22" stroke-linecap="round" style="stroke:#1A476F;stroke-width:8.64"/>
	<line x1="2834.12" y1="1281.22" x2="2849.96" y2="1499.53" stroke-linecap="round" style="stroke:#1A476F;stroke-width:8.64"/>
	<line x1="2849.96" y1="1499.53" x2="2865.68" y2="1546.80" stroke-linecap="round" style="stroke:#1A476F;stroke-width:8.64"/>
	<line x1="2865.68" y1="1546.80" x2="2881.39" y2="1269.71" stroke-linecap="round" style="stroke:#1A476F;stroke-width:8.64"/>
	<line x1="2881.39" y1="1269.71" x2="2897.24" y2="1359.31" stroke-linecap="round" style="stroke:#1A476F;stroke-width:8.64"/>
	<line x1="2897.24" y1="1359.31" x2="2912.95" y2="1306.59" stroke-linecap="round" style="stroke:#1A476F;stroke-width:8.64"/>
	<line x1="2912.95" y1="1306.59" x2="2928.79" y2="1135.57" stroke-linecap="round" style="stroke:#1A476F;stroke-width:8.64"/>
	<line x1="2928.79" y1="1135.57" x2="2944.51" y2="1465.37" stroke-linecap="round" style="stroke:#1A476F;stroke-width:8.64"/>
	<line x1="2944.51" y1="1465.37" x2="2960.22" y2="1241.38" stroke-linecap="round" style="stroke:#1A476F;stroke-width:8.64"/>
	<line x1="2960.22" y1="1241.38" x2="2976.06" y2="1361.42" stroke-linecap="round" style="stroke:#1A476F;stroke-width:8.64"/>
	<line x1="2976.06" y1="1361.42" x2="2991.78" y2="1289.27" stroke-linecap="round" style="stroke:#1A476F;stroke-width:8.64"/>
	<line x1="2991.78" y1="1289.27" x2="3007.50" y2="1297.68" stroke-linecap="round" style="stroke:#1A476F;stroke-width:8.64"/>
	<line x1="3007.50" y1="1297.68" x2="3023.34" y2="1466.85" stroke-linecap="round" style="stroke:#1A476F;stroke-width:8.64"/>
	<line x1="3023.34" y1="1466.85" x2="3039.05" y2="1321.32" stroke-linecap="round" style="stroke:#1A476F;stroke-width:8.64"/>
	<line x1="3039.05" y1="1321.32" x2="3054.89" y2="1492.22" stroke-linecap="round" style="stroke:#1A476F;stroke-width:8.64"/>
	<line x1="3054.89" y1="1492.22" x2="3070.61" y2="1253.01" stroke-linecap="round" style="stroke:#1A476F;stroke-width:8.64"/>
	<line x1="3070.61" y1="1253.01" x2="3086.32" y2="1188.16" stroke-linecap="round" style="stroke:#1A476F;stroke-width:8.64"/>
	<line x1="3086.32" y1="1188.16" x2="3102.16" y2="1419.83" stroke-linecap="round" style="stroke:#1A476F;stroke-width:8.64"/>
	<line x1="3102.16" y1="1419.83" x2="3117.88" y2="1378.87" stroke-linecap="round" style="stroke:#1A476F;stroke-width:8.64"/>
	<line x1="3117.88" y1="1378.87" x2="3133.60" y2="1293.23" stroke-linecap="round" style="stroke:#1A476F;stroke-width:8.64"/>
	<line x1="3133.60" y1="1293.23" x2="3149.44" y2="1133.59" stroke-linecap="round" style="stroke:#1A476F;stroke-width:8.64"/>
	<line x1="3149.44" y1="1133.59" x2="3165.15" y2="1472.42" stroke-linecap="round" style="stroke:#1A476F;stroke-width:8.64"/>
	<line x1="3165.15" y1="1472.42" x2="3180.99" y2="1162.17" stroke-linecap="round" style="stroke:#1A476F;stroke-width:8.64"/>
	<line x1="3180.99" y1="1162.17" x2="3196.71" y2="1677.48" stroke-linecap="round" style="stroke:#1A476F;stroke-width:8.64"/>
	<line x1="3196.71" y1="1677.48" x2="3212.43" y2="1414.88" stroke-linecap="round" style="stroke:#1A476F;stroke-width:8.64"/>
	<line x1="3212.43" y1="1414.88" x2="3228.27" y2="1458.56" stroke-linecap="round" style="stroke:#1A476F;stroke-width:8.64"/>
	<line x1="3228.27" y1="1458.56" x2="3243.98" y2="1364.14" stroke-linecap="round" style="stroke:#1A476F;stroke-width:8.64"/>
	<line x1="3243.98" y1="1364.14" x2="3259.70" y2="1622.29" stroke-linecap="round" style="stroke:#1A476F;stroke-width:8.64"/>
	<line x1="3259.70" y1="1622.29" x2="3275.54" y2="1330.11" stroke-linecap="round" style="stroke:#1A476F;stroke-width:8.64"/>
	<line x1="3275.54" y1="1330.11" x2="3291.26" y2="1338.27" stroke-linecap="round" style="stroke:#1A476F;stroke-width:8.64"/>
	<line x1="3291.26" y1="1338.27" x2="3306.97" y2="1417.35" stroke-linecap="round" style="stroke:#1A476F;stroke-width:8.64"/>
	<line x1="3306.97" y1="1417.35" x2="3322.81" y2="1365.87" stroke-linecap="round" style="stroke:#1A476F;stroke-width:8.64"/>
	<line x1="3322.81" y1="1365.87" x2="3338.53" y2="1503.73" stroke-linecap="round" style="stroke:#1A476F;stroke-width:8.64"/>
	<line x1="3338.53" y1="1503.73" x2="3354.37" y2="1337.28" stroke-linecap="round" style="stroke:#1A476F;stroke-width:8.64"/>
	<line x1="3354.37" y1="1337.28" x2="3370.08" y2="1336.29" stroke-linecap="round" style="stroke:#1A476F;stroke-width:8.64"/>
	<line x1="3370.08" y1="1336.29" x2="3385.80" y2="1035.82" stroke-linecap="round" style="stroke:#1A476F;stroke-width:8.64"/>
	<line x1="3385.80" y1="1035.82" x2="3401.64" y2="1450.52" stroke-linecap="round" style="stroke:#1A476F;stroke-width:8.64"/>
	<line x1="3401.64" y1="1450.52" x2="3417.36" y2="1205.98" stroke-linecap="round" style="stroke:#1A476F;stroke-width:8.64"/>
	<line x1="3417.36" y1="1205.98" x2="3433.07" y2="1240.63" stroke-linecap="round" style="stroke:#1A476F;stroke-width:8.64"/>
	<line x1="3433.07" y1="1240.63" x2="3448.91" y2="1460.67" stroke-linecap="round" style="stroke:#1A476F;stroke-width:8.64"/>
	<line x1="3448.91" y1="1460.67" x2="3464.63" y2="1317.73" stroke-linecap="round" style="stroke:#1A476F;stroke-width:8.64"/>
	<line x1="3464.63" y1="1317.73" x2="3480.47" y2="1275.78" stroke-linecap="round" style="stroke:#1A476F;stroke-width:8.64"/>
	<line x1="3480.47" y1="1275.78" x2="3496.18" y2="1370.95" stroke-linecap="round" style="stroke:#1A476F;stroke-width:8.64"/>
	<line x1="3496.18" y1="1370.95" x2="3511.90" y2="1210.81" stroke-linecap="round" style="stroke:#1A476F;stroke-width:8.64"/>
	<line x1="3511.90" y1="1210.81" x2="3527.74" y2="1424.90" stroke-linecap="round" style="stroke:#1A476F;stroke-width:8.64"/>
	<line x1="3527.74" y1="1424.90" x2="3543.46" y2="1124.68" stroke-linecap="round" style="stroke:#1A476F;stroke-width:8.64"/>
	<line x1="3543.46" y1="1124.68" x2="3559.17" y2="1390.13" stroke-linecap="round" style="stroke:#1A476F;stroke-width:8.64"/>
	<line x1="390.80" y1="2489.19" x2="390.80" y2="100.86" style="stroke:#000000;stroke-width:5.76"/>
	<line x1="390.80" y1="2425.82" x2="350.83" y2="2425.82" style="stroke:#000000;stroke-width:5.76"/>
	<text x="300.72" y="2425.82" style="font-family:'Helvetica';font-size:99.99px;fill:#000000" transform="rotate(-90 300.72,2425.82)" text-anchor="middle">-.04</text>
	<line x1="390.80" y1="1860.39" x2="350.83" y2="1860.39" style="stroke:#000000;stroke-width:5.76"/>
	<text x="300.72" y="1860.39" style="font-family:'Helvetica';font-size:99.99px;fill:#000000" transform="rotate(-90 300.72,1860.39)" text-anchor="middle">-.02</text>
	<line x1="390.80" y1="1294.96" x2="350.83" y2="1294.96" style="stroke:#000000;stroke-width:5.76"/>
	<text x="300.72" y="1294.96" style="font-family:'Helvetica';font-size:99.99px;fill:#000000" transform="rotate(-90 300.72,1294.96)" text-anchor="middle">0</text>
	<line x1="390.80" y1="729.53" x2="350.83" y2="729.53" style="stroke:#000000;stroke-width:5.76"/>
	<text x="300.72" y="729.53" style="font-family:'Helvetica';font-size:99.99px;fill:#000000" transform="rotate(-90 300.72,729.53)" text-anchor="middle">.02</text>
	<line x1="390.80" y1="164.22" x2="350.83" y2="164.22" style="stroke:#000000;stroke-width:5.76"/>
	<text x="300.72" y="164.22" style="font-family:'Helvetica';font-size:99.99px;fill:#000000" transform="rotate(-90 300.72,164.22)" text-anchor="middle">.04</text>
	<text x="190.71" y="1294.96" style="font-family:'Helvetica';font-size:99.99px;fill:#000000" transform="rotate(-90 190.71,1294.96)" text-anchor="middle">residual, one-step</text>
	<line x1="390.80" y1="2489.19" x2="3859.02" y2="2489.19" style="stroke:#000000;stroke-width:5.76"/>
	<line x1="643.25" y1="2489.19" x2="643.25" y2="2529.16" style="stroke:#000000;stroke-width:5.76"/>
	<text x="643.25" y="2619.14" style="font-family:'Helvetica';font-size:99.99px;fill:#000000" text-anchor="middle">1960q1</text>
	<line x1="1273.76" y1="2489.19" x2="1273.76" y2="2529.16" style="stroke:#000000;stroke-width:5.76"/>
	<text x="1273.76" y="2619.14" style="font-family:'Helvetica';font-size:99.99px;fill:#000000" text-anchor="middle">1970q1</text>
	<line x1="1904.27" y1="2489.19" x2="1904.27" y2="2529.16" style="stroke:#000000;stroke-width:5.76"/>
	<text x="1904.27" y="2619.14" style="font-family:'Helvetica';font-size:99.99px;fill:#000000" text-anchor="middle">1980q1</text>
	<line x1="2534.77" y1="2489.19" x2="2534.77" y2="2529.16" style="stroke:#000000;stroke-width:5.76"/>
	<text x="2534.77" y="2619.14" style="font-family:'Helvetica';font-size:99.99px;fill:#000000" text-anchor="middle">1990q1</text>
	<line x1="3165.28" y1="2489.19" x2="3165.28" y2="2529.16" style="stroke:#000000;stroke-width:5.76"/>
	<text x="3165.28" y="2619.14" style="font-family:'Helvetica';font-size:99.99px;fill:#000000" text-anchor="middle">2000q1</text>
	<line x1="3795.66" y1="2489.19" x2="3795.66" y2="2529.16" style="stroke:#000000;stroke-width:5.76"/>
	<text x="3795.66" y="2619.14" style="font-family:'Helvetica';font-size:99.99px;fill:#000000" text-anchor="middle">2010q1</text>
	<text x="2124.91" y="2729.16" style="font-family:'Helvetica';font-size:99.99px;fill:#000000" text-anchor="middle">time_2</text>
</svg>
