<?xml version="1.0" encoding="UTF-8" standalone="no"?>
<!-- This is a Stata 15.0 generated SVG file (http://www.stata.com) -->

<svg version="1.1" width="5.50in" height="4.00in" viewBox="0 0 3960 2880" xmlns="http://www.w3.org/2000/svg" xmlns:xlink="http://www.w3.org/1999/xlink">
	<desc>Stata Graph - Graph</desc>
	<rect x="0" y="0" width="3960" height="2880" style="fill:#EAF2F3;stroke:none"/>
	<rect x="0.00" y="0.00" width="3959.88" height="2880.00" style="fill:#EAF2F3"/>
	<rect x="2.88" y="2.88" width="3954.12" height="2874.24" style="fill:none;stroke:#EAF2F3;stroke-width:5.76"/>
	<rect x="390.80" y="100.86" width="3468.22" height="2273.85" style="fill:#FFFFFF"/>
	<rect x="393.68" y="103.74" width="3462.46" height="2268.09" style="fill:none;stroke:#FFFFFF;stroke-width:5.76"/>
	<line x1="390.80" y1="2257.39" x2="3859.02" y2="2257.39" style="stroke:#EAF2F3;stroke-width:8.64"/>
	<line x1="390.80" y1="1559.67" x2="3859.02" y2="1559.67" style="stroke:#EAF2F3;stroke-width:8.64"/>
	<line x1="390.80" y1="861.95" x2="3859.02" y2="861.95" style="stroke:#EAF2F3;stroke-width:8.64"/>
	<line x1="390.80" y1="164.22" x2="3859.02" y2="164.22" style="stroke:#EAF2F3;stroke-width:8.64"/>
	<line x1="390.80" y1="861.95" x2="3859.02" y2="861.95" style="stroke:#EAF2F3;stroke-width:8.64"/>
	<path d="
M537.69 1350.28 L537.69 1350.28 L621.23 1428.37 L704.76 1428.37 L788.29 1434.55 L871.82 1438.51 L955.35 1443.71 L1038.88 1445.07 L1122.41 1445.45 L1205.94 1453.49 L1289.47 1453.61 L1373.13 1454.85 L1456.66 1463.14 L1540.19 1469.08 L1623.72 1469.08 L1707.26 1469.45 L1790.79 1473.78 L1874.32 1481.33 L1957.85 1487.27 L2041.38 1492.72 L2124.91 1499.53 L2208.44 1506.08 L2291.97 1507.07 L2375.51 1508.68 L2459.04 1513.76 L2542.57 1513.88 L2626.22 1515.37 L2709.75 1516.60 L2793.28 1517.84 L2876.82 1518.58 L2960.35 1521.06 L3043.88 1528.86 L3127.41 1534.05 L3210.94 1534.05 L3294.47 1535.41 L3378.00 1535.66 L3461.53 1535.66 L3545.07 1535.79 L3628.60 1536.03 L3712.13 1538.14 L3795.66 1538.26 L3795.66 185.51 L3712.13 185.63 L3628.60 187.73 L3545.07 188.11 L3461.53 188.11 L3378.00 188.23 L3294.47 188.35 L3210.94 189.71 L3127.41 189.71 L3043.88 195.04 L2960.35 202.71 L2876.82 205.18 L2793.28 205.93 L2709.75 207.29 L2626.22 208.53 L2542.57 209.89 L2459.04 210.13 L2375.51 215.21 L2291.97 216.69 L2208.44 217.68 L2124.91 224.37 L2041.38 231.17 L1957.85 236.49 L1874.32 242.56 L1790.79 249.98 L1707.26 254.44 L1623.72 254.69 L1540.19 254.69 L1456.66 260.63 L1373.13 269.04 L1289.47 270.28 L1205.94 270.40 L1122.41 278.32 L1038.88 278.82 L955.35 280.18 L871.82 285.25 L788.29 289.21 L704.76 295.40 L621.23 295.40 L537.69 373.49 L537.69 1350.28 Z" stroke-linecap="round" stroke-alignment="inner" style="fill:#C0C0C0;stroke:#C0C0C0;stroke-width:8.64"/>
	<line x1="537.69" y1="861.95" x2="537.69" y2="2311.35" style="stroke:#1A476F;stroke-width:8.64"/>
	<line x1="621.23" y1="861.95" x2="621.23" y2="840.41" style="stroke:#1A476F;stroke-width:8.64"/>
	<line x1="704.76" y1="861.95" x2="704.76" y2="1285.43" style="stroke:#1A476F;stroke-width:8.64"/>
	<line x1="788.29" y1="861.95" x2="788.29" y2="519.77" style="stroke:#1A476F;stroke-width:8.64"/>
	<line x1="871.82" y1="861.95" x2="871.82" y2="1251.28" style="stroke:#1A476F;stroke-width:8.64"/>
	<line x1="955.35" y1="861.95" x2="955.35" y2="663.44" style="stroke:#1A476F;stroke-width:8.64"/>
	<line x1="1038.88" y1="861.95" x2="1038.88" y2="742.15" style="stroke:#1A476F;stroke-width:8.64"/>
	<line x1="1122.41" y1="861.95" x2="1122.41" y2="1350.40" style="stroke:#1A476F;stroke-width:8.64"/>
	<line x1="1205.94" y1="861.95" x2="1205.94" y2="798.21" style="stroke:#1A476F;stroke-width:8.64"/>
	<line x1="1289.47" y1="861.95" x2="1289.47" y2="670.13" style="stroke:#1A476F;stroke-width:8.64"/>
	<line x1="1373.13" y1="861.95" x2="1373.13" y2="356.53" style="stroke:#1A476F;stroke-width:8.64"/>
	<line x1="1456.66" y1="861.95" x2="1456.66" y2="1287.91" style="stroke:#1A476F;stroke-width:8.64"/>
	<line x1="1540.19" y1="861.95" x2="1540.19" y2="853.65" style="stroke:#1A476F;stroke-width:8.64"/>
	<line x1="1623.72" y1="861.95" x2="1623.72" y2="763.31" style="stroke:#1A476F;stroke-width:8.64"/>
	<line x1="1707.26" y1="861.95" x2="1707.26" y2="1231.47" style="stroke:#1A476F;stroke-width:8.64"/>
	<line x1="1790.79" y1="861.95" x2="1790.79" y2="376.46" style="stroke:#1A476F;stroke-width:8.64"/>
	<line x1="1874.32" y1="861.95" x2="1874.32" y2="1298.67" style="stroke:#1A476F;stroke-width:8.64"/>
	<line x1="1957.85" y1="861.95" x2="1957.85" y2="447.25" style="stroke:#1A476F;stroke-width:8.64"/>
	<line x1="2041.38" y1="861.95" x2="2041.38" y2="1332.21" style="stroke:#1A476F;stroke-width:8.64"/>
	<line x1="2124.91" y1="861.95" x2="2124.91" y2="396.01" style="stroke:#1A476F;stroke-width:8.64"/>
	<line x1="2208.44" y1="861.95" x2="2208.44" y2="1042.50" style="stroke:#1A476F;stroke-width:8.64"/>
	<line x1="2291.97" y1="861.95" x2="2291.97" y2="639.68" style="stroke:#1A476F;stroke-width:8.64"/>
	<line x1="2375.51" y1="861.95" x2="2375.51" y2="1273.43" style="stroke:#1A476F;stroke-width:8.64"/>
	<line x1="2459.04" y1="861.95" x2="2459.04" y2="786.58" style="stroke:#1A476F;stroke-width:8.64"/>
	<line x1="2542.57" y1="861.95" x2="2542.57" y2="645.38" style="stroke:#1A476F;stroke-width:8.64"/>
	<line x1="2626.22" y1="861.95" x2="2626.22" y2="1066.76" style="stroke:#1A476F;stroke-width:8.64"/>
	<line x1="2709.75" y1="861.95" x2="2709.75" y2="653.30" style="stroke:#1A476F;stroke-width:8.64"/>
	<line x1="2793.28" y1="861.95" x2="2793.28" y2="1017.38" style="stroke:#1A476F;stroke-width:8.64"/>
	<line x1="2876.82" y1="861.95" x2="2876.82" y2="571.99" style="stroke:#1A476F;stroke-width:8.64"/>
	<line x1="2960.35" y1="861.95" x2="2960.35" y2="1372.80" style="stroke:#1A476F;stroke-width:8.64"/>
	<line x1="3043.88" y1="861.95" x2="3043.88" y2="438.09" style="stroke:#1A476F;stroke-width:8.64"/>
	<line x1="3127.41" y1="861.95" x2="3127.41" y2="899.07" style="stroke:#1A476F;stroke-width:8.64"/>
	<line x1="3210.94" y1="861.95" x2="3210.94" y2="1077.40" style="stroke:#1A476F;stroke-width:8.64"/>
	<line x1="3294.47" y1="861.95" x2="3294.47" y2="786.08" style="stroke:#1A476F;stroke-width:8.64"/>
	<line x1="3378.00" y1="861.95" x2="3378.00" y2="903.28" style="stroke:#1A476F;stroke-width:8.64"/>
	<line x1="3461.53" y1="861.95" x2="3461.53" y2="807.49" style="stroke:#1A476F;stroke-width:8.64"/>
	<line x1="3545.07" y1="861.95" x2="3545.07" y2="963.55" style="stroke:#1A476F;stroke-width:8.64"/>
	<line x1="3628.60" y1="861.95" x2="3628.60" y2="593.40" style="stroke:#1A476F;stroke-width:8.64"/>
	<line x1="3712.13" y1="861.95" x2="3712.13" y2="921.72" style="stroke:#1A476F;stroke-width:8.64"/>
	<line x1="3795.66" y1="861.95" x2="3795.66" y2="1017.01" style="stroke:#1A476F;stroke-width:8.64"/>
	<circle cx="537.57" cy="2311.35" r="26.35" style="fill:#1A476F"/>
	<circle cx="537.57" cy="2311.35" r="22.03" style="fill:none;stroke:#1A476F;stroke-width:8.64"/>
	<circle cx="621.10" cy="840.54" r="26.35" style="fill:#1A476F"/>
	<circle cx="621.10" cy="840.54" r="22.03" style="fill:none;stroke:#1A476F;stroke-width:8.64"/>
	<circle cx="704.76" cy="1285.56" r="26.35" style="fill:#1A476F"/>
	<circle cx="704.76" cy="1285.56" r="22.03" style="fill:none;stroke:#1A476F;stroke-width:8.64"/>
	<circle cx="788.29" cy="519.89" r="26.35" style="fill:#1A476F"/>
	<circle cx="788.29" cy="519.89" r="22.03" style="fill:none;stroke:#1A476F;stroke-width:8.64"/>
	<circle cx="871.82" cy="1251.40" r="26.35" style="fill:#1A476F"/>
	<circle cx="871.82" cy="1251.40" r="22.03" style="fill:none;stroke:#1A476F;stroke-width:8.64"/>
	<circle cx="955.35" cy="663.57" r="26.35" style="fill:#1A476F"/>
	<circle cx="955.35" cy="663.57" r="22.03" style="fill:none;stroke:#1A476F;stroke-width:8.64"/>
	<circle cx="1038.88" cy="742.15" r="26.35" style="fill:#1A476F"/>
	<circle cx="1038.88" cy="742.15" r="22.03" style="fill:none;stroke:#1A476F;stroke-width:8.64"/>
	<circle cx="1122.41" cy="1350.40" r="26.35" style="fill:#1A476F"/>
	<circle cx="1122.41" cy="1350.40" r="22.03" style="fill:none;stroke:#1A476F;stroke-width:8.64"/>
	<circle cx="1205.94" cy="798.21" r="26.35" style="fill:#1A476F"/>
	<circle cx="1205.94" cy="798.21" r="22.03" style="fill:none;stroke:#1A476F;stroke-width:8.64"/>
	<circle cx="1289.47" cy="670.13" r="26.35" style="fill:#1A476F"/>
	<circle cx="1289.47" cy="670.13" r="22.03" style="fill:none;stroke:#1A476F;stroke-width:8.64"/>
	<circle cx="1373.01" cy="356.66" r="26.35" style="fill:#1A476F"/>
	<circle cx="1373.01" cy="356.66" r="22.03" style="fill:none;stroke:#1A476F;stroke-width:8.64"/>
	<circle cx="1456.54" cy="1288.03" r="26.35" style="fill:#1A476F"/>
	<circle cx="1456.54" cy="1288.03" r="22.03" style="fill:none;stroke:#1A476F;stroke-width:8.64"/>
	<circle cx="1540.07" cy="853.78" r="26.35" style="fill:#1A476F"/>
	<circle cx="1540.07" cy="853.78" r="22.03" style="fill:none;stroke:#1A476F;stroke-width:8.64"/>
	<circle cx="1623.60" cy="763.31" r="26.35" style="fill:#1A476F"/>
	<circle cx="1623.60" cy="763.31" r="22.03" style="fill:none;stroke:#1A476F;stroke-width:8.64"/>
	<circle cx="1707.13" cy="1231.47" r="26.35" style="fill:#1A476F"/>
	<circle cx="1707.13" cy="1231.47" r="22.03" style="fill:none;stroke:#1A476F;stroke-width:8.64"/>
	<circle cx="1790.66" cy="376.58" r="26.35" style="fill:#1A476F"/>
	<circle cx="1790.66" cy="376.58" r="22.03" style="fill:none;stroke:#1A476F;stroke-width:8.64"/>
	<circle cx="1874.19" cy="1298.67" r="26.35" style="fill:#1A476F"/>
	<circle cx="1874.19" cy="1298.67" r="22.03" style="fill:none;stroke:#1A476F;stroke-width:8.64"/>
	<circle cx="1957.85" cy="447.37" r="26.35" style="fill:#1A476F"/>
	<circle cx="1957.85" cy="447.37" r="22.03" style="fill:none;stroke:#1A476F;stroke-width:8.64"/>
	<circle cx="2041.38" cy="1332.21" r="26.35" style="fill:#1A476F"/>
	<circle cx="2041.38" cy="1332.21" r="22.03" style="fill:none;stroke:#1A476F;stroke-width:8.64"/>
	<circle cx="2124.91" cy="396.14" r="26.35" style="fill:#1A476F"/>
	<circle cx="2124.91" cy="396.14" r="22.03" style="fill:none;stroke:#1A476F;stroke-width:8.64"/>
	<circle cx="2208.44" cy="1042.63" r="26.35" style="fill:#1A476F"/>
	<circle cx="2208.44" cy="1042.63" r="22.03" style="fill:none;stroke:#1A476F;stroke-width:8.64"/>
	<circle cx="2291.97" cy="639.68" r="26.35" style="fill:#1A476F"/>
	<circle cx="2291.97" cy="639.68" r="22.03" style="fill:none;stroke:#1A476F;stroke-width:8.64"/>
	<circle cx="2375.51" cy="1273.55" r="26.35" style="fill:#1A476F"/>
	<circle cx="2375.51" cy="1273.55" r="22.03" style="fill:none;stroke:#1A476F;stroke-width:8.64"/>
	<circle cx="2459.04" cy="786.58" r="26.35" style="fill:#1A476F"/>
	<circle cx="2459.04" cy="786.58" r="22.03" style="fill:none;stroke:#1A476F;stroke-width:8.64"/>
	<circle cx="2542.57" cy="645.38" r="26.35" style="fill:#1A476F"/>
	<circle cx="2542.57" cy="645.38" r="22.03" style="fill:none;stroke:#1A476F;stroke-width:8.64"/>
	<circle cx="2626.10" cy="1066.76" r="26.35" style="fill:#1A476F"/>
	<circle cx="2626.10" cy="1066.76" r="22.03" style="fill:none;stroke:#1A476F;stroke-width:8.64"/>
	<circle cx="2709.63" cy="653.30" r="26.35" style="fill:#1A476F"/>
	<circle cx="2709.63" cy="653.30" r="22.03" style="fill:none;stroke:#1A476F;stroke-width:8.64"/>
	<circle cx="2793.16" cy="1017.50" r="26.35" style="fill:#1A476F"/>
	<circle cx="2793.16" cy="1017.50" r="22.03" style="fill:none;stroke:#1A476F;stroke-width:8.64"/>
	<circle cx="2876.69" cy="572.11" r="26.35" style="fill:#1A476F"/>
	<circle cx="2876.69" cy="572.11" r="22.03" style="fill:none;stroke:#1A476F;stroke-width:8.64"/>
	<circle cx="2960.22" cy="1372.80" r="26.35" style="fill:#1A476F"/>
	<circle cx="2960.22" cy="1372.80" r="22.03" style="fill:none;stroke:#1A476F;stroke-width:8.64"/>
	<circle cx="3043.76" cy="438.21" r="26.35" style="fill:#1A476F"/>
	<circle cx="3043.76" cy="438.21" r="22.03" style="fill:none;stroke:#1A476F;stroke-width:8.64"/>
	<circle cx="3127.29" cy="899.07" r="26.35" style="fill:#1A476F"/>
	<circle cx="3127.29" cy="899.07" r="22.03" style="fill:none;stroke:#1A476F;stroke-width:8.64"/>
	<circle cx="3210.94" cy="1077.52" r="26.35" style="fill:#1A476F"/>
	<circle cx="3210.94" cy="1077.52" r="22.03" style="fill:none;stroke:#1A476F;stroke-width:8.64"/>
	<circle cx="3294.47" cy="786.08" r="26.35" style="fill:#1A476F"/>
	<circle cx="3294.47" cy="786.08" r="22.03" style="fill:none;stroke:#1A476F;stroke-width:8.64"/>
	<circle cx="3378.00" cy="903.28" r="26.35" style="fill:#1A476F"/>
	<circle cx="3378.00" cy="903.28" r="22.03" style="fill:none;stroke:#1A476F;stroke-width:8.64"/>
	<circle cx="3461.53" cy="807.62" r="26.35" style="fill:#1A476F"/>
	<circle cx="3461.53" cy="807.62" r="22.03" style="fill:none;stroke:#1A476F;stroke-width:8.64"/>
	<circle cx="3545.07" cy="963.67" r="26.35" style="fill:#1A476F"/>
	<circle cx="3545.07" cy="963.67" r="22.03" style="fill:none;stroke:#1A476F;stroke-width:8.64"/>
	<circle cx="3628.60" cy="593.40" r="26.35" style="fill:#1A476F"/>
	<circle cx="3628.60" cy="593.40" r="22.03" style="fill:none;stroke:#1A476F;stroke-width:8.64"/>
	<circle cx="3712.13" cy="921.72" r="26.35" style="fill:#1A476F"/>
	<circle cx="3712.13" cy="921.72" r="22.03" style="fill:none;stroke:#1A476F;stroke-width:8.64"/>
	<circle cx="3795.66" cy="1017.01" r="26.35" style="fill:#1A476F"/>
	<circle cx="3795.66" cy="1017.01" r="22.03" style="fill:none;stroke:#1A476F;stroke-width:8.64"/>
	<line x1="390.80" y1="2374.71" x2="390.80" y2="100.86" style="stroke:#000000;stroke-width:5.76"/>
	<line x1="390.80" y1="2257.39" x2="350.83" y2="2257.39" style="stroke:#000000;stroke-width:5.76"/>
	<text x="300.72" y="2257.39" style="font-family:'Helvetica';font-size:99.99px;fill:#000000" transform="rotate(-90 300.72,2257.39)" text-anchor="middle">-0.40</text>
	<line x1="390.80" y1="1559.67" x2="350.83" y2="1559.67" style="stroke:#000000;stroke-width:5.76"/>
	<text x="300.72" y="1559.67" style="font-family:'Helvetica';font-size:99.99px;fill:#000000" transform="rotate(-90 300.72,1559.67)" text-anchor="middle">-0.20</text>
	<line x1="390.80" y1="861.95" x2="350.83" y2="861.95" style="stroke:#000000;stroke-width:5.76"/>
	<text x="300.72" y="861.95" style="font-family:'Helvetica';font-size:99.99px;fill:#000000" transform="rotate(-90 300.72,861.95)" text-anchor="middle">0.00</text>
	<line x1="390.80" y1="164.22" x2="350.83" y2="164.22" style="stroke:#000000;stroke-width:5.76"/>
	<text x="300.72" y="164.22" style="font-family:'Helvetica';font-size:99.99px;fill:#000000" transform="rotate(-90 300.72,164.22)" text-anchor="middle">0.20</text>
	<text x="190.71" y="1237.79" style="font-family:'Helvetica';font-size:99.99px;fill:#000000" transform="rotate(-90 190.71,1237.79)" text-anchor="middle">Autocorrelations of D2.yyy</text>
	<line x1="390.80" y1="2374.71" x2="3859.02" y2="2374.71" style="stroke:#000000;stroke-width:5.76"/>
	<line x1="454.16" y1="2374.71" x2="454.16" y2="2414.69" style="stroke:#000000;stroke-width:5.76"/>
	<text x="454.16" y="2504.54" style="font-family:'Helvetica';font-size:99.99px;fill:#000000" text-anchor="middle">0</text>
	<line x1="1289.47" y1="2374.71" x2="1289.47" y2="2414.69" style="stroke:#000000;stroke-width:5.76"/>
	<text x="1289.47" y="2504.54" style="font-family:'Helvetica';font-size:99.99px;fill:#000000" text-anchor="middle">10</text>
	<line x1="2124.91" y1="2374.71" x2="2124.91" y2="2414.69" style="stroke:#000000;stroke-width:5.76"/>
	<text x="2124.91" y="2504.54" style="font-family:'Helvetica';font-size:99.99px;fill:#000000" text-anchor="middle">20</text>
	<line x1="2960.35" y1="2374.71" x2="2960.35" y2="2414.69" style="stroke:#000000;stroke-width:5.76"/>
	<text x="2960.35" y="2504.54" style="font-family:'Helvetica';font-size:99.99px;fill:#000000" text-anchor="middle">30</text>
	<line x1="3795.66" y1="2374.71" x2="3795.66" y2="2414.69" style="stroke:#000000;stroke-width:5.76"/>
	<text x="3795.66" y="2504.54" style="font-family:'Helvetica';font-size:99.99px;fill:#000000" text-anchor="middle">40</text>
	<text x="2124.91" y="2614.56" style="font-family:'Helvetica';font-size:99.99px;fill:#000000" text-anchor="middle">Lag</text>
	<text x="408.00" y="2737.89" style="font-family:'Helvetica';font-size:79.94px;fill:#000000">Bartlett's formula for MA(q) 95% confidence bands</text>
</svg>
