<?xml version="1.0" encoding="UTF-8" standalone="no"?>
<!-- This is a Stata 15.0 generated SVG file (http://www.stata.com) -->

<svg version="1.1" width="5.50in" height="4.00in" viewBox="0 0 3960 2880" xmlns="http://www.w3.org/2000/svg" xmlns:xlink="http://www.w3.org/1999/xlink">
	<desc>Stata Graph - Graph</desc>
	<rect x="0" y="0" width="3960" height="2880" style="fill:#EAF2F3;stroke:none"/>
	<rect x="0.00" y="0.00" width="3959.88" height="2880.00" style="fill:#EAF2F3"/>
	<rect x="2.88" y="2.88" width="3954.12" height="2874.24" style="fill:none;stroke:#EAF2F3;stroke-width:5.76"/>
	<rect x="290.81" y="100.86" width="3568.21" height="2132.77" style="fill:#FFFFFF"/>
	<rect x="293.69" y="103.74" width="3562.45" height="2127.01" style="fill:none;stroke:#FFFFFF;stroke-width:5.76"/>
	<line x1="290.81" y1="1668.82" x2="3859.02" y2="1668.82" style="stroke:#EAF2F3;stroke-width:8.64"/>
	<line x1="290.81" y1="1167.25" x2="3859.02" y2="1167.25" style="stroke:#EAF2F3;stroke-width:8.64"/>
	<line x1="290.81" y1="665.67" x2="3859.02" y2="665.67" style="stroke:#EAF2F3;stroke-width:8.64"/>
	<line x1="290.81" y1="164.22" x2="3859.02" y2="164.22" style="stroke:#EAF2F3;stroke-width:8.64"/>
	<line x1="354.05" y1="1863.98" x2="486.46" y2="1806.44" stroke-linecap="round" style="stroke:#1A476F;stroke-width:8.64"/>
	<line x1="486.46" y1="1806.44" x2="618.87" y2="1706.69" stroke-linecap="round" style="stroke:#1A476F;stroke-width:8.64"/>
	<line x1="618.87" y1="1706.69" x2="751.16" y2="1686.64" stroke-linecap="round" style="stroke:#1A476F;stroke-width:8.64"/>
	<line x1="751.16" y1="1686.64" x2="883.58" y2="1640.36" stroke-linecap="round" style="stroke:#1A476F;stroke-width:8.64"/>
	<line x1="883.58" y1="1640.36" x2="1015.86" y2="1606.20" stroke-linecap="round" style="stroke:#1A476F;stroke-width:8.64"/>
	<line x1="1015.86" y1="1606.20" x2="1148.28" y2="1552.74" stroke-linecap="round" style="stroke:#1A476F;stroke-width:8.64"/>
	<line x1="1148.28" y1="1552.74" x2="1280.69" y2="1549.65" stroke-linecap="round" style="stroke:#1A476F;stroke-width:8.64"/>
	<line x1="1280.69" y1="1549.65" x2="1412.98" y2="1504.72" stroke-linecap="round" style="stroke:#1A476F;stroke-width:8.64"/>
	<line x1="1412.98" y1="1504.72" x2="1545.39" y2="1452.50" stroke-linecap="round" style="stroke:#1A476F;stroke-width:8.64"/>
	<line x1="1545.39" y1="1452.50" x2="1677.80" y2="1407.45" stroke-linecap="round" style="stroke:#1A476F;stroke-width:8.64"/>
	<line x1="1677.80" y1="1407.45" x2="1810.09" y2="1359.19" stroke-linecap="round" style="stroke:#1A476F;stroke-width:8.64"/>
	<line x1="1810.09" y1="1359.19" x2="1942.50" y2="1328.99" stroke-linecap="round" style="stroke:#1A476F;stroke-width:8.64"/>
	<line x1="1942.50" y1="1328.99" x2="2074.92" y2="1275.04" stroke-linecap="round" style="stroke:#1A476F;stroke-width:8.64"/>
	<line x1="2074.92" y1="1275.04" x2="2207.20" y2="1216.25" stroke-linecap="round" style="stroke:#1A476F;stroke-width:8.64"/>
	<line x1="2207.20" y1="1216.25" x2="2339.62" y2="1099.92" stroke-linecap="round" style="stroke:#1A476F;stroke-width:8.64"/>
	<line x1="2339.62" y1="1099.92" x2="2472.03" y2="1039.90" stroke-linecap="round" style="stroke:#1A476F;stroke-width:8.64"/>
	<line x1="2472.03" y1="1039.90" x2="2604.32" y2="946.22" stroke-linecap="round" style="stroke:#1A476F;stroke-width:8.64"/>
	<line x1="2604.32" y1="946.22" x2="2736.73" y2="851.30" stroke-linecap="round" style="stroke:#1A476F;stroke-width:8.64"/>
	<line x1="2736.73" y1="851.30" x2="2869.02" y2="787.07" stroke-linecap="round" style="stroke:#1A476F;stroke-width:8.64"/>
	<line x1="2869.02" y1="787.07" x2="3001.43" y2="715.05" stroke-linecap="round" style="stroke:#1A476F;stroke-width:8.64"/>
	<line x1="3001.43" y1="715.05" x2="3133.84" y2="630.65" stroke-linecap="round" style="stroke:#1A476F;stroke-width:8.64"/>
	<line x1="3133.84" y1="630.65" x2="3266.13" y2="559.99" stroke-linecap="round" style="stroke:#1A476F;stroke-width:8.64"/>
	<line x1="3266.13" y1="559.99" x2="3398.55" y2="468.41" stroke-linecap="round" style="stroke:#1A476F;stroke-width:8.64"/>
	<line x1="3398.55" y1="468.41" x2="3530.96" y2="406.16" stroke-linecap="round" style="stroke:#1A476F;stroke-width:8.64"/>
	<line x1="3530.96" y1="406.16" x2="3663.25" y2="297.88" stroke-linecap="round" style="stroke:#1A476F;stroke-width:8.64"/>
	<line x1="3663.25" y1="297.88" x2="3795.66" y2="225.60" stroke-linecap="round" style="stroke:#1A476F;stroke-width:8.64"/>
	<line x1="354.05" y1="1831.43" x2="486.46" y2="1787.75" stroke-linecap="round" style="stroke:#90353B;stroke-width:8.64"/>
	<line x1="486.46" y1="1787.75" x2="618.87" y2="1708.79" stroke-linecap="round" style="stroke:#90353B;stroke-width:8.64"/>
	<line x1="618.87" y1="1708.79" x2="751.16" y2="1640.23" stroke-linecap="round" style="stroke:#90353B;stroke-width:8.64"/>
	<line x1="751.16" y1="1640.23" x2="883.58" y2="1518.58" stroke-linecap="round" style="stroke:#90353B;stroke-width:8.64"/>
	<line x1="883.58" y1="1518.58" x2="1015.86" y2="1495.81" stroke-linecap="round" style="stroke:#90353B;stroke-width:8.64"/>
	<line x1="1015.86" y1="1495.81" x2="1148.28" y2="1372.06" stroke-linecap="round" style="stroke:#90353B;stroke-width:8.64"/>
	<line x1="1148.28" y1="1372.06" x2="1280.69" y2="1385.92" stroke-linecap="round" style="stroke:#90353B;stroke-width:8.64"/>
	<line x1="1280.69" y1="1385.92" x2="1412.98" y2="1345.70" stroke-linecap="round" style="stroke:#90353B;stroke-width:8.64"/>
	<line x1="1412.98" y1="1345.70" x2="1545.39" y2="1295.21" stroke-linecap="round" style="stroke:#90353B;stroke-width:8.64"/>
	<line x1="1545.39" y1="1295.21" x2="1677.80" y2="1256.97" stroke-linecap="round" style="stroke:#90353B;stroke-width:8.64"/>
	<line x1="1677.80" y1="1256.97" x2="1810.09" y2="1267.73" stroke-linecap="round" style="stroke:#90353B;stroke-width:8.64"/>
	<line x1="1810.09" y1="1267.73" x2="1942.50" y2="1198.56" stroke-linecap="round" style="stroke:#90353B;stroke-width:8.64"/>
	<line x1="1942.50" y1="1198.56" x2="2074.92" y2="1146.21" stroke-linecap="round" style="stroke:#90353B;stroke-width:8.64"/>
	<line x1="2074.92" y1="1146.21" x2="2207.20" y2="1132.72" stroke-linecap="round" style="stroke:#90353B;stroke-width:8.64"/>
	<line x1="2207.20" y1="1132.72" x2="2339.62" y2="1084.33" stroke-linecap="round" style="stroke:#90353B;stroke-width:8.64"/>
	<line x1="2339.62" y1="1084.33" x2="2472.03" y2="1074.80" stroke-linecap="round" style="stroke:#90353B;stroke-width:8.64"/>
	<line x1="2472.03" y1="1074.80" x2="2604.32" y2="1024.31" stroke-linecap="round" style="stroke:#90353B;stroke-width:8.64"/>
	<line x1="2604.32" y1="1024.31" x2="2736.73" y2="942.01" stroke-linecap="round" style="stroke:#90353B;stroke-width:8.64"/>
	<line x1="2736.73" y1="942.01" x2="2869.02" y2="790.29" stroke-linecap="round" style="stroke:#90353B;stroke-width:8.64"/>
	<line x1="2869.02" y1="790.29" x2="3001.43" y2="751.06" stroke-linecap="round" style="stroke:#90353B;stroke-width:8.64"/>
	<line x1="3001.43" y1="751.06" x2="3133.84" y2="628.30" stroke-linecap="round" style="stroke:#90353B;stroke-width:8.64"/>
	<line x1="3133.84" y1="628.30" x2="3266.13" y2="521.25" stroke-linecap="round" style="stroke:#90353B;stroke-width:8.64"/>
	<line x1="3266.13" y1="521.25" x2="3398.55" y2="506.40" stroke-linecap="round" style="stroke:#90353B;stroke-width:8.64"/>
	<line x1="3398.55" y1="506.40" x2="3530.96" y2="408.39" stroke-linecap="round" style="stroke:#90353B;stroke-width:8.64"/>
	<line x1="3530.96" y1="408.39" x2="3663.25" y2="301.71" stroke-linecap="round" style="stroke:#90353B;stroke-width:8.64"/>
	<line x1="3663.25" y1="301.71" x2="3795.66" y2="225.48" stroke-linecap="round" style="stroke:#90353B;stroke-width:8.64"/>
	<line x1="290.81" y1="2233.63" x2="290.81" y2="100.86" style="stroke:#000000;stroke-width:5.76"/>
	<line x1="290.81" y1="2170.27" x2="250.84" y2="2170.27" style="stroke:#000000;stroke-width:5.76"/>
	<text x="200.73" y="2170.27" style="font-family:'Helvetica';font-size:99.99px;fill:#000000" transform="rotate(-90 200.73,2170.27)" text-anchor="middle">9.1</text>
	<line x1="290.81" y1="1668.82" x2="250.84" y2="1668.82" style="stroke:#000000;stroke-width:5.76"/>
	<text x="200.73" y="1668.82" style="font-family:'Helvetica';font-size:99.99px;fill:#000000" transform="rotate(-90 200.73,1668.82)" text-anchor="middle">9.2</text>
	<line x1="290.81" y1="1167.25" x2="250.84" y2="1167.25" style="stroke:#000000;stroke-width:5.76"/>
	<text x="200.73" y="1167.25" style="font-family:'Helvetica';font-size:99.99px;fill:#000000" transform="rotate(-90 200.73,1167.25)" text-anchor="middle">9.3</text>
	<line x1="290.81" y1="665.67" x2="250.84" y2="665.67" style="stroke:#000000;stroke-width:5.76"/>
	<text x="200.73" y="665.67" style="font-family:'Helvetica';font-size:99.99px;fill:#000000" transform="rotate(-90 200.73,665.67)" text-anchor="middle">9.4</text>
	<line x1="290.81" y1="164.22" x2="250.84" y2="164.22" style="stroke:#000000;stroke-width:5.76"/>
	<text x="200.73" y="164.22" style="font-family:'Helvetica';font-size:99.99px;fill:#000000" transform="rotate(-90 200.73,164.22)" text-anchor="middle">9.5</text>
	<line x1="290.81" y1="2233.63" x2="3859.02" y2="2233.63" style="stroke:#000000;stroke-width:5.76"/>
	<line x1="486.46" y1="2233.63" x2="486.46" y2="2273.73" style="stroke:#000000;stroke-width:5.76"/>
	<text x="486.46" y="2363.59" style="font-family:'Helvetica';font-size:99.99px;fill:#000000" text-anchor="middle">2000q1</text>
	<line x1="1280.69" y1="2233.63" x2="1280.69" y2="2273.73" style="stroke:#000000;stroke-width:5.76"/>
	<text x="1280.69" y="2363.59" style="font-family:'Helvetica';font-size:99.99px;fill:#000000" text-anchor="middle">2001q3</text>
	<line x1="2074.92" y1="2233.63" x2="2074.92" y2="2273.73" style="stroke:#000000;stroke-width:5.76"/>
	<text x="2074.92" y="2363.59" style="font-family:'Helvetica';font-size:99.99px;fill:#000000" text-anchor="middle">2003q1</text>
	<line x1="2869.14" y1="2233.63" x2="2869.14" y2="2273.73" style="stroke:#000000;stroke-width:5.76"/>
	<text x="2869.14" y="2363.59" style="font-family:'Helvetica';font-size:99.99px;fill:#000000" text-anchor="middle">2004q3</text>
	<line x1="3663.37" y1="2233.63" x2="3663.37" y2="2273.73" style="stroke:#000000;stroke-width:5.76"/>
	<text x="3663.37" y="2363.59" style="font-family:'Helvetica';font-size:99.99px;fill:#000000" text-anchor="middle">2006q1</text>
	<text x="2074.92" y="2473.60" style="font-family:'Helvetica';font-size:99.99px;fill:#000000" text-anchor="middle">time_2</text>
	<rect x="922.93" y="2558.24" width="2303.98" height="186.37" style="fill:#FFFFFF"/>
	<rect x="925.81" y="2561.12" width="2298.22" height="180.61" style="fill:none;stroke:#000000;stroke-width:5.76"/>
	<line x1="966.12" y1="2651.43" x2="1340.46" y2="2651.43" style="stroke:#1A476F;stroke-width:8.64"/>
	<line x1="1978.02" y1="2651.43" x2="2352.49" y2="2651.43" style="stroke:#90353B;stroke-width:8.64"/>
	<text x="1400.48" y="2686.46" style="font-family:'Helvetica';font-size:99.99px;fill:#000000">log(GDP)</text>
	<text x="2412.38" y="2686.46" style="font-family:'Helvetica';font-size:99.99px;fill:#000000">yyy, ARIMA, h=4</text>
</svg>
