<?xml version="1.0" encoding="UTF-8" standalone="no"?>
<!-- This is a Stata 15.0 generated SVG file (http://www.stata.com) -->

<svg version="1.1" width="5.50in" height="4.00in" viewBox="0 0 3960 2880" xmlns="http://www.w3.org/2000/svg" xmlns:xlink="http://www.w3.org/1999/xlink">
	<desc>Stata Graph - Graph</desc>
	<rect x="0" y="0" width="3960" height="2880" style="fill:#EAF2F3;stroke:none"/>
	<rect x="0.00" y="0.00" width="3959.88" height="2880.00" style="fill:#EAF2F3"/>
	<rect x="2.88" y="2.88" width="3954.12" height="2874.24" style="fill:none;stroke:#EAF2F3;stroke-width:5.76"/>
	<rect x="390.80" y="100.86" width="3468.22" height="2273.85" style="fill:#FFFFFF"/>
	<rect x="393.68" y="103.74" width="3462.46" height="2268.09" style="fill:none;stroke:#FFFFFF;stroke-width:5.76"/>
	<line x1="390.80" y1="2311.35" x2="3859.02" y2="2311.35" style="stroke:#EAF2F3;stroke-width:8.64"/>
	<line x1="390.80" y1="1774.51" x2="3859.02" y2="1774.51" style="stroke:#EAF2F3;stroke-width:8.64"/>
	<line x1="390.80" y1="1237.79" x2="3859.02" y2="1237.79" style="stroke:#EAF2F3;stroke-width:8.64"/>
	<line x1="390.80" y1="700.94" x2="3859.02" y2="700.94" style="stroke:#EAF2F3;stroke-width:8.64"/>
	<line x1="390.80" y1="164.22" x2="3859.02" y2="164.22" style="stroke:#EAF2F3;stroke-width:8.64"/>
	<line x1="390.80" y1="1237.79" x2="3859.02" y2="1237.79" style="stroke:#EAF2F3;stroke-width:8.64"/>
	<path d="
M537.69 1387.28 L537.69 1387.28 L621.23 1494.58 L704.76 1566.97 L788.29 1624.64 L871.82 1673.52 L955.35 1716.22 L1038.88 1754.33 L1122.41 1788.86 L1205.94 1820.42 L1289.47 1849.50 L1373.13 1876.36 L1456.66 1901.35 L1540.19 1924.74 L1623.72 1946.65 L1707.26 1967.19 L1790.79 1986.62 L1874.32 2004.81 L1957.85 2021.89 L2041.38 2038.10 L2124.91 2053.32 L2208.44 2067.68 L2291.97 2081.29 L2375.51 2094.16 L2459.04 2106.29 L2542.57 2117.80 L2626.22 2128.69 L2709.75 2138.84 L2793.28 2148.49 L2876.82 2157.65 L2960.35 2166.19 L3043.88 2174.36 L3127.41 2181.90 L3210.94 2189.08 L3294.47 2195.89 L3378.00 2202.20 L3461.53 2208.14 L3545.07 2213.71 L3628.60 2218.91 L3712.13 2223.86 L3795.66 2228.31 L3795.66 247.14 L3712.13 251.72 L3628.60 256.54 L3545.07 261.74 L3461.53 267.31 L3378.00 273.25 L3294.47 279.56 L3210.94 286.37 L3127.41 293.54 L3043.88 301.09 L2960.35 309.26 L2876.82 317.80 L2793.28 326.96 L2709.75 336.61 L2626.22 346.88 L2542.57 357.65 L2459.04 369.16 L2375.51 381.29 L2291.97 394.16 L2208.44 407.77 L2124.91 422.12 L2041.38 437.47 L1957.85 453.56 L1874.32 470.76 L1790.79 488.95 L1707.26 508.26 L1623.72 528.80 L1540.19 550.70 L1456.66 574.09 L1373.13 599.09 L1289.47 625.95 L1205.94 655.03 L1122.41 686.59 L1038.88 721.11 L955.35 759.23 L871.82 801.93 L788.29 850.81 L704.76 908.48 L621.23 980.87 L537.69 1088.17 L537.69 1387.28 Z" stroke-linecap="round" stroke-alignment="inner" style="fill:#C0C0C0;stroke:#C0C0C0;stroke-width:8.64"/>
	<line x1="537.69" y1="1237.79" x2="537.69" y2="177.96" style="stroke:#1A476F;stroke-width:8.64"/>
	<line x1="621.23" y1="1237.79" x2="621.23" y2="191.82" style="stroke:#1A476F;stroke-width:8.64"/>
	<line x1="704.76" y1="1237.79" x2="704.76" y2="205.68" style="stroke:#1A476F;stroke-width:8.64"/>
	<line x1="788.29" y1="1237.79" x2="788.29" y2="219.91" style="stroke:#1A476F;stroke-width:8.64"/>
	<line x1="871.82" y1="1237.79" x2="871.82" y2="234.39" style="stroke:#1A476F;stroke-width:8.64"/>
	<line x1="955.35" y1="1237.79" x2="955.35" y2="248.87" style="stroke:#1A476F;stroke-width:8.64"/>
	<line x1="1038.88" y1="1237.79" x2="1038.88" y2="263.35" style="stroke:#1A476F;stroke-width:8.64"/>
	<line x1="1122.41" y1="1237.79" x2="1122.41" y2="277.83" style="stroke:#1A476F;stroke-width:8.64"/>
	<line x1="1205.94" y1="1237.79" x2="1205.94" y2="292.18" style="stroke:#1A476F;stroke-width:8.64"/>
	<line x1="1289.47" y1="1237.79" x2="1289.47" y2="306.54" style="stroke:#1A476F;stroke-width:8.64"/>
	<line x1="1373.13" y1="1237.79" x2="1373.13" y2="321.02" style="stroke:#1A476F;stroke-width:8.64"/>
	<line x1="1456.66" y1="1237.79" x2="1456.66" y2="335.62" style="stroke:#1A476F;stroke-width:8.64"/>
	<line x1="1540.19" y1="1237.79" x2="1540.19" y2="350.10" style="stroke:#1A476F;stroke-width:8.64"/>
	<line x1="1623.72" y1="1237.79" x2="1623.72" y2="364.83" style="stroke:#1A476F;stroke-width:8.64"/>
	<line x1="1707.26" y1="1237.79" x2="1707.26" y2="379.68" style="stroke:#1A476F;stroke-width:8.64"/>
	<line x1="1790.79" y1="1237.79" x2="1790.79" y2="394.77" style="stroke:#1A476F;stroke-width:8.64"/>
	<line x1="1874.32" y1="1237.79" x2="1874.32" y2="410.12" style="stroke:#1A476F;stroke-width:8.64"/>
	<line x1="1957.85" y1="1237.79" x2="1957.85" y2="425.47" style="stroke:#1A476F;stroke-width:8.64"/>
	<line x1="2041.38" y1="1237.79" x2="2041.38" y2="440.81" style="stroke:#1A476F;stroke-width:8.64"/>
	<line x1="2124.91" y1="1237.79" x2="2124.91" y2="456.16" style="stroke:#1A476F;stroke-width:8.64"/>
	<line x1="2208.44" y1="1237.79" x2="2208.44" y2="471.63" style="stroke:#1A476F;stroke-width:8.64"/>
	<line x1="2291.97" y1="1237.79" x2="2291.97" y2="487.10" style="stroke:#1A476F;stroke-width:8.64"/>
	<line x1="2375.51" y1="1237.79" x2="2375.51" y2="502.81" style="stroke:#1A476F;stroke-width:8.64"/>
	<line x1="2459.04" y1="1237.79" x2="2459.04" y2="518.53" style="stroke:#1A476F;stroke-width:8.64"/>
	<line x1="2542.57" y1="1237.79" x2="2542.57" y2="534.49" style="stroke:#1A476F;stroke-width:8.64"/>
	<line x1="2626.22" y1="1237.79" x2="2626.22" y2="550.46" style="stroke:#1A476F;stroke-width:8.64"/>
	<line x1="2709.75" y1="1237.79" x2="2709.75" y2="566.30" style="stroke:#1A476F;stroke-width:8.64"/>
	<line x1="2793.28" y1="1237.79" x2="2793.28" y2="582.26" style="stroke:#1A476F;stroke-width:8.64"/>
	<line x1="2876.82" y1="1237.79" x2="2876.82" y2="598.10" style="stroke:#1A476F;stroke-width:8.64"/>
	<line x1="2960.35" y1="1237.79" x2="2960.35" y2="613.94" style="stroke:#1A476F;stroke-width:8.64"/>
	<line x1="3043.88" y1="1237.79" x2="3043.88" y2="629.78" style="stroke:#1A476F;stroke-width:8.64"/>
	<line x1="3127.41" y1="1237.79" x2="3127.41" y2="645.75" style="stroke:#1A476F;stroke-width:8.64"/>
	<line x1="3210.94" y1="1237.79" x2="3210.94" y2="661.59" style="stroke:#1A476F;stroke-width:8.64"/>
	<line x1="3294.47" y1="1237.79" x2="3294.47" y2="677.55" style="stroke:#1A476F;stroke-width:8.64"/>
	<line x1="3378.00" y1="1237.79" x2="3378.00" y2="693.27" style="stroke:#1A476F;stroke-width:8.64"/>
	<line x1="3461.53" y1="1237.79" x2="3461.53" y2="709.11" style="stroke:#1A476F;stroke-width:8.64"/>
	<line x1="3545.07" y1="1237.79" x2="3545.07" y2="724.70" style="stroke:#1A476F;stroke-width:8.64"/>
	<line x1="3628.60" y1="1237.79" x2="3628.60" y2="740.30" style="stroke:#1A476F;stroke-width:8.64"/>
	<line x1="3712.13" y1="1237.79" x2="3712.13" y2="755.89" style="stroke:#1A476F;stroke-width:8.64"/>
	<line x1="3795.66" y1="1237.79" x2="3795.66" y2="771.48" style="stroke:#1A476F;stroke-width:8.64"/>
	<circle cx="537.57" cy="177.96" r="26.35" style="fill:#1A476F"/>
	<circle cx="537.57" cy="177.96" r="22.03" style="fill:none;stroke:#1A476F;stroke-width:8.64"/>
	<circle cx="621.10" cy="191.82" r="26.35" style="fill:#1A476F"/>
	<circle cx="621.10" cy="191.82" r="22.03" style="fill:none;stroke:#1A476F;stroke-width:8.64"/>
	<circle cx="704.76" cy="205.80" r="26.35" style="fill:#1A476F"/>
	<circle cx="704.76" cy="205.80" r="22.03" style="fill:none;stroke:#1A476F;stroke-width:8.64"/>
	<circle cx="788.29" cy="219.91" r="26.35" style="fill:#1A476F"/>
	<circle cx="788.29" cy="219.91" r="22.03" style="fill:none;stroke:#1A476F;stroke-width:8.64"/>
	<circle cx="871.82" cy="234.39" r="26.35" style="fill:#1A476F"/>
	<circle cx="871.82" cy="234.39" r="22.03" style="fill:none;stroke:#1A476F;stroke-width:8.64"/>
	<circle cx="955.35" cy="248.99" r="26.35" style="fill:#1A476F"/>
	<circle cx="955.35" cy="248.99" r="22.03" style="fill:none;stroke:#1A476F;stroke-width:8.64"/>
	<circle cx="1038.88" cy="263.47" r="26.35" style="fill:#1A476F"/>
	<circle cx="1038.88" cy="263.47" r="22.03" style="fill:none;stroke:#1A476F;stroke-width:8.64"/>
	<circle cx="1122.41" cy="277.83" r="26.35" style="fill:#1A476F"/>
	<circle cx="1122.41" cy="277.83" r="22.03" style="fill:none;stroke:#1A476F;stroke-width:8.64"/>
	<circle cx="1205.94" cy="292.31" r="26.35" style="fill:#1A476F"/>
	<circle cx="1205.94" cy="292.31" r="22.03" style="fill:none;stroke:#1A476F;stroke-width:8.64"/>
	<circle cx="1289.47" cy="306.66" r="26.35" style="fill:#1A476F"/>
	<circle cx="1289.47" cy="306.66" r="22.03" style="fill:none;stroke:#1A476F;stroke-width:8.64"/>
	<circle cx="1373.01" cy="321.02" r="26.35" style="fill:#1A476F"/>
	<circle cx="1373.01" cy="321.02" r="22.03" style="fill:none;stroke:#1A476F;stroke-width:8.64"/>
	<circle cx="1456.54" cy="335.74" r="26.35" style="fill:#1A476F"/>
	<circle cx="1456.54" cy="335.74" r="22.03" style="fill:none;stroke:#1A476F;stroke-width:8.64"/>
	<circle cx="1540.07" cy="350.22" r="26.35" style="fill:#1A476F"/>
	<circle cx="1540.07" cy="350.22" r="22.03" style="fill:none;stroke:#1A476F;stroke-width:8.64"/>
	<circle cx="1623.60" cy="364.83" r="26.35" style="fill:#1A476F"/>
	<circle cx="1623.60" cy="364.83" r="22.03" style="fill:none;stroke:#1A476F;stroke-width:8.64"/>
	<circle cx="1707.13" cy="379.68" r="26.35" style="fill:#1A476F"/>
	<circle cx="1707.13" cy="379.68" r="22.03" style="fill:none;stroke:#1A476F;stroke-width:8.64"/>
	<circle cx="1790.66" cy="394.90" r="26.35" style="fill:#1A476F"/>
	<circle cx="1790.66" cy="394.90" r="22.03" style="fill:none;stroke:#1A476F;stroke-width:8.64"/>
	<circle cx="1874.19" cy="410.12" r="26.35" style="fill:#1A476F"/>
	<circle cx="1874.19" cy="410.12" r="22.03" style="fill:none;stroke:#1A476F;stroke-width:8.64"/>
	<circle cx="1957.85" cy="425.47" r="26.35" style="fill:#1A476F"/>
	<circle cx="1957.85" cy="425.47" r="22.03" style="fill:none;stroke:#1A476F;stroke-width:8.64"/>
	<circle cx="2041.38" cy="440.81" r="26.35" style="fill:#1A476F"/>
	<circle cx="2041.38" cy="440.81" r="22.03" style="fill:none;stroke:#1A476F;stroke-width:8.64"/>
	<circle cx="2124.91" cy="456.16" r="26.35" style="fill:#1A476F"/>
	<circle cx="2124.91" cy="456.16" r="22.03" style="fill:none;stroke:#1A476F;stroke-width:8.64"/>
	<circle cx="2208.44" cy="471.63" r="26.35" style="fill:#1A476F"/>
	<circle cx="2208.44" cy="471.63" r="22.03" style="fill:none;stroke:#1A476F;stroke-width:8.64"/>
	<circle cx="2291.97" cy="487.22" r="26.35" style="fill:#1A476F"/>
	<circle cx="2291.97" cy="487.22" r="22.03" style="fill:none;stroke:#1A476F;stroke-width:8.64"/>
	<circle cx="2375.51" cy="502.81" r="26.35" style="fill:#1A476F"/>
	<circle cx="2375.51" cy="502.81" r="22.03" style="fill:none;stroke:#1A476F;stroke-width:8.64"/>
	<circle cx="2459.04" cy="518.65" r="26.35" style="fill:#1A476F"/>
	<circle cx="2459.04" cy="518.65" r="22.03" style="fill:none;stroke:#1A476F;stroke-width:8.64"/>
	<circle cx="2542.57" cy="534.62" r="26.35" style="fill:#1A476F"/>
	<circle cx="2542.57" cy="534.62" r="22.03" style="fill:none;stroke:#1A476F;stroke-width:8.64"/>
	<circle cx="2626.10" cy="550.46" r="26.35" style="fill:#1A476F"/>
	<circle cx="2626.10" cy="550.46" r="22.03" style="fill:none;stroke:#1A476F;stroke-width:8.64"/>
	<circle cx="2709.63" cy="566.42" r="26.35" style="fill:#1A476F"/>
	<circle cx="2709.63" cy="566.42" r="22.03" style="fill:none;stroke:#1A476F;stroke-width:8.64"/>
	<circle cx="2793.16" cy="582.26" r="26.35" style="fill:#1A476F"/>
	<circle cx="2793.16" cy="582.26" r="22.03" style="fill:none;stroke:#1A476F;stroke-width:8.64"/>
	<circle cx="2876.69" cy="598.10" r="26.35" style="fill:#1A476F"/>
	<circle cx="2876.69" cy="598.10" r="22.03" style="fill:none;stroke:#1A476F;stroke-width:8.64"/>
	<circle cx="2960.22" cy="613.94" r="26.35" style="fill:#1A476F"/>
	<circle cx="2960.22" cy="613.94" r="22.03" style="fill:none;stroke:#1A476F;stroke-width:8.64"/>
	<circle cx="3043.76" cy="629.91" r="26.35" style="fill:#1A476F"/>
	<circle cx="3043.76" cy="629.91" r="22.03" style="fill:none;stroke:#1A476F;stroke-width:8.64"/>
	<circle cx="3127.29" cy="645.87" r="26.35" style="fill:#1A476F"/>
	<circle cx="3127.29" cy="645.87" r="22.03" style="fill:none;stroke:#1A476F;stroke-width:8.64"/>
	<circle cx="3210.94" cy="661.71" r="26.35" style="fill:#1A476F"/>
	<circle cx="3210.94" cy="661.71" r="22.03" style="fill:none;stroke:#1A476F;stroke-width:8.64"/>
	<circle cx="3294.47" cy="677.55" r="26.35" style="fill:#1A476F"/>
	<circle cx="3294.47" cy="677.55" r="22.03" style="fill:none;stroke:#1A476F;stroke-width:8.64"/>
	<circle cx="3378.00" cy="693.39" r="26.35" style="fill:#1A476F"/>
	<circle cx="3378.00" cy="693.39" r="22.03" style="fill:none;stroke:#1A476F;stroke-width:8.64"/>
	<circle cx="3461.53" cy="709.11" r="26.35" style="fill:#1A476F"/>
	<circle cx="3461.53" cy="709.11" r="22.03" style="fill:none;stroke:#1A476F;stroke-width:8.64"/>
	<circle cx="3545.07" cy="724.70" r="26.35" style="fill:#1A476F"/>
	<circle cx="3545.07" cy="724.70" r="22.03" style="fill:none;stroke:#1A476F;stroke-width:8.64"/>
	<circle cx="3628.60" cy="740.30" r="26.35" style="fill:#1A476F"/>
	<circle cx="3628.60" cy="740.30" r="22.03" style="fill:none;stroke:#1A476F;stroke-width:8.64"/>
	<circle cx="3712.13" cy="756.01" r="26.35" style="fill:#1A476F"/>
	<circle cx="3712.13" cy="756.01" r="22.03" style="fill:none;stroke:#1A476F;stroke-width:8.64"/>
	<circle cx="3795.66" cy="771.61" r="26.35" style="fill:#1A476F"/>
	<circle cx="3795.66" cy="771.61" r="22.03" style="fill:none;stroke:#1A476F;stroke-width:8.64"/>
	<line x1="390.80" y1="2374.71" x2="390.80" y2="100.86" style="stroke:#000000;stroke-width:5.76"/>
	<line x1="390.80" y1="2311.35" x2="350.83" y2="2311.35" style="stroke:#000000;stroke-width:5.76"/>
	<text x="300.72" y="2311.35" style="font-family:'Helvetica';font-size:99.99px;fill:#000000" transform="rotate(-90 300.72,2311.35)" text-anchor="middle">-1.00</text>
	<line x1="390.80" y1="1774.51" x2="350.83" y2="1774.51" style="stroke:#000000;stroke-width:5.76"/>
	<text x="300.72" y="1774.51" style="font-family:'Helvetica';font-size:99.99px;fill:#000000" transform="rotate(-90 300.72,1774.51)" text-anchor="middle">-0.50</text>
	<line x1="390.80" y1="1237.79" x2="350.83" y2="1237.79" style="stroke:#000000;stroke-width:5.76"/>
	<text x="300.72" y="1237.79" style="font-family:'Helvetica';font-size:99.99px;fill:#000000" transform="rotate(-90 300.72,1237.79)" text-anchor="middle">0.00</text>
	<line x1="390.80" y1="700.94" x2="350.83" y2="700.94" style="stroke:#000000;stroke-width:5.76"/>
	<text x="300.72" y="700.94" style="font-family:'Helvetica';font-size:99.99px;fill:#000000" transform="rotate(-90 300.72,700.94)" text-anchor="middle">0.50</text>
	<line x1="390.80" y1="164.22" x2="350.83" y2="164.22" style="stroke:#000000;stroke-width:5.76"/>
	<text x="300.72" y="164.22" style="font-family:'Helvetica';font-size:99.99px;fill:#000000" transform="rotate(-90 300.72,164.22)" text-anchor="middle">1.00</text>
	<text x="190.71" y="1237.79" style="font-family:'Helvetica';font-size:99.99px;fill:#000000" transform="rotate(-90 190.71,1237.79)" text-anchor="middle">Autocorrelations of yyy</text>
	<line x1="390.80" y1="2374.71" x2="3859.02" y2="2374.71" style="stroke:#000000;stroke-width:5.76"/>
	<line x1="454.16" y1="2374.71" x2="454.16" y2="2414.69" style="stroke:#000000;stroke-width:5.76"/>
	<text x="454.16" y="2504.54" style="font-family:'Helvetica';font-size:99.99px;fill:#000000" text-anchor="middle">0</text>
	<line x1="1289.47" y1="2374.71" x2="1289.47" y2="2414.69" style="stroke:#000000;stroke-width:5.76"/>
	<text x="1289.47" y="2504.54" style="font-family:'Helvetica';font-size:99.99px;fill:#000000" text-anchor="middle">10</text>
	<line x1="2124.91" y1="2374.71" x2="2124.91" y2="2414.69" style="stroke:#000000;stroke-width:5.76"/>
	<text x="2124.91" y="2504.54" style="font-family:'Helvetica';font-size:99.99px;fill:#000000" text-anchor="middle">20</text>
	<line x1="2960.35" y1="2374.71" x2="2960.35" y2="2414.69" style="stroke:#000000;stroke-width:5.76"/>
	<text x="2960.35" y="2504.54" style="font-family:'Helvetica';font-size:99.99px;fill:#000000" text-anchor="middle">30</text>
	<line x1="3795.66" y1="2374.71" x2="3795.66" y2="2414.69" style="stroke:#000000;stroke-width:5.76"/>
	<text x="3795.66" y="2504.54" style="font-family:'Helvetica';font-size:99.99px;fill:#000000" text-anchor="middle">40</text>
	<text x="2124.91" y="2614.56" style="font-family:'Helvetica';font-size:99.99px;fill:#000000" text-anchor="middle">Lag</text>
	<text x="408.00" y="2737.89" style="font-family:'Helvetica';font-size:79.94px;fill:#000000">Bartlett's formula for MA(q) 95% confidence bands</text>
</svg>
