<?xml version="1.0" encoding="UTF-8" standalone="no"?>
<!-- This is a Stata 15.0 generated SVG file (http://www.stata.com) -->

<svg version="1.1" width="5.50in" height="4.00in" viewBox="0 0 3960 2880" xmlns="http://www.w3.org/2000/svg" xmlns:xlink="http://www.w3.org/1999/xlink">
	<desc>Stata Graph - Graph</desc>
	<rect x="0" y="0" width="3960" height="2880" style="fill:#EAF2F3;stroke:none"/>
	<rect x="0.00" y="0.00" width="3959.88" height="2880.00" style="fill:#EAF2F3"/>
	<rect x="2.88" y="2.88" width="3954.12" height="2874.24" style="fill:none;stroke:#EAF2F3;stroke-width:5.76"/>
	<rect x="390.80" y="100.86" width="3468.22" height="2388.33" style="fill:#FFFFFF"/>
	<rect x="393.68" y="103.74" width="3462.46" height="2382.57" style="fill:none;stroke:#FFFFFF;stroke-width:5.76"/>
	<line x1="390.80" y1="1860.39" x2="3859.02" y2="1860.39" style="stroke:#EAF2F3;stroke-width:8.64"/>
	<line x1="390.80" y1="1294.96" x2="3859.02" y2="1294.96" style="stroke:#EAF2F3;stroke-width:8.64"/>
	<line x1="390.80" y1="729.53" x2="3859.02" y2="729.53" style="stroke:#EAF2F3;stroke-width:8.64"/>
	<line x1="390.80" y1="164.22" x2="3859.02" y2="164.22" style="stroke:#EAF2F3;stroke-width:8.64"/>
	<line x1="469.88" y1="1651.25" x2="485.60" y2="1200.04" stroke-linecap="round" style="stroke:#1A476F;stroke-width:8.64"/>
	<line x1="485.60" y1="1200.04" x2="501.31" y2="2010.13" stroke-linecap="round" style="stroke:#1A476F;stroke-width:8.64"/>
	<line x1="501.31" y1="2010.13" x2="517.15" y2="1972.76" stroke-linecap="round" style="stroke:#1A476F;stroke-width:8.64"/>
	<line x1="517.15" y1="1972.76" x2="532.87" y2="1091.88" stroke-linecap="round" style="stroke:#1A476F;stroke-width:8.64"/>
	<line x1="532.87" y1="1091.88" x2="548.71" y2="774.08" stroke-linecap="round" style="stroke:#1A476F;stroke-width:8.64"/>
	<line x1="548.71" y1="774.08" x2="564.42" y2="989.41" stroke-linecap="round" style="stroke:#1A476F;stroke-width:8.64"/>
	<line x1="564.42" y1="989.41" x2="580.14" y2="1235.81" stroke-linecap="round" style="stroke:#1A476F;stroke-width:8.64"/>
	<line x1="580.14" y1="1235.81" x2="595.98" y2="1141.88" stroke-linecap="round" style="stroke:#1A476F;stroke-width:8.64"/>
	<line x1="595.98" y1="1141.88" x2="611.70" y2="1882.54" stroke-linecap="round" style="stroke:#1A476F;stroke-width:8.64"/>
	<line x1="611.70" y1="1882.54" x2="627.41" y2="1487.27" stroke-linecap="round" style="stroke:#1A476F;stroke-width:8.64"/>
	<line x1="627.41" y1="1487.27" x2="643.25" y2="900.31" stroke-linecap="round" style="stroke:#1A476F;stroke-width:8.64"/>
	<line x1="643.25" y1="900.31" x2="658.97" y2="1889.60" stroke-linecap="round" style="stroke:#1A476F;stroke-width:8.64"/>
	<line x1="658.97" y1="1889.60" x2="674.81" y2="1418.10" stroke-linecap="round" style="stroke:#1A476F;stroke-width:8.64"/>
	<line x1="674.81" y1="1418.10" x2="690.52" y2="1867.69" stroke-linecap="round" style="stroke:#1A476F;stroke-width:8.64"/>
	<line x1="690.52" y1="1867.69" x2="706.24" y2="1304.61" stroke-linecap="round" style="stroke:#1A476F;stroke-width:8.64"/>
	<line x1="706.24" y1="1304.61" x2="722.08" y2="943.87" stroke-linecap="round" style="stroke:#1A476F;stroke-width:8.64"/>
	<line x1="722.08" y1="943.87" x2="737.80" y2="1224.92" stroke-linecap="round" style="stroke:#1A476F;stroke-width:8.64"/>
	<line x1="737.80" y1="1224.92" x2="753.51" y2="1072.82" stroke-linecap="round" style="stroke:#1A476F;stroke-width:8.64"/>
	<line x1="753.51" y1="1072.82" x2="769.35" y2="1170.46" stroke-linecap="round" style="stroke:#1A476F;stroke-width:8.64"/>
	<line x1="769.35" y1="1170.46" x2="785.07" y2="1549.15" stroke-linecap="round" style="stroke:#1A476F;stroke-width:8.64"/>
	<line x1="785.07" y1="1549.15" x2="800.79" y2="1436.78" stroke-linecap="round" style="stroke:#1A476F;stroke-width:8.64"/>
	<line x1="800.79" y1="1436.78" x2="816.63" y2="1579.10" stroke-linecap="round" style="stroke:#1A476F;stroke-width:8.64"/>
	<line x1="816.63" y1="1579.10" x2="832.34" y2="1237.17" stroke-linecap="round" style="stroke:#1A476F;stroke-width:8.64"/>
	<line x1="832.34" y1="1237.17" x2="848.18" y2="1279.86" stroke-linecap="round" style="stroke:#1A476F;stroke-width:8.64"/>
	<line x1="848.18" y1="1279.86" x2="863.90" y2="1148.06" stroke-linecap="round" style="stroke:#1A476F;stroke-width:8.64"/>
	<line x1="863.90" y1="1148.06" x2="879.62" y2="1333.57" stroke-linecap="round" style="stroke:#1A476F;stroke-width:8.64"/>
	<line x1="879.62" y1="1333.57" x2="895.46" y2="1068.86" stroke-linecap="round" style="stroke:#1A476F;stroke-width:8.64"/>
	<line x1="895.46" y1="1068.86" x2="911.17" y2="1447.18" stroke-linecap="round" style="stroke:#1A476F;stroke-width:8.64"/>
	<line x1="911.17" y1="1447.18" x2="926.89" y2="1295.58" stroke-linecap="round" style="stroke:#1A476F;stroke-width:8.64"/>
	<line x1="926.89" y1="1295.58" x2="942.73" y2="1551.87" stroke-linecap="round" style="stroke:#1A476F;stroke-width:8.64"/>
	<line x1="942.73" y1="1551.87" x2="958.44" y2="889.42" stroke-linecap="round" style="stroke:#1A476F;stroke-width:8.64"/>
	<line x1="958.44" y1="889.42" x2="974.28" y2="1337.78" stroke-linecap="round" style="stroke:#1A476F;stroke-width:8.64"/>
	<line x1="974.28" y1="1337.78" x2="990.00" y2="1148.31" stroke-linecap="round" style="stroke:#1A476F;stroke-width:8.64"/>
	<line x1="990.00" y1="1148.31" x2="1005.72" y2="953.03" stroke-linecap="round" style="stroke:#1A476F;stroke-width:8.64"/>
	<line x1="1005.72" y1="953.03" x2="1021.56" y2="1099.92" stroke-linecap="round" style="stroke:#1A476F;stroke-width:8.64"/>
	<line x1="1021.56" y1="1099.92" x2="1037.27" y2="1608.06" stroke-linecap="round" style="stroke:#1A476F;stroke-width:8.64"/>
	<line x1="1037.27" y1="1608.06" x2="1052.99" y2="1305.85" stroke-linecap="round" style="stroke:#1A476F;stroke-width:8.64"/>
	<line x1="1052.99" y1="1305.85" x2="1068.83" y2="1315.50" stroke-linecap="round" style="stroke:#1A476F;stroke-width:8.64"/>
	<line x1="1068.83" y1="1315.50" x2="1084.55" y2="1424.16" stroke-linecap="round" style="stroke:#1A476F;stroke-width:8.64"/>
	<line x1="1084.55" y1="1424.16" x2="1100.38" y2="1545.93" stroke-linecap="round" style="stroke:#1A476F;stroke-width:8.64"/>
	<line x1="1100.38" y1="1545.93" x2="1116.10" y2="1160.07" stroke-linecap="round" style="stroke:#1A476F;stroke-width:8.64"/>
	<line x1="1116.10" y1="1160.07" x2="1131.82" y2="1214.15" stroke-linecap="round" style="stroke:#1A476F;stroke-width:8.64"/>
	<line x1="1131.82" y1="1214.15" x2="1147.66" y2="891.77" stroke-linecap="round" style="stroke:#1A476F;stroke-width:8.64"/>
	<line x1="1147.66" y1="891.77" x2="1163.37" y2="1110.57" stroke-linecap="round" style="stroke:#1A476F;stroke-width:8.64"/>
	<line x1="1163.37" y1="1110.57" x2="1179.09" y2="1461.66" stroke-linecap="round" style="stroke:#1A476F;stroke-width:8.64"/>
	<line x1="1179.09" y1="1461.66" x2="1194.93" y2="1301.52" stroke-linecap="round" style="stroke:#1A476F;stroke-width:8.64"/>
	<line x1="1194.93" y1="1301.52" x2="1210.65" y2="1096.95" stroke-linecap="round" style="stroke:#1A476F;stroke-width:8.64"/>
	<line x1="1210.65" y1="1096.95" x2="1226.36" y2="1436.91" stroke-linecap="round" style="stroke:#1A476F;stroke-width:8.64"/>
	<line x1="1226.36" y1="1436.91" x2="1242.20" y2="1195.96" stroke-linecap="round" style="stroke:#1A476F;stroke-width:8.64"/>
	<line x1="1242.20" y1="1195.96" x2="1257.92" y2="1573.04" stroke-linecap="round" style="stroke:#1A476F;stroke-width:8.64"/>
	<line x1="1257.92" y1="1573.04" x2="1273.76" y2="1374.29" stroke-linecap="round" style="stroke:#1A476F;stroke-width:8.64"/>
	<line x1="1273.76" y1="1374.29" x2="1289.47" y2="1249.17" stroke-linecap="round" style="stroke:#1A476F;stroke-width:8.64"/>
	<line x1="1289.47" y1="1249.17" x2="1305.19" y2="1283.45" stroke-linecap="round" style="stroke:#1A476F;stroke-width:8.64"/>
	<line x1="1305.19" y1="1283.45" x2="1321.03" y2="1676.00" stroke-linecap="round" style="stroke:#1A476F;stroke-width:8.64"/>
	<line x1="1321.03" y1="1676.00" x2="1336.75" y2="435.74" stroke-linecap="round" style="stroke:#1A476F;stroke-width:8.64"/>
	<line x1="1336.75" y1="435.74" x2="1352.46" y2="1429.23" stroke-linecap="round" style="stroke:#1A476F;stroke-width:8.64"/>
	<line x1="1352.46" y1="1429.23" x2="1368.30" y2="1372.31" stroke-linecap="round" style="stroke:#1A476F;stroke-width:8.64"/>
	<line x1="1368.30" y1="1372.31" x2="1384.02" y2="1437.77" stroke-linecap="round" style="stroke:#1A476F;stroke-width:8.64"/>
	<line x1="1384.02" y1="1437.77" x2="1399.86" y2="840.04" stroke-linecap="round" style="stroke:#1A476F;stroke-width:8.64"/>
	<line x1="1399.86" y1="840.04" x2="1415.58" y2="1119.48" stroke-linecap="round" style="stroke:#1A476F;stroke-width:8.64"/>
	<line x1="1415.58" y1="1119.48" x2="1431.29" y2="1379.48" stroke-linecap="round" style="stroke:#1A476F;stroke-width:8.64"/>
	<line x1="1431.29" y1="1379.48" x2="1447.13" y2="982.98" stroke-linecap="round" style="stroke:#1A476F;stroke-width:8.64"/>
	<line x1="1447.13" y1="982.98" x2="1462.85" y2="904.02" stroke-linecap="round" style="stroke:#1A476F;stroke-width:8.64"/>
	<line x1="1462.85" y1="904.02" x2="1478.57" y2="1259.94" stroke-linecap="round" style="stroke:#1A476F;stroke-width:8.64"/>
	<line x1="1478.57" y1="1259.94" x2="1494.40" y2="1527.99" stroke-linecap="round" style="stroke:#1A476F;stroke-width:8.64"/>
	<line x1="1494.40" y1="1527.99" x2="1510.12" y2="995.10" stroke-linecap="round" style="stroke:#1A476F;stroke-width:8.64"/>
	<line x1="1510.12" y1="995.10" x2="1525.96" y2="1633.06" stroke-linecap="round" style="stroke:#1A476F;stroke-width:8.64"/>
	<line x1="1525.96" y1="1633.06" x2="1541.68" y2="1019.98" stroke-linecap="round" style="stroke:#1A476F;stroke-width:8.64"/>
	<line x1="1541.68" y1="1019.98" x2="1557.39" y2="1262.66" stroke-linecap="round" style="stroke:#1A476F;stroke-width:8.64"/>
	<line x1="1557.39" y1="1262.66" x2="1573.23" y2="1139.90" stroke-linecap="round" style="stroke:#1A476F;stroke-width:8.64"/>
	<line x1="1573.23" y1="1139.90" x2="1588.95" y2="1519.94" stroke-linecap="round" style="stroke:#1A476F;stroke-width:8.64"/>
	<line x1="1588.95" y1="1519.94" x2="1604.67" y2="1144.97" stroke-linecap="round" style="stroke:#1A476F;stroke-width:8.64"/>
	<line x1="1604.67" y1="1144.97" x2="1620.51" y2="811.95" stroke-linecap="round" style="stroke:#1A476F;stroke-width:8.64"/>
	<line x1="1620.51" y1="811.95" x2="1636.22" y2="1115.39" stroke-linecap="round" style="stroke:#1A476F;stroke-width:8.64"/>
	<line x1="1636.22" y1="1115.39" x2="1652.06" y2="992.38" stroke-linecap="round" style="stroke:#1A476F;stroke-width:8.64"/>
	<line x1="1652.06" y1="992.38" x2="1667.78" y2="1476.38" stroke-linecap="round" style="stroke:#1A476F;stroke-width:8.64"/>
	<line x1="1667.78" y1="1476.38" x2="1683.49" y2="1379.11" stroke-linecap="round" style="stroke:#1A476F;stroke-width:8.64"/>
	<line x1="1683.49" y1="1379.11" x2="1699.34" y2="1098.56" stroke-linecap="round" style="stroke:#1A476F;stroke-width:8.64"/>
	<line x1="1699.34" y1="1098.56" x2="1715.05" y2="1092.38" stroke-linecap="round" style="stroke:#1A476F;stroke-width:8.64"/>
	<line x1="1715.05" y1="1092.38" x2="1730.77" y2="927.78" stroke-linecap="round" style="stroke:#1A476F;stroke-width:8.64"/>
	<line x1="1730.77" y1="927.78" x2="1746.61" y2="1112.30" stroke-linecap="round" style="stroke:#1A476F;stroke-width:8.64"/>
	<line x1="1746.61" y1="1112.30" x2="1762.32" y2="1366.37" stroke-linecap="round" style="stroke:#1A476F;stroke-width:8.64"/>
	<line x1="1762.32" y1="1366.37" x2="1778.04" y2="1373.79" stroke-linecap="round" style="stroke:#1A476F;stroke-width:8.64"/>
	<line x1="1778.04" y1="1373.79" x2="1793.88" y2="238.10" stroke-linecap="round" style="stroke:#1A476F;stroke-width:8.64"/>
	<line x1="1793.88" y1="238.10" x2="1809.60" y2="1419.58" stroke-linecap="round" style="stroke:#1A476F;stroke-width:8.64"/>
	<line x1="1809.60" y1="1419.58" x2="1825.44" y2="1024.81" stroke-linecap="round" style="stroke:#1A476F;stroke-width:8.64"/>
	<line x1="1825.44" y1="1024.81" x2="1841.15" y2="1403.00" stroke-linecap="round" style="stroke:#1A476F;stroke-width:8.64"/>
	<line x1="1841.15" y1="1403.00" x2="1856.87" y2="1264.76" stroke-linecap="round" style="stroke:#1A476F;stroke-width:8.64"/>
	<line x1="1856.87" y1="1264.76" x2="1872.71" y2="1038.29" stroke-linecap="round" style="stroke:#1A476F;stroke-width:8.64"/>
	<line x1="1872.71" y1="1038.29" x2="1888.42" y2="1297.68" stroke-linecap="round" style="stroke:#1A476F;stroke-width:8.64"/>
	<line x1="1888.42" y1="1297.68" x2="1904.14" y2="1173.19" stroke-linecap="round" style="stroke:#1A476F;stroke-width:8.64"/>
	<line x1="1904.14" y1="1173.19" x2="1919.98" y2="1821.04" stroke-linecap="round" style="stroke:#1A476F;stroke-width:8.64"/>
	<line x1="1919.98" y1="1821.04" x2="1935.70" y2="1100.79" stroke-linecap="round" style="stroke:#1A476F;stroke-width:8.64"/>
	<line x1="1935.70" y1="1100.79" x2="1951.54" y2="464.57" stroke-linecap="round" style="stroke:#1A476F;stroke-width:8.64"/>
	<line x1="1951.54" y1="464.57" x2="1967.25" y2="777.30" stroke-linecap="round" style="stroke:#1A476F;stroke-width:8.64"/>
	<line x1="1967.25" y1="777.30" x2="1982.97" y2="1763.62" stroke-linecap="round" style="stroke:#1A476F;stroke-width:8.64"/>
	<line x1="1982.97" y1="1763.62" x2="1998.81" y2="1000.92" stroke-linecap="round" style="stroke:#1A476F;stroke-width:8.64"/>
	<line x1="1998.81" y1="1000.92" x2="2014.53" y2="1811.01" stroke-linecap="round" style="stroke:#1A476F;stroke-width:8.64"/>
	<line x1="2014.53" y1="1811.01" x2="2030.24" y2="1860.39" stroke-linecap="round" style="stroke:#1A476F;stroke-width:8.64"/>
	<line x1="2030.24" y1="1860.39" x2="2046.08" y2="1006.61" stroke-linecap="round" style="stroke:#1A476F;stroke-width:8.64"/>
	<line x1="2046.08" y1="1006.61" x2="2061.80" y2="1455.22" stroke-linecap="round" style="stroke:#1A476F;stroke-width:8.64"/>
	<line x1="2061.80" y1="1455.22" x2="2077.64" y2="1326.02" stroke-linecap="round" style="stroke:#1A476F;stroke-width:8.64"/>
	<line x1="2077.64" y1="1326.02" x2="2093.36" y2="1057.35" stroke-linecap="round" style="stroke:#1A476F;stroke-width:8.64"/>
	<line x1="2093.36" y1="1057.35" x2="2109.07" y2="989.29" stroke-linecap="round" style="stroke:#1A476F;stroke-width:8.64"/>
	<line x1="2109.07" y1="989.29" x2="2124.91" y2="1040.40" stroke-linecap="round" style="stroke:#1A476F;stroke-width:8.64"/>
	<line x1="2124.91" y1="1040.40" x2="2140.63" y2="1144.48" stroke-linecap="round" style="stroke:#1A476F;stroke-width:8.64"/>
	<line x1="2140.63" y1="1144.48" x2="2156.34" y2="1046.09" stroke-linecap="round" style="stroke:#1A476F;stroke-width:8.64"/>
	<line x1="2156.34" y1="1046.09" x2="2172.18" y2="1257.46" stroke-linecap="round" style="stroke:#1A476F;stroke-width:8.64"/>
	<line x1="2172.18" y1="1257.46" x2="2187.90" y2="1435.42" stroke-linecap="round" style="stroke:#1A476F;stroke-width:8.64"/>
	<line x1="2187.90" y1="1435.42" x2="2203.74" y2="1418.47" stroke-linecap="round" style="stroke:#1A476F;stroke-width:8.64"/>
	<line x1="2203.74" y1="1418.47" x2="2219.46" y2="1207.34" stroke-linecap="round" style="stroke:#1A476F;stroke-width:8.64"/>
	<line x1="2219.46" y1="1207.34" x2="2235.17" y2="1400.77" stroke-linecap="round" style="stroke:#1A476F;stroke-width:8.64"/>
	<line x1="2235.17" y1="1400.77" x2="2251.01" y2="1189.03" stroke-linecap="round" style="stroke:#1A476F;stroke-width:8.64"/>
	<line x1="2251.01" y1="1189.03" x2="2266.73" y2="1376.39" stroke-linecap="round" style="stroke:#1A476F;stroke-width:8.64"/>
	<line x1="2266.73" y1="1376.39" x2="2282.45" y2="1353.74" stroke-linecap="round" style="stroke:#1A476F;stroke-width:8.64"/>
	<line x1="2282.45" y1="1353.74" x2="2298.28" y2="1474.03" stroke-linecap="round" style="stroke:#1A476F;stroke-width:8.64"/>
	<line x1="2298.28" y1="1474.03" x2="2314.00" y2="1275.53" stroke-linecap="round" style="stroke:#1A476F;stroke-width:8.64"/>
	<line x1="2314.00" y1="1275.53" x2="2329.72" y2="1396.56" stroke-linecap="round" style="stroke:#1A476F;stroke-width:8.64"/>
	<line x1="2329.72" y1="1396.56" x2="2345.56" y2="1294.71" stroke-linecap="round" style="stroke:#1A476F;stroke-width:8.64"/>
	<line x1="2345.56" y1="1294.71" x2="2361.27" y2="1252.02" stroke-linecap="round" style="stroke:#1A476F;stroke-width:8.64"/>
	<line x1="2361.27" y1="1252.02" x2="2377.11" y2="1299.17" stroke-linecap="round" style="stroke:#1A476F;stroke-width:8.64"/>
	<line x1="2377.11" y1="1299.17" x2="2392.83" y2="1061.81" stroke-linecap="round" style="stroke:#1A476F;stroke-width:8.64"/>
	<line x1="2392.83" y1="1061.81" x2="2408.55" y2="1465.00" stroke-linecap="round" style="stroke:#1A476F;stroke-width:8.64"/>
	<line x1="2408.55" y1="1465.00" x2="2424.39" y2="1146.33" stroke-linecap="round" style="stroke:#1A476F;stroke-width:8.64"/>
	<line x1="2424.39" y1="1146.33" x2="2440.10" y2="1344.96" stroke-linecap="round" style="stroke:#1A476F;stroke-width:8.64"/>
	<line x1="2440.10" y1="1344.96" x2="2455.82" y2="1232.71" stroke-linecap="round" style="stroke:#1A476F;stroke-width:8.64"/>
	<line x1="2455.82" y1="1232.71" x2="2471.66" y2="1181.85" stroke-linecap="round" style="stroke:#1A476F;stroke-width:8.64"/>
	<line x1="2471.66" y1="1181.85" x2="2487.38" y2="1390.13" stroke-linecap="round" style="stroke:#1A476F;stroke-width:8.64"/>
	<line x1="2487.38" y1="1390.13" x2="2503.22" y2="1375.15" stroke-linecap="round" style="stroke:#1A476F;stroke-width:8.64"/>
	<line x1="2503.22" y1="1375.15" x2="2518.93" y2="1487.03" stroke-linecap="round" style="stroke:#1A476F;stroke-width:8.64"/>
	<line x1="2518.93" y1="1487.03" x2="2534.65" y2="1048.94" stroke-linecap="round" style="stroke:#1A476F;stroke-width:8.64"/>
	<line x1="2534.65" y1="1048.94" x2="2550.49" y2="1396.93" stroke-linecap="round" style="stroke:#1A476F;stroke-width:8.64"/>
	<line x1="2550.49" y1="1396.93" x2="2566.20" y2="1510.04" stroke-linecap="round" style="stroke:#1A476F;stroke-width:8.64"/>
	<line x1="2566.20" y1="1510.04" x2="2581.92" y2="1671.42" stroke-linecap="round" style="stroke:#1A476F;stroke-width:8.64"/>
	<line x1="2581.92" y1="1671.42" x2="2597.76" y2="1432.20" stroke-linecap="round" style="stroke:#1A476F;stroke-width:8.64"/>
	<line x1="2597.76" y1="1432.20" x2="2613.48" y2="1246.94" stroke-linecap="round" style="stroke:#1A476F;stroke-width:8.64"/>
	<line x1="2613.48" y1="1246.94" x2="2629.32" y2="1341.00" stroke-linecap="round" style="stroke:#1A476F;stroke-width:8.64"/>
	<line x1="2629.32" y1="1341.00" x2="2645.03" y2="1389.14" stroke-linecap="round" style="stroke:#1A476F;stroke-width:8.64"/>
	<line x1="2645.03" y1="1389.14" x2="2660.75" y2="1215.51" stroke-linecap="round" style="stroke:#1A476F;stroke-width:8.64"/>
	<line x1="2660.75" y1="1215.51" x2="2676.59" y2="1324.91" stroke-linecap="round" style="stroke:#1A476F;stroke-width:8.64"/>
	<line x1="2676.59" y1="1324.91" x2="2692.30" y2="1346.19" stroke-linecap="round" style="stroke:#1A476F;stroke-width:8.64"/>
	<line x1="2692.30" y1="1346.19" x2="2708.02" y2="1276.27" stroke-linecap="round" style="stroke:#1A476F;stroke-width:8.64"/>
	<line x1="2708.02" y1="1276.27" x2="2723.86" y2="1514.00" stroke-linecap="round" style="stroke:#1A476F;stroke-width:8.64"/>
	<line x1="2723.86" y1="1514.00" x2="2739.58" y2="1397.18" stroke-linecap="round" style="stroke:#1A476F;stroke-width:8.64"/>
	<line x1="2739.58" y1="1397.18" x2="2755.29" y2="1417.11" stroke-linecap="round" style="stroke:#1A476F;stroke-width:8.64"/>
	<line x1="2755.29" y1="1417.11" x2="2771.13" y2="1159.33" stroke-linecap="round" style="stroke:#1A476F;stroke-width:8.64"/>
	<line x1="2771.13" y1="1159.33" x2="2786.85" y2="1281.35" stroke-linecap="round" style="stroke:#1A476F;stroke-width:8.64"/>
	<line x1="2786.85" y1="1281.35" x2="2802.69" y2="1275.78" stroke-linecap="round" style="stroke:#1A476F;stroke-width:8.64"/>
	<line x1="2802.69" y1="1275.78" x2="2818.41" y2="1421.44" stroke-linecap="round" style="stroke:#1A476F;stroke-width:8.64"/>
	<line x1="2818.41" y1="1421.44" x2="2834.12" y2="1284.32" stroke-linecap="round" style="stroke:#1A476F;stroke-width:8.64"/>
	<line x1="2834.12" y1="1284.32" x2="2849.96" y2="1496.18" stroke-linecap="round" style="stroke:#1A476F;stroke-width:8.64"/>
	<line x1="2849.96" y1="1496.18" x2="2865.68" y2="1550.88" stroke-linecap="round" style="stroke:#1A476F;stroke-width:8.64"/>
	<line x1="2865.68" y1="1550.88" x2="2881.39" y2="1266.00" stroke-linecap="round" style="stroke:#1A476F;stroke-width:8.64"/>
	<line x1="2881.39" y1="1266.00" x2="2897.24" y2="1356.84" stroke-linecap="round" style="stroke:#1A476F;stroke-width:8.64"/>
	<line x1="2897.24" y1="1356.84" x2="2912.95" y2="1312.78" stroke-linecap="round" style="stroke:#1A476F;stroke-width:8.64"/>
	<line x1="2912.95" y1="1312.78" x2="2928.79" y2="1135.44" stroke-linecap="round" style="stroke:#1A476F;stroke-width:8.64"/>
	<line x1="2928.79" y1="1135.44" x2="2944.51" y2="1468.09" stroke-linecap="round" style="stroke:#1A476F;stroke-width:8.64"/>
	<line x1="2944.51" y1="1468.09" x2="2960.22" y2="1248.55" stroke-linecap="round" style="stroke:#1A476F;stroke-width:8.64"/>
	<line x1="2960.22" y1="1248.55" x2="2976.06" y2="1355.48" stroke-linecap="round" style="stroke:#1A476F;stroke-width:8.64"/>
	<line x1="2976.06" y1="1355.48" x2="2991.78" y2="1295.21" stroke-linecap="round" style="stroke:#1A476F;stroke-width:8.64"/>
	<line x1="2991.78" y1="1295.21" x2="3007.50" y2="1294.71" stroke-linecap="round" style="stroke:#1A476F;stroke-width:8.64"/>
	<line x1="3007.50" y1="1294.71" x2="3023.34" y2="1469.21" stroke-linecap="round" style="stroke:#1A476F;stroke-width:8.64"/>
	<line x1="3023.34" y1="1469.21" x2="3039.05" y2="1322.68" stroke-linecap="round" style="stroke:#1A476F;stroke-width:8.64"/>
	<line x1="3039.05" y1="1322.68" x2="3054.89" y2="1488.39" stroke-linecap="round" style="stroke:#1A476F;stroke-width:8.64"/>
	<line x1="3054.89" y1="1488.39" x2="3070.61" y2="1257.34" stroke-linecap="round" style="stroke:#1A476F;stroke-width:8.64"/>
	<line x1="3070.61" y1="1257.34" x2="3086.32" y2="1183.71" stroke-linecap="round" style="stroke:#1A476F;stroke-width:8.64"/>
	<line x1="3086.32" y1="1183.71" x2="3102.16" y2="1425.27" stroke-linecap="round" style="stroke:#1A476F;stroke-width:8.64"/>
	<line x1="3102.16" y1="1425.27" x2="3117.88" y2="1383.20" stroke-linecap="round" style="stroke:#1A476F;stroke-width:8.64"/>
	<line x1="3117.88" y1="1383.20" x2="3133.60" y2="1290.63" stroke-linecap="round" style="stroke:#1A476F;stroke-width:8.64"/>
	<line x1="3133.60" y1="1290.63" x2="3149.44" y2="1134.70" stroke-linecap="round" style="stroke:#1A476F;stroke-width:8.64"/>
	<line x1="3149.44" y1="1134.70" x2="3165.15" y2="1473.04" stroke-linecap="round" style="stroke:#1A476F;stroke-width:8.64"/>
	<line x1="3165.15" y1="1473.04" x2="3180.99" y2="1168.73" stroke-linecap="round" style="stroke:#1A476F;stroke-width:8.64"/>
	<line x1="3180.99" y1="1168.73" x2="3196.71" y2="1670.31" stroke-linecap="round" style="stroke:#1A476F;stroke-width:8.64"/>
	<line x1="3196.71" y1="1670.31" x2="3212.43" y2="1424.41" stroke-linecap="round" style="stroke:#1A476F;stroke-width:8.64"/>
	<line x1="3212.43" y1="1424.41" x2="3228.27" y2="1446.81" stroke-linecap="round" style="stroke:#1A476F;stroke-width:8.64"/>
	<line x1="3228.27" y1="1446.81" x2="3243.98" y2="1369.46" stroke-linecap="round" style="stroke:#1A476F;stroke-width:8.64"/>
	<line x1="3243.98" y1="1369.46" x2="3259.70" y2="1620.80" stroke-linecap="round" style="stroke:#1A476F;stroke-width:8.64"/>
	<line x1="3259.70" y1="1620.80" x2="3275.54" y2="1335.68" stroke-linecap="round" style="stroke:#1A476F;stroke-width:8.64"/>
	<line x1="3275.54" y1="1335.68" x2="3291.26" y2="1333.94" stroke-linecap="round" style="stroke:#1A476F;stroke-width:8.64"/>
	<line x1="3291.26" y1="1333.94" x2="3306.97" y2="1424.78" stroke-linecap="round" style="stroke:#1A476F;stroke-width:8.64"/>
	<line x1="3306.97" y1="1424.78" x2="3322.81" y2="1368.97" stroke-linecap="round" style="stroke:#1A476F;stroke-width:8.64"/>
	<line x1="3322.81" y1="1368.97" x2="3338.53" y2="1505.34" stroke-linecap="round" style="stroke:#1A476F;stroke-width:8.64"/>
	<line x1="3338.53" y1="1505.34" x2="3354.37" y2="1341.49" stroke-linecap="round" style="stroke:#1A476F;stroke-width:8.64"/>
	<line x1="3354.37" y1="1341.49" x2="3370.08" y2="1334.19" stroke-linecap="round" style="stroke:#1A476F;stroke-width:8.64"/>
	<line x1="3370.08" y1="1334.19" x2="3385.80" y2="1040.89" stroke-linecap="round" style="stroke:#1A476F;stroke-width:8.64"/>
	<line x1="3385.80" y1="1040.89" x2="3401.64" y2="1450.52" stroke-linecap="round" style="stroke:#1A476F;stroke-width:8.64"/>
	<line x1="3401.64" y1="1450.52" x2="3417.36" y2="1217.00" stroke-linecap="round" style="stroke:#1A476F;stroke-width:8.64"/>
	<line x1="3417.36" y1="1217.00" x2="3433.07" y2="1233.45" stroke-linecap="round" style="stroke:#1A476F;stroke-width:8.64"/>
	<line x1="3433.07" y1="1233.45" x2="3448.91" y2="1466.61" stroke-linecap="round" style="stroke:#1A476F;stroke-width:8.64"/>
	<line x1="3448.91" y1="1466.61" x2="3464.63" y2="1318.35" stroke-linecap="round" style="stroke:#1A476F;stroke-width:8.64"/>
	<line x1="3464.63" y1="1318.35" x2="3480.47" y2="1271.08" stroke-linecap="round" style="stroke:#1A476F;stroke-width:8.64"/>
	<line x1="3480.47" y1="1271.08" x2="3496.18" y2="1373.05" stroke-linecap="round" style="stroke:#1A476F;stroke-width:8.64"/>
	<line x1="3496.18" y1="1373.05" x2="3511.90" y2="1211.67" stroke-linecap="round" style="stroke:#1A476F;stroke-width:8.64"/>
	<line x1="3511.90" y1="1211.67" x2="3527.74" y2="1423.05" stroke-linecap="round" style="stroke:#1A476F;stroke-width:8.64"/>
	<line x1="3527.74" y1="1423.05" x2="3543.46" y2="1129.87" stroke-linecap="round" style="stroke:#1A476F;stroke-width:8.64"/>
	<line x1="3543.46" y1="1129.87" x2="3559.17" y2="1384.56" stroke-linecap="round" style="stroke:#1A476F;stroke-width:8.64"/>
	<line x1="390.80" y1="2489.19" x2="390.80" y2="100.86" style="stroke:#000000;stroke-width:5.76"/>
	<line x1="390.80" y1="2425.82" x2="350.83" y2="2425.82" style="stroke:#000000;stroke-width:5.76"/>
	<text x="300.72" y="2425.82" style="font-family:'Helvetica';font-size:99.99px;fill:#000000" transform="rotate(-90 300.72,2425.82)" text-anchor="middle">-.04</text>
	<line x1="390.80" y1="1860.39" x2="350.83" y2="1860.39" style="stroke:#000000;stroke-width:5.76"/>
	<text x="300.72" y="1860.39" style="font-family:'Helvetica';font-size:99.99px;fill:#000000" transform="rotate(-90 300.72,1860.39)" text-anchor="middle">-.02</text>
	<line x1="390.80" y1="1294.96" x2="350.83" y2="1294.96" style="stroke:#000000;stroke-width:5.76"/>
	<text x="300.72" y="1294.96" style="font-family:'Helvetica';font-size:99.99px;fill:#000000" transform="rotate(-90 300.72,1294.96)" text-anchor="middle">0</text>
	<line x1="390.80" y1="729.53" x2="350.83" y2="729.53" style="stroke:#000000;stroke-width:5.76"/>
	<text x="300.72" y="729.53" style="font-family:'Helvetica';font-size:99.99px;fill:#000000" transform="rotate(-90 300.72,729.53)" text-anchor="middle">.02</text>
	<line x1="390.80" y1="164.22" x2="350.83" y2="164.22" style="stroke:#000000;stroke-width:5.76"/>
	<text x="300.72" y="164.22" style="font-family:'Helvetica';font-size:99.99px;fill:#000000" transform="rotate(-90 300.72,164.22)" text-anchor="middle">.04</text>
	<text x="190.71" y="1294.96" style="font-family:'Helvetica';font-size:99.99px;fill:#000000" transform="rotate(-90 190.71,1294.96)" text-anchor="middle">residual, one-step</text>
	<line x1="390.80" y1="2489.19" x2="3859.02" y2="2489.19" style="stroke:#000000;stroke-width:5.76"/>
	<line x1="643.25" y1="2489.19" x2="643.25" y2="2529.16" style="stroke:#000000;stroke-width:5.76"/>
	<text x="643.25" y="2619.14" style="font-family:'Helvetica';font-size:99.99px;fill:#000000" text-anchor="middle">1960q1</text>
	<line x1="1273.76" y1="2489.19" x2="1273.76" y2="2529.16" style="stroke:#000000;stroke-width:5.76"/>
	<text x="1273.76" y="2619.14" style="font-family:'Helvetica';font-size:99.99px;fill:#000000" text-anchor="middle">1970q1</text>
	<line x1="1904.27" y1="2489.19" x2="1904.27" y2="2529.16" style="stroke:#000000;stroke-width:5.76"/>
	<text x="1904.27" y="2619.14" style="font-family:'Helvetica';font-size:99.99px;fill:#000000" text-anchor="middle">1980q1</text>
	<line x1="2534.77" y1="2489.19" x2="2534.77" y2="2529.16" style="stroke:#000000;stroke-width:5.76"/>
	<text x="2534.77" y="2619.14" style="font-family:'Helvetica';font-size:99.99px;fill:#000000" text-anchor="middle">1990q1</text>
	<line x1="3165.28" y1="2489.19" x2="3165.28" y2="2529.16" style="stroke:#000000;stroke-width:5.76"/>
	<text x="3165.28" y="2619.14" style="font-family:'Helvetica';font-size:99.99px;fill:#000000" text-anchor="middle">2000q1</text>
	<line x1="3795.66" y1="2489.19" x2="3795.66" y2="2529.16" style="stroke:#000000;stroke-width:5.76"/>
	<text x="3795.66" y="2619.14" style="font-family:'Helvetica';font-size:99.99px;fill:#000000" text-anchor="middle">2010q1</text>
	<text x="2124.91" y="2729.16" style="font-family:'Helvetica';font-size:99.99px;fill:#000000" text-anchor="middle">time_2</text>
</svg>
