<?xml version="1.0" encoding="UTF-8" standalone="no"?>
<!-- This is a Stata 15.0 generated SVG file (http://www.stata.com) -->

<svg version="1.1" width="5.50in" height="4.00in" viewBox="0 0 3960 2880" xmlns="http://www.w3.org/2000/svg" xmlns:xlink="http://www.w3.org/1999/xlink">
	<desc>Stata Graph - Graph</desc>
	<rect x="0" y="0" width="3960" height="2880" style="fill:#EAF2F3;stroke:none"/>
	<rect x="0.00" y="0.00" width="3959.88" height="2880.00" style="fill:#EAF2F3"/>
	<rect x="2.88" y="2.88" width="3954.12" height="2874.24" style="fill:none;stroke:#EAF2F3;stroke-width:5.76"/>
	<rect x="290.81" y="100.86" width="3568.21" height="2132.77" style="fill:#FFFFFF"/>
	<rect x="293.69" y="103.74" width="3562.45" height="2127.01" style="fill:none;stroke:#FFFFFF;stroke-width:5.76"/>
	<line x1="290.81" y1="2170.27" x2="3859.02" y2="2170.27" style="stroke:#EAF2F3;stroke-width:8.64"/>
	<line x1="290.81" y1="1668.82" x2="3859.02" y2="1668.82" style="stroke:#EAF2F3;stroke-width:8.64"/>
	<line x1="290.81" y1="1167.25" x2="3859.02" y2="1167.25" style="stroke:#EAF2F3;stroke-width:8.64"/>
	<line x1="290.81" y1="665.67" x2="3859.02" y2="665.67" style="stroke:#EAF2F3;stroke-width:8.64"/>
	<line x1="354.05" y1="1888.61" x2="461.59" y2="1859.03" stroke-linecap="round" style="stroke:#1A476F;stroke-width:8.64"/>
	<line x1="461.59" y1="1859.03" x2="569.13" y2="1821.29" stroke-linecap="round" style="stroke:#1A476F;stroke-width:8.64"/>
	<line x1="569.13" y1="1821.29" x2="676.79" y2="1766.46" stroke-linecap="round" style="stroke:#1A476F;stroke-width:8.64"/>
	<line x1="676.79" y1="1766.46" x2="784.33" y2="1737.63" stroke-linecap="round" style="stroke:#1A476F;stroke-width:8.64"/>
	<line x1="784.33" y1="1737.63" x2="891.87" y2="1687.76" stroke-linecap="round" style="stroke:#1A476F;stroke-width:8.64"/>
	<line x1="891.87" y1="1687.76" x2="999.40" y2="1677.73" stroke-linecap="round" style="stroke:#1A476F;stroke-width:8.64"/>
	<line x1="999.40" y1="1677.73" x2="1106.94" y2="1654.59" stroke-linecap="round" style="stroke:#1A476F;stroke-width:8.64"/>
	<line x1="1106.94" y1="1654.59" x2="1214.48" y2="1637.51" stroke-linecap="round" style="stroke:#1A476F;stroke-width:8.64"/>
	<line x1="1214.48" y1="1637.51" x2="1322.02" y2="1610.78" stroke-linecap="round" style="stroke:#1A476F;stroke-width:8.64"/>
	<line x1="1322.02" y1="1610.78" x2="1429.56" y2="1609.30" stroke-linecap="round" style="stroke:#1A476F;stroke-width:8.64"/>
	<line x1="1429.56" y1="1609.30" x2="1537.10" y2="1586.77" stroke-linecap="round" style="stroke:#1A476F;stroke-width:8.64"/>
	<line x1="1537.10" y1="1586.77" x2="1644.64" y2="1560.66" stroke-linecap="round" style="stroke:#1A476F;stroke-width:8.64"/>
	<line x1="1644.64" y1="1560.66" x2="1752.18" y2="1538.14" stroke-linecap="round" style="stroke:#1A476F;stroke-width:8.64"/>
	<line x1="1752.18" y1="1538.14" x2="1859.71" y2="1514.00" stroke-linecap="round" style="stroke:#1A476F;stroke-width:8.64"/>
	<line x1="1859.71" y1="1514.00" x2="1967.38" y2="1498.91" stroke-linecap="round" style="stroke:#1A476F;stroke-width:8.64"/>
	<line x1="1967.38" y1="1498.91" x2="2074.92" y2="1471.93" stroke-linecap="round" style="stroke:#1A476F;stroke-width:8.64"/>
	<line x1="2074.92" y1="1471.93" x2="2182.45" y2="1442.60" stroke-linecap="round" style="stroke:#1A476F;stroke-width:8.64"/>
	<line x1="2182.45" y1="1442.60" x2="2289.99" y2="1384.31" stroke-linecap="round" style="stroke:#1A476F;stroke-width:8.64"/>
	<line x1="2289.99" y1="1384.31" x2="2397.53" y2="1354.36" stroke-linecap="round" style="stroke:#1A476F;stroke-width:8.64"/>
	<line x1="2397.53" y1="1354.36" x2="2505.07" y2="1307.58" stroke-linecap="round" style="stroke:#1A476F;stroke-width:8.64"/>
	<line x1="2505.07" y1="1307.58" x2="2612.61" y2="1260.06" stroke-linecap="round" style="stroke:#1A476F;stroke-width:8.64"/>
	<line x1="2612.61" y1="1260.06" x2="2720.15" y2="1228.01" stroke-linecap="round" style="stroke:#1A476F;stroke-width:8.64"/>
	<line x1="2720.15" y1="1228.01" x2="2827.69" y2="1191.87" stroke-linecap="round" style="stroke:#1A476F;stroke-width:8.64"/>
	<line x1="2827.69" y1="1191.87" x2="2935.23" y2="1149.80" stroke-linecap="round" style="stroke:#1A476F;stroke-width:8.64"/>
	<line x1="2935.23" y1="1149.80" x2="3042.76" y2="1114.40" stroke-linecap="round" style="stroke:#1A476F;stroke-width:8.64"/>
	<line x1="3042.76" y1="1114.40" x2="3150.30" y2="1068.61" stroke-linecap="round" style="stroke:#1A476F;stroke-width:8.64"/>
	<line x1="3150.30" y1="1068.61" x2="3257.97" y2="1037.55" stroke-linecap="round" style="stroke:#1A476F;stroke-width:8.64"/>
	<line x1="3257.97" y1="1037.55" x2="3365.51" y2="983.35" stroke-linecap="round" style="stroke:#1A476F;stroke-width:8.64"/>
	<line x1="3365.51" y1="983.35" x2="3473.04" y2="947.21" stroke-linecap="round" style="stroke:#1A476F;stroke-width:8.64"/>
	<line x1="354.05" y1="1874.38" x2="461.59" y2="1838.36" stroke-linecap="round" style="stroke:#90353B;stroke-width:8.64"/>
	<line x1="461.59" y1="1838.36" x2="569.13" y2="1793.81" stroke-linecap="round" style="stroke:#90353B;stroke-width:8.64"/>
	<line x1="569.13" y1="1793.81" x2="676.79" y2="1750.13" stroke-linecap="round" style="stroke:#90353B;stroke-width:8.64"/>
	<line x1="676.79" y1="1750.13" x2="784.33" y2="1705.33" stroke-linecap="round" style="stroke:#90353B;stroke-width:8.64"/>
	<line x1="784.33" y1="1705.33" x2="891.87" y2="1662.01" stroke-linecap="round" style="stroke:#90353B;stroke-width:8.64"/>
	<line x1="891.87" y1="1662.01" x2="999.40" y2="1620.93" stroke-linecap="round" style="stroke:#90353B;stroke-width:8.64"/>
	<line x1="999.40" y1="1620.93" x2="1106.94" y2="1580.58" stroke-linecap="round" style="stroke:#90353B;stroke-width:8.64"/>
	<line x1="1106.94" y1="1580.58" x2="1214.48" y2="1542.10" stroke-linecap="round" style="stroke:#90353B;stroke-width:8.64"/>
	<line x1="1214.48" y1="1542.10" x2="1322.02" y2="1496.56" stroke-linecap="round" style="stroke:#90353B;stroke-width:8.64"/>
	<line x1="1322.02" y1="1496.56" x2="1429.56" y2="1450.89" stroke-linecap="round" style="stroke:#90353B;stroke-width:8.64"/>
	<line x1="1429.56" y1="1450.89" x2="1537.10" y2="1406.83" stroke-linecap="round" style="stroke:#90353B;stroke-width:8.64"/>
	<line x1="1537.10" y1="1406.83" x2="1644.64" y2="1362.90" stroke-linecap="round" style="stroke:#90353B;stroke-width:8.64"/>
	<line x1="1644.64" y1="1362.90" x2="1752.18" y2="1318.84" stroke-linecap="round" style="stroke:#90353B;stroke-width:8.64"/>
	<line x1="1752.18" y1="1318.84" x2="1859.71" y2="1274.79" stroke-linecap="round" style="stroke:#90353B;stroke-width:8.64"/>
	<line x1="1859.71" y1="1274.79" x2="1967.38" y2="1230.73" stroke-linecap="round" style="stroke:#90353B;stroke-width:8.64"/>
	<line x1="1967.38" y1="1230.73" x2="2074.92" y2="1186.68" stroke-linecap="round" style="stroke:#90353B;stroke-width:8.64"/>
	<line x1="2074.92" y1="1186.68" x2="2182.45" y2="1142.74" stroke-linecap="round" style="stroke:#90353B;stroke-width:8.64"/>
	<line x1="2182.45" y1="1142.74" x2="2289.99" y2="1098.69" stroke-linecap="round" style="stroke:#90353B;stroke-width:8.64"/>
	<line x1="2289.99" y1="1098.69" x2="2397.53" y2="1054.63" stroke-linecap="round" style="stroke:#90353B;stroke-width:8.64"/>
	<line x1="2397.53" y1="1054.63" x2="2505.07" y2="1010.57" stroke-linecap="round" style="stroke:#90353B;stroke-width:8.64"/>
	<line x1="2505.07" y1="1010.57" x2="2612.61" y2="966.52" stroke-linecap="round" style="stroke:#90353B;stroke-width:8.64"/>
	<line x1="2612.61" y1="966.52" x2="2720.15" y2="922.59" stroke-linecap="round" style="stroke:#90353B;stroke-width:8.64"/>
	<line x1="2720.15" y1="922.59" x2="2827.69" y2="878.53" stroke-linecap="round" style="stroke:#90353B;stroke-width:8.64"/>
	<line x1="2827.69" y1="878.53" x2="2935.23" y2="834.47" stroke-linecap="round" style="stroke:#90353B;stroke-width:8.64"/>
	<line x1="2935.23" y1="834.47" x2="3042.76" y2="790.42" stroke-linecap="round" style="stroke:#90353B;stroke-width:8.64"/>
	<line x1="3042.76" y1="790.42" x2="3150.30" y2="746.36" stroke-linecap="round" style="stroke:#90353B;stroke-width:8.64"/>
	<line x1="3150.30" y1="746.36" x2="3257.97" y2="702.43" stroke-linecap="round" style="stroke:#90353B;stroke-width:8.64"/>
	<line x1="3257.97" y1="702.43" x2="3365.51" y2="658.37" stroke-linecap="round" style="stroke:#90353B;stroke-width:8.64"/>
	<line x1="3365.51" y1="658.37" x2="3473.04" y2="614.31" stroke-linecap="round" style="stroke:#90353B;stroke-width:8.64"/>
	<line x1="3473.04" y1="614.31" x2="3580.58" y2="570.26" stroke-linecap="round" style="stroke:#90353B;stroke-width:8.64"/>
	<line x1="3580.58" y1="570.26" x2="3688.12" y2="526.20" stroke-linecap="round" style="stroke:#90353B;stroke-width:8.64"/>
	<line x1="290.81" y1="2233.63" x2="290.81" y2="100.86" style="stroke:#000000;stroke-width:5.76"/>
	<line x1="290.81" y1="2170.27" x2="250.84" y2="2170.27" style="stroke:#000000;stroke-width:5.76"/>
	<text x="200.73" y="2170.27" style="font-family:'Helvetica';font-size:99.99px;fill:#000000" transform="rotate(-90 200.73,2170.27)" text-anchor="middle">9</text>
	<line x1="290.81" y1="1668.82" x2="250.84" y2="1668.82" style="stroke:#000000;stroke-width:5.76"/>
	<text x="200.73" y="1668.82" style="font-family:'Helvetica';font-size:99.99px;fill:#000000" transform="rotate(-90 200.73,1668.82)" text-anchor="middle">9.2</text>
	<line x1="290.81" y1="1167.25" x2="250.84" y2="1167.25" style="stroke:#000000;stroke-width:5.76"/>
	<text x="200.73" y="1167.25" style="font-family:'Helvetica';font-size:99.99px;fill:#000000" transform="rotate(-90 200.73,1167.25)" text-anchor="middle">9.4</text>
	<line x1="290.81" y1="665.67" x2="250.84" y2="665.67" style="stroke:#000000;stroke-width:5.76"/>
	<text x="200.73" y="665.67" style="font-family:'Helvetica';font-size:99.99px;fill:#000000" transform="rotate(-90 200.73,665.67)" text-anchor="middle">9.6</text>
	<line x1="290.81" y1="164.22" x2="250.84" y2="164.22" style="stroke:#000000;stroke-width:5.76"/>
	<text x="200.73" y="164.22" style="font-family:'Helvetica';font-size:99.99px;fill:#000000" transform="rotate(-90 200.73,164.22)" text-anchor="middle">9.8</text>
	<line x1="290.81" y1="2233.63" x2="3859.02" y2="2233.63" style="stroke:#000000;stroke-width:5.76"/>
	<line x1="354.17" y1="2233.63" x2="354.17" y2="2273.73" style="stroke:#000000;stroke-width:5.76"/>
	<text x="354.17" y="2363.59" style="font-family:'Helvetica';font-size:99.99px;fill:#000000" text-anchor="middle">1999q1</text>
	<line x1="1214.48" y1="2233.63" x2="1214.48" y2="2273.73" style="stroke:#000000;stroke-width:5.76"/>
	<text x="1214.48" y="2363.59" style="font-family:'Helvetica';font-size:99.99px;fill:#000000" text-anchor="middle">2001q1</text>
	<line x1="2074.92" y1="2233.63" x2="2074.92" y2="2273.73" style="stroke:#000000;stroke-width:5.76"/>
	<text x="2074.92" y="2363.59" style="font-family:'Helvetica';font-size:99.99px;fill:#000000" text-anchor="middle">2003q1</text>
	<line x1="2935.35" y1="2233.63" x2="2935.35" y2="2273.73" style="stroke:#000000;stroke-width:5.76"/>
	<text x="2935.35" y="2363.59" style="font-family:'Helvetica';font-size:99.99px;fill:#000000" text-anchor="middle">2005q1</text>
	<line x1="3795.66" y1="2233.63" x2="3795.66" y2="2273.73" style="stroke:#000000;stroke-width:5.76"/>
	<text x="3795.66" y="2363.59" style="font-family:'Helvetica';font-size:99.99px;fill:#000000" text-anchor="middle">2007q1</text>
	<text x="2074.92" y="2473.60" style="font-family:'Helvetica';font-size:99.99px;fill:#000000" text-anchor="middle">time_2</text>
	<rect x="678.27" y="2558.24" width="2793.29" height="186.37" style="fill:#FFFFFF"/>
	<rect x="681.15" y="2561.12" width="2787.53" height="180.61" style="fill:none;stroke:#000000;stroke-width:5.76"/>
	<line x1="721.59" y1="2651.43" x2="1095.93" y2="2651.43" style="stroke:#1A476F;stroke-width:8.64"/>
	<line x1="1733.49" y1="2651.43" x2="2107.83" y2="2651.43" style="stroke:#90353B;stroke-width:8.64"/>
	<text x="1155.95" y="2686.46" style="font-family:'Helvetica';font-size:99.99px;fill:#000000">log(GDP)</text>
	<text x="2167.85" y="2686.46" style="font-family:'Helvetica';font-size:99.99px;fill:#000000">dynamic forecasts of levels</text>
</svg>
