<?xml version="1.0" encoding="UTF-8" standalone="no"?>
<!-- This is a Stata 15.0 generated SVG file (http://www.stata.com) -->

<svg version="1.1" width="5.50in" height="4.00in" viewBox="0 0 3960 2880" xmlns="http://www.w3.org/2000/svg" xmlns:xlink="http://www.w3.org/1999/xlink">
	<desc>Stata Graph - Graph</desc>
	<rect x="0" y="0" width="3960" height="2880" style="fill:#EAF2F3;stroke:none"/>
	<rect x="0.00" y="0.00" width="3959.88" height="2880.00" style="fill:#EAF2F3"/>
	<rect x="2.88" y="2.88" width="3954.12" height="2874.24" style="fill:none;stroke:#EAF2F3;stroke-width:5.76"/>
	<rect x="290.81" y="100.86" width="3568.21" height="2132.77" style="fill:#FFFFFF"/>
	<rect x="293.69" y="103.74" width="3562.45" height="2127.01" style="fill:none;stroke:#FFFFFF;stroke-width:5.76"/>
	<line x1="290.81" y1="2170.27" x2="3859.02" y2="2170.27" style="stroke:#EAF2F3;stroke-width:8.64"/>
	<line x1="290.81" y1="1668.82" x2="3859.02" y2="1668.82" style="stroke:#EAF2F3;stroke-width:8.64"/>
	<line x1="290.81" y1="1167.25" x2="3859.02" y2="1167.25" style="stroke:#EAF2F3;stroke-width:8.64"/>
	<line x1="290.81" y1="665.67" x2="3859.02" y2="665.67" style="stroke:#EAF2F3;stroke-width:8.64"/>
	<line x1="290.81" y1="164.22" x2="3859.02" y2="164.22" style="stroke:#EAF2F3;stroke-width:8.64"/>
	<line x1="569.13" y1="2108.39" x2="676.79" y2="2049.36" stroke-linecap="round" style="stroke:#1A476F;stroke-width:8.64"/>
	<line x1="676.79" y1="2049.36" x2="784.33" y2="1973.63" stroke-linecap="round" style="stroke:#1A476F;stroke-width:8.64"/>
	<line x1="784.33" y1="1973.63" x2="891.87" y2="1863.98" stroke-linecap="round" style="stroke:#1A476F;stroke-width:8.64"/>
	<line x1="891.87" y1="1863.98" x2="999.40" y2="1806.44" stroke-linecap="round" style="stroke:#1A476F;stroke-width:8.64"/>
	<line x1="999.40" y1="1806.44" x2="1106.94" y2="1706.69" stroke-linecap="round" style="stroke:#1A476F;stroke-width:8.64"/>
	<line x1="1106.94" y1="1706.69" x2="1214.48" y2="1686.64" stroke-linecap="round" style="stroke:#1A476F;stroke-width:8.64"/>
	<line x1="1214.48" y1="1686.64" x2="1322.02" y2="1640.36" stroke-linecap="round" style="stroke:#1A476F;stroke-width:8.64"/>
	<line x1="1322.02" y1="1640.36" x2="1429.56" y2="1606.20" stroke-linecap="round" style="stroke:#1A476F;stroke-width:8.64"/>
	<line x1="1429.56" y1="1606.20" x2="1537.10" y2="1552.74" stroke-linecap="round" style="stroke:#1A476F;stroke-width:8.64"/>
	<line x1="1537.10" y1="1552.74" x2="1644.64" y2="1549.65" stroke-linecap="round" style="stroke:#1A476F;stroke-width:8.64"/>
	<line x1="1644.64" y1="1549.65" x2="1752.18" y2="1504.72" stroke-linecap="round" style="stroke:#1A476F;stroke-width:8.64"/>
	<line x1="1752.18" y1="1504.72" x2="1859.71" y2="1452.50" stroke-linecap="round" style="stroke:#1A476F;stroke-width:8.64"/>
	<line x1="1859.71" y1="1452.50" x2="1967.38" y2="1407.45" stroke-linecap="round" style="stroke:#1A476F;stroke-width:8.64"/>
	<line x1="1967.38" y1="1407.45" x2="2074.92" y2="1359.19" stroke-linecap="round" style="stroke:#1A476F;stroke-width:8.64"/>
	<line x1="2074.92" y1="1359.19" x2="2182.45" y2="1328.99" stroke-linecap="round" style="stroke:#1A476F;stroke-width:8.64"/>
	<line x1="2182.45" y1="1328.99" x2="2289.99" y2="1275.04" stroke-linecap="round" style="stroke:#1A476F;stroke-width:8.64"/>
	<line x1="2289.99" y1="1275.04" x2="2397.53" y2="1216.25" stroke-linecap="round" style="stroke:#1A476F;stroke-width:8.64"/>
	<line x1="2397.53" y1="1216.25" x2="2505.07" y2="1099.92" stroke-linecap="round" style="stroke:#1A476F;stroke-width:8.64"/>
	<line x1="2505.07" y1="1099.92" x2="2612.61" y2="1039.90" stroke-linecap="round" style="stroke:#1A476F;stroke-width:8.64"/>
	<line x1="2612.61" y1="1039.90" x2="2720.15" y2="946.22" stroke-linecap="round" style="stroke:#1A476F;stroke-width:8.64"/>
	<line x1="2720.15" y1="946.22" x2="2827.69" y2="851.30" stroke-linecap="round" style="stroke:#1A476F;stroke-width:8.64"/>
	<line x1="2827.69" y1="851.30" x2="2935.23" y2="787.07" stroke-linecap="round" style="stroke:#1A476F;stroke-width:8.64"/>
	<line x1="2935.23" y1="787.07" x2="3042.76" y2="715.05" stroke-linecap="round" style="stroke:#1A476F;stroke-width:8.64"/>
	<line x1="3042.76" y1="715.05" x2="3150.30" y2="630.65" stroke-linecap="round" style="stroke:#1A476F;stroke-width:8.64"/>
	<line x1="3150.30" y1="630.65" x2="3257.97" y2="559.99" stroke-linecap="round" style="stroke:#1A476F;stroke-width:8.64"/>
	<line x1="3257.97" y1="559.99" x2="3365.51" y2="468.41" stroke-linecap="round" style="stroke:#1A476F;stroke-width:8.64"/>
	<line x1="3365.51" y1="468.41" x2="3473.04" y2="406.16" stroke-linecap="round" style="stroke:#1A476F;stroke-width:8.64"/>
	<line x1="3473.04" y1="406.16" x2="3580.58" y2="297.88" stroke-linecap="round" style="stroke:#1A476F;stroke-width:8.64"/>
	<line x1="3580.58" y1="297.88" x2="3688.12" y2="225.60" stroke-linecap="round" style="stroke:#1A476F;stroke-width:8.64"/>
	<line x1="569.13" y1="2079.81" x2="676.79" y2="2044.79" stroke-linecap="round" style="stroke:#90353B;stroke-width:8.64"/>
	<line x1="676.79" y1="2044.79" x2="784.33" y2="1965.46" stroke-linecap="round" style="stroke:#90353B;stroke-width:8.64"/>
	<line x1="784.33" y1="1965.46" x2="891.87" y2="1889.60" stroke-linecap="round" style="stroke:#90353B;stroke-width:8.64"/>
	<line x1="891.87" y1="1889.60" x2="999.40" y2="1772.90" stroke-linecap="round" style="stroke:#90353B;stroke-width:8.64"/>
	<line x1="999.40" y1="1772.90" x2="1106.94" y2="1727.11" stroke-linecap="round" style="stroke:#90353B;stroke-width:8.64"/>
	<line x1="1106.94" y1="1727.11" x2="1214.48" y2="1624.89" stroke-linecap="round" style="stroke:#90353B;stroke-width:8.64"/>
	<line x1="1214.48" y1="1624.89" x2="1322.02" y2="1616.60" stroke-linecap="round" style="stroke:#90353B;stroke-width:8.64"/>
	<line x1="1322.02" y1="1616.60" x2="1429.56" y2="1585.41" stroke-linecap="round" style="stroke:#90353B;stroke-width:8.64"/>
	<line x1="1429.56" y1="1585.41" x2="1537.10" y2="1521.68" stroke-linecap="round" style="stroke:#90353B;stroke-width:8.64"/>
	<line x1="1537.10" y1="1521.68" x2="1644.64" y2="1489.87" stroke-linecap="round" style="stroke:#90353B;stroke-width:8.64"/>
	<line x1="1644.64" y1="1489.87" x2="1752.18" y2="1498.16" stroke-linecap="round" style="stroke:#90353B;stroke-width:8.64"/>
	<line x1="1752.18" y1="1498.16" x2="1859.71" y2="1434.93" stroke-linecap="round" style="stroke:#90353B;stroke-width:8.64"/>
	<line x1="1859.71" y1="1434.93" x2="1967.38" y2="1376.64" stroke-linecap="round" style="stroke:#90353B;stroke-width:8.64"/>
	<line x1="1967.38" y1="1376.64" x2="2074.92" y2="1342.98" stroke-linecap="round" style="stroke:#90353B;stroke-width:8.64"/>
	<line x1="2074.92" y1="1342.98" x2="2182.45" y2="1290.01" stroke-linecap="round" style="stroke:#90353B;stroke-width:8.64"/>
	<line x1="2182.45" y1="1290.01" x2="2289.99" y2="1265.75" stroke-linecap="round" style="stroke:#90353B;stroke-width:8.64"/>
	<line x1="2289.99" y1="1265.75" x2="2397.53" y2="1225.41" stroke-linecap="round" style="stroke:#90353B;stroke-width:8.64"/>
	<line x1="2397.53" y1="1225.41" x2="2505.07" y2="1142.87" stroke-linecap="round" style="stroke:#90353B;stroke-width:8.64"/>
	<line x1="2505.07" y1="1142.87" x2="2612.61" y2="1018.74" stroke-linecap="round" style="stroke:#90353B;stroke-width:8.64"/>
	<line x1="2612.61" y1="1018.74" x2="2720.15" y2="975.68" stroke-linecap="round" style="stroke:#90353B;stroke-width:8.64"/>
	<line x1="2720.15" y1="975.68" x2="2827.69" y2="871.23" stroke-linecap="round" style="stroke:#90353B;stroke-width:8.64"/>
	<line x1="2827.69" y1="871.23" x2="2935.23" y2="752.42" stroke-linecap="round" style="stroke:#90353B;stroke-width:8.64"/>
	<line x1="2935.23" y1="752.42" x2="3042.76" y2="723.71" stroke-linecap="round" style="stroke:#90353B;stroke-width:8.64"/>
	<line x1="3042.76" y1="723.71" x2="3150.30" y2="638.20" stroke-linecap="round" style="stroke:#90353B;stroke-width:8.64"/>
	<line x1="3150.30" y1="638.20" x2="3257.97" y2="549.71" stroke-linecap="round" style="stroke:#90353B;stroke-width:8.64"/>
	<line x1="3257.97" y1="549.71" x2="3365.51" y2="496.13" stroke-linecap="round" style="stroke:#90353B;stroke-width:8.64"/>
	<line x1="3365.51" y1="496.13" x2="3473.04" y2="376.34" stroke-linecap="round" style="stroke:#90353B;stroke-width:8.64"/>
	<line x1="3473.04" y1="376.34" x2="3580.58" y2="315.32" stroke-linecap="round" style="stroke:#90353B;stroke-width:8.64"/>
	<line x1="3580.58" y1="315.32" x2="3688.12" y2="205.93" stroke-linecap="round" style="stroke:#90353B;stroke-width:8.64"/>
	<line x1="290.81" y1="2233.63" x2="290.81" y2="100.86" style="stroke:#000000;stroke-width:5.76"/>
	<line x1="290.81" y1="2170.27" x2="250.84" y2="2170.27" style="stroke:#000000;stroke-width:5.76"/>
	<text x="200.73" y="2170.27" style="font-family:'Helvetica';font-size:99.99px;fill:#000000" transform="rotate(-90 200.73,2170.27)" text-anchor="middle">9.1</text>
	<line x1="290.81" y1="1668.82" x2="250.84" y2="1668.82" style="stroke:#000000;stroke-width:5.76"/>
	<text x="200.73" y="1668.82" style="font-family:'Helvetica';font-size:99.99px;fill:#000000" transform="rotate(-90 200.73,1668.82)" text-anchor="middle">9.2</text>
	<line x1="290.81" y1="1167.25" x2="250.84" y2="1167.25" style="stroke:#000000;stroke-width:5.76"/>
	<text x="200.73" y="1167.25" style="font-family:'Helvetica';font-size:99.99px;fill:#000000" transform="rotate(-90 200.73,1167.25)" text-anchor="middle">9.3</text>
	<line x1="290.81" y1="665.67" x2="250.84" y2="665.67" style="stroke:#000000;stroke-width:5.76"/>
	<text x="200.73" y="665.67" style="font-family:'Helvetica';font-size:99.99px;fill:#000000" transform="rotate(-90 200.73,665.67)" text-anchor="middle">9.4</text>
	<line x1="290.81" y1="164.22" x2="250.84" y2="164.22" style="stroke:#000000;stroke-width:5.76"/>
	<text x="200.73" y="164.22" style="font-family:'Helvetica';font-size:99.99px;fill:#000000" transform="rotate(-90 200.73,164.22)" text-anchor="middle">9.5</text>
	<line x1="290.81" y1="2233.63" x2="3859.02" y2="2233.63" style="stroke:#000000;stroke-width:5.76"/>
	<line x1="354.17" y1="2233.63" x2="354.17" y2="2273.73" style="stroke:#000000;stroke-width:5.76"/>
	<text x="354.17" y="2363.59" style="font-family:'Helvetica';font-size:99.99px;fill:#000000" text-anchor="middle">1998q3</text>
	<line x1="1214.48" y1="2233.63" x2="1214.48" y2="2273.73" style="stroke:#000000;stroke-width:5.76"/>
	<text x="1214.48" y="2363.59" style="font-family:'Helvetica';font-size:99.99px;fill:#000000" text-anchor="middle">2000q3</text>
	<line x1="2074.92" y1="2233.63" x2="2074.92" y2="2273.73" style="stroke:#000000;stroke-width:5.76"/>
	<text x="2074.92" y="2363.59" style="font-family:'Helvetica';font-size:99.99px;fill:#000000" text-anchor="middle">2002q3</text>
	<line x1="2935.35" y1="2233.63" x2="2935.35" y2="2273.73" style="stroke:#000000;stroke-width:5.76"/>
	<text x="2935.35" y="2363.59" style="font-family:'Helvetica';font-size:99.99px;fill:#000000" text-anchor="middle">2004q3</text>
	<line x1="3795.66" y1="2233.63" x2="3795.66" y2="2273.73" style="stroke:#000000;stroke-width:5.76"/>
	<text x="3795.66" y="2363.59" style="font-family:'Helvetica';font-size:99.99px;fill:#000000" text-anchor="middle">2006q3</text>
	<text x="2074.92" y="2473.60" style="font-family:'Helvetica';font-size:99.99px;fill:#000000" text-anchor="middle">time_2</text>
	<rect x="922.93" y="2558.24" width="2303.98" height="186.37" style="fill:#FFFFFF"/>
	<rect x="925.81" y="2561.12" width="2298.22" height="180.61" style="fill:none;stroke:#000000;stroke-width:5.76"/>
	<line x1="966.12" y1="2651.43" x2="1340.46" y2="2651.43" style="stroke:#1A476F;stroke-width:8.64"/>
	<line x1="1978.02" y1="2651.43" x2="2352.49" y2="2651.43" style="stroke:#90353B;stroke-width:8.64"/>
	<text x="1400.48" y="2686.46" style="font-family:'Helvetica';font-size:99.99px;fill:#000000">log(GDP)</text>
	<text x="2412.38" y="2686.46" style="font-family:'Helvetica';font-size:99.99px;fill:#000000">yyy, ARIMA, h=1</text>
</svg>
